<svg xmlns="http://www.w3.org/2000/svg" width="1254" height="900" viewBox="0 0 1254 900">
  <g fill="none" fill-rule="evenodd" stroke="#B1B3B5" stroke-width=".87" opacity=".124" transform="translate(0 -162)">
    <path d="M1253.34524,626.892527 C1253.34524,280.629275 973.152385,0.437290076 626.890003,0.437290076 C280.626751,0.437290076 0.434766412,280.629275 0.434766412,626.892527 C0.434766412,973.154908 280.626751,1253.34776 626.890003,1253.34776 C973.152385,1253.34776 1253.34524,973.154908 1253.34524,626.892527 Z"/>
    <path d="M626.889916,1247.14477 C284.055366,1247.14477 6.63767176,969.727076 6.63767176,626.892527 C6.63767176,284.057107 284.055366,6.64028244 626.889916,6.64028244 C969.724466,6.64028244 1247.14216,284.057107 1247.14216,626.892527 C1247.14216,969.727076 969.724466,1247.14477 626.889916,1247.14477 Z"/>
    <path d="M1240.93934,626.892527 C1240.93934,287.485809 966.295937,12.8424046 626.89009,12.8424046 C287.483373,12.8424046 12.8399679,287.485809 12.8399679,626.892527 C12.8399679,966.299244 287.483373,1240.94178 626.89009,1240.94178 C966.295937,1240.94178 1240.93934,966.299244 1240.93934,626.892527 Z"/>
    <path d="M626.889916,1234.73983 C290.911901,1234.73983 19.0427863,962.870716 19.0427863,626.892701 C19.0427863,290.914685 290.911901,19.045571 626.889916,19.045571 C962.867931,19.045571 1234.73705,290.914685 1234.73705,626.892701 C1234.73705,962.870716 962.867931,1234.73983 626.889916,1234.73983 Z"/>
    <path d="M1228.53431,626.892527 C1228.53431,294.342344 959.43949,25.2475191 626.890177,25.2475191 C294.339994,25.2475191 25.2451695,294.342344 25.2451695,626.892527 C25.2451695,959.44271 294.339994,1228.53666 626.890177,1228.53666 C959.43949,1228.53666 1228.53431,959.44271 1228.53431,626.892527 Z"/>
    <path d="M626.889916,1222.3348 C297.768435,1222.3348 31.4479008,956.014269 31.4479008,626.892788 C31.4479008,297.771307 297.768435,31.4499023 626.889916,31.4499023 C956.011397,31.4499023 1222.33193,297.771307 1222.33193,626.892788 C1222.33193,956.014269 956.011397,1222.3348 626.889916,1222.3348 Z"/>
    <path d="M1216.12929,626.892527 C1216.12929,301.199748 952.583043,37.6526336 626.890264,37.6526336 C301.196615,37.6526336 37.650371,301.199748 37.650371,626.892527 C37.650371,952.586176 301.196615,1216.13155 626.890264,1216.13155 C952.583043,1216.13155 1216.12929,952.586176 1216.12929,626.892527 Z"/>
    <path d="M626.889916,1209.92978 C304.624969,1209.92978 43.8530153,949.156951 43.8530153,626.892875 C43.8530153,304.627928 304.624969,43.8551038 626.889916,43.8551038 C949.153992,43.8551038 1209.92682,304.627928 1209.92682,626.892875 C1209.92682,949.156951 949.153992,1209.92978 626.889916,1209.92978 Z"/>
    <path d="M1203.72435,626.892527 C1203.72435,308.056282 945.725812,50.0577481 626.889568,50.0577481 C308.053324,50.0577481 50.0547893,308.056282 50.0547893,626.892527 C50.0547893,945.728771 308.053324,1203.72731 626.889568,1203.72731 C945.725812,1203.72731 1203.72435,945.728771 1203.72435,626.892527 Z"/>
    <path d="M626.889916,1197.52475 C311.482374,1197.52475 56.2572595,942.300504 56.2572595,626.892092 C56.2572595,311.48455 311.482374,56.2603053 626.889916,56.2603053 C942.297458,56.2603053 1197.52257,311.48455 1197.52257,626.892092 C1197.52257,942.300504 942.297458,1197.52475 626.889916,1197.52475 Z"/>
    <path d="M1191.31932,626.892527 C1191.31932,314.912817 938.869365,62.4628626 626.889655,62.4628626 C314.909945,62.4628626 62.4599908,314.912817 62.4599908,626.892527 C62.4599908,938.872237 314.909945,1191.32219 626.889655,1191.32219 C938.869365,1191.32219 1191.31932,938.872237 1191.31932,626.892527 Z"/>
    <path d="M626.889916,1185.11972 C318.338908,1185.11972 68.662374,935.444056 68.662374,626.892179 C68.662374,318.341171 318.338908,68.6655069 626.889916,68.6655069 C935.440924,68.6655069 1185.11746,318.341171 1185.11746,626.892179 C1185.11746,935.444056 935.440924,1185.11972 626.889916,1185.11972 Z"/>
    <path d="M1178.91429,626.892527 C1178.91429,321.769351 932.012918,74.8679771 626.889742,74.8679771 C321.767437,74.8679771 74.8651924,321.769351 74.8651924,626.892527 C74.8651924,932.015702 321.767437,1178.91708 626.889742,1178.91708 C932.012918,1178.91708 1178.91429,932.015702 1178.91429,626.892527 Z"/>
    <path d="M626.889916,1172.71469 C325.195443,1172.71469 81.0674885,928.587609 81.0674885,626.892266 C81.0674885,325.197792 325.195443,81.0698382 626.889916,81.0698382 C928.58526,81.0698382 1172.71234,325.197792 1172.71234,626.892266 C1172.71234,928.587609 928.58526,1172.71469 626.889916,1172.71469 Z"/>
    <path d="M1166.50926,626.892527 C1166.50926,328.625885 925.1556,87.2730916 626.889829,87.2730916 C328.624058,87.2730916 87.2703939,328.625885 87.2703939,626.892527 C87.2703939,925.158298 328.624058,1166.51196 626.889829,1166.51196 C925.1556,1166.51196 1166.50926,925.158298 1166.50926,626.892527 Z"/>
    <path d="M626.889916,1160.30967 C332.051977,1160.30967 93.4734733,921.730292 93.4734733,626.892353 C93.4734733,332.054414 332.051977,93.4759099 626.889916,93.4759099 C921.727855,93.4759099 1160.30723,332.054414 1160.30723,626.892353 C1160.30723,921.730292 921.727855,1160.30967 626.889916,1160.30967 Z"/>
    <path d="M1154.10424,626.892527 C1154.10424,335.48329 918.299153,99.6782061 626.889916,99.6782061 C335.480679,99.6782061 99.6755954,335.48329 99.6755954,626.892527 C99.6755954,918.301763 335.480679,1154.10685 626.889916,1154.10685 C918.299153,1154.10685 1154.10424,918.301763 1154.10424,626.892527 Z"/>
    <path d="M626.889916,1147.90473 C338.908511,1147.90473 105.877718,914.873931 105.877718,626.892527 C105.877718,338.911122 338.908511,105.880328 626.889916,105.880328 C914.871321,105.880328 1147.90211,338.911122 1147.90211,626.892527 C1147.90211,914.873931 914.871321,1147.90473 626.889916,1147.90473 Z"/>
    <path d="M1141.69921,626.892527 C1141.69921,342.339824 911.442705,112.083321 626.890003,112.083321 C342.337301,112.083321 112.080797,342.339824 112.080797,626.892527 C112.080797,911.445229 342.337301,1141.70173 626.890003,1141.70173 C911.442705,1141.70173 1141.69921,911.445229 1141.69921,626.892527 Z"/>
    <path d="M626.889916,1135.4997 C345.765916,1135.4997 118.282832,908.017484 118.282832,626.892614 C118.282832,345.767744 345.765916,118.28553 626.889916,118.28553 C908.014786,118.28553 1135.497,345.767744 1135.497,626.892614 C1135.497,908.017484 908.014786,1135.4997 626.889916,1135.4997 Z"/>
    <path d="M1129.29427,626.892527 C1129.29427,349.196359 904.586345,124.488435 626.890177,124.488435 C349.194009,124.488435 124.486085,349.196359 124.486085,626.892527 C124.486085,904.588695 349.194009,1129.29662 626.890177,1129.29662 C904.586345,1129.29662 1129.29427,904.588695 1129.29427,626.892527 Z"/>
    <path d="M626.889916,1123.09467 C352.62245,1123.09467 130.687947,901.160166 130.687947,626.892701 C130.687947,352.624365 352.62245,130.690731 626.889916,130.690731 C901.157382,130.690731 1123.09189,352.624365 1123.09189,626.892701 C1123.09189,901.160166 901.157382,1123.09467 626.889916,1123.09467 Z"/>
    <path d="M1116.88924,626.892527 C1116.88924,356.052893 897.729027,136.89355 626.890264,136.89355 C356.050631,136.89355 136.890417,356.052893 136.890417,626.892527 C136.890417,897.73216 356.050631,1116.8915 626.890264,1116.8915 C897.729027,1116.8915 1116.88924,897.73216 1116.88924,626.892527 Z"/>
    <path d="M626.889916,1110.68964 C359.478985,1110.68964 143.093061,894.303719 143.093061,626.892788 C143.093061,359.481856 359.478985,143.095933 626.889916,143.095933 C894.300847,143.095933 1110.68677,359.481856 1110.68677,626.892788 C1110.68677,894.303719 894.300847,1110.68964 626.889916,1110.68964 Z"/>
    <path d="M1104.48421,626.892527 C1104.48421,362.909427 890.87258,149.298664 626.890351,149.298664 C362.907252,149.298664 149.295618,362.909427 149.295618,626.892527 C149.295618,890.875626 362.907252,1104.48639 626.890351,1104.48639 C890.87258,1104.48639 1104.48421,890.875626 1104.48421,626.892527 Z"/>
    <path d="M626.889916,1098.28462 C366.335519,1098.28462 155.498176,887.447272 155.498176,626.892875 C155.498176,366.337608 366.335519,155.500264 626.889916,155.500264 C887.444313,155.500264 1098.28166,366.337608 1098.28166,626.892875 C1098.28166,887.447272 887.444313,1098.28462 626.889916,1098.28462 Z"/>
    <path d="M1092.07919,626.892527 C1092.07919,369.766832 884.016133,161.702908 626.889568,161.702908 C369.763873,161.702908 161.70082,369.766832 161.70082,626.892527 C161.70082,884.019092 369.763873,1092.08215 626.889568,1092.08215 C884.016133,1092.08215 1092.07919,884.019092 1092.07919,626.892527 Z"/>
    <path d="M626.889916,1085.8788 C373.192053,1085.8788 167.90329,880.590911 167.90329,626.892179 C167.90329,373.195186 373.192053,167.905553 626.889916,167.905553 C880.587779,167.905553 1085.87654,373.195186 1085.87654,626.892179 C1085.87654,880.590911 880.587779,1085.8788 626.889916,1085.8788 Z"/>
    <path d="M1079.67416,626.892527 C1079.67416,376.623366 877.158815,174.108023 626.889655,174.108023 C376.620495,174.108023 174.106021,376.623366 174.106021,626.892527 C174.106021,877.161687 376.620495,1079.67703 626.889655,1079.67703 C877.158815,1079.67703 1079.67416,877.161687 1079.67416,626.892527 Z"/>
    <path d="M626.889916,1073.47378 C380.048588,1073.47378 180.308405,873.733594 180.308405,626.892266 C180.308405,380.050937 380.048588,180.310754 626.889916,180.310754 C873.730374,180.310754 1073.47143,380.050937 1073.47143,626.892266 C1073.47143,873.733594 873.730374,1073.47378 626.889916,1073.47378 Z"/>
    <path d="M1067.26913,626.892527 C1067.26913,383.479901 870.302368,186.513137 626.889742,186.513137 C383.477116,186.513137 186.510353,383.479901 186.510353,626.892527 C186.510353,870.305153 383.477116,1067.27192 626.889742,1067.27192 C870.302368,1067.27192 1067.26913,870.305153 1067.26913,626.892527 Z"/>
    <path d="M626.889916,1061.06875 C386.905992,1061.06875 192.713519,866.877147 192.713519,626.892353 C192.713519,386.908429 386.905992,192.715956 626.889916,192.715956 C866.87384,192.715956 1061.06631,386.908429 1061.06631,626.892353 C1061.06631,866.877147 866.87384,1061.06875 626.889916,1061.06875 Z"/>
    <path d="M1054.86419,626.892527 C1054.86419,390.336435 863.446008,198.918252 626.889916,198.918252 C390.333824,198.918252 198.915641,390.336435 198.915641,626.892527 C198.915641,863.448618 390.333824,1054.8668 626.889916,1054.8668 C863.446008,1054.8668 1054.86419,863.448618 1054.86419,626.892527 Z"/>
    <path d="M626.889916,1048.66372 C393.762527,1048.66372 205.118634,860.020699 205.118634,626.89244 C205.118634,393.76505 393.762527,205.121157 626.889916,205.121157 C860.018176,205.121157 1048.6612,393.76505 1048.6612,626.89244 C1048.6612,860.020699 860.018176,1048.66372 626.889916,1048.66372 Z"/>
    <path d="M1042.45916,626.892527 C1042.45916,397.192969 856.58956,211.323366 626.890003,211.323366 C397.190446,211.323366 211.320843,397.192969 211.320843,626.892527 C211.320843,856.592084 397.190446,1042.46169 626.890003,1042.46169 C856.58956,1042.46169 1042.45916,856.592084 1042.45916,626.892527 Z"/>
    <path d="M626.889916,1036.25878 C400.619061,1036.25878 217.522878,853.163469 217.522878,626.892614 C217.522878,400.621759 400.619061,217.525576 626.889916,217.525576 C853.160771,217.525576 1036.25608,400.621759 1036.25608,626.892614 C1036.25608,853.163469 853.160771,1036.25878 626.889916,1036.25878 Z"/>
    <path d="M1030.05414,626.892527 C1030.05414,404.049504 849.732243,223.728481 626.89009,223.728481 C404.047067,223.728481 223.726044,404.049504 223.726044,626.892527 C223.726044,849.734679 404.047067,1030.05657 626.89009,1030.05657 C849.732243,1030.05657 1030.05414,849.734679 1030.05414,626.892527 Z"/>
    <path d="M626.889916,1023.85375 C407.475595,1023.85375 229.927992,846.307021 229.927992,626.892701 C229.927992,407.47838 407.475595,229.930777 626.889916,229.930777 C846.304237,229.930777 1023.85097,407.47838 1023.85097,626.892701 C1023.85097,846.307021 846.304237,1023.85375 626.889916,1023.85375 Z"/>
    <path d="M1017.64911,626.892527 C1017.64911,410.906908 842.875795,236.133595 626.890177,236.133595 C410.903689,236.133595 236.130376,410.906908 236.130376,626.892527 C236.130376,842.878145 410.903689,1017.65146 626.890177,1017.65146 C842.875795,1017.65146 1017.64911,842.878145 1017.64911,626.892527 Z"/>
    <path d="M626.889916,1011.44873 C414.33213,1011.44873 242.333977,839.450574 242.333977,626.892788 C242.333977,414.335002 414.33213,242.335979 626.889916,242.335979 C839.447702,242.335979 1011.44585,414.335002 1011.44585,626.892788 C1011.44585,839.450574 839.447702,1011.44873 626.889916,1011.44873 Z"/>
    <path d="M1005.24408,626.892527 C1005.24408,417.763443 836.019348,248.53871 626.890264,248.53871 C417.76118,248.53871 248.536447,417.763443 248.536447,626.892527 C248.536447,836.021611 417.76118,1005.24634 626.890264,1005.24634 C836.019348,1005.24634 1005.24408,836.021611 1005.24408,626.892527 Z"/>
    <path d="M626.889916,999.043699 C421.189534,999.043699 254.739092,832.594127 254.739092,626.892875 C254.739092,421.191623 421.189534,254.74118 626.889916,254.74118 C832.591168,254.74118 999.04074,421.191623 999.04074,626.892875 C999.04074,832.594127 832.591168,999.043699 626.889916,999.043699 Z"/>
    <path d="M992.839053,626.892527 C992.839053,424.619977 829.162031,260.943824 626.889481,260.943824 C424.616931,260.943824 260.940779,424.619977 260.940779,626.892527 C260.940779,829.165076 424.616931,992.841229 626.889481,992.841229 C829.162031,992.841229 992.839053,829.165076 992.839053,626.892527 Z"/>
    <path d="M626.889916,986.638672 C428.045198,986.638672 267.143336,825.736809 267.143336,626.892092 C267.143336,428.048244 428.045198,267.146382 626.889916,267.146382 C825.733763,267.146382 986.636496,428.048244 986.636496,626.892092 C986.636496,825.736809 825.733763,986.638672 626.889916,986.638672 Z"/>
    <path d="M980.434113,626.892527 C980.434113,431.476511 822.30567,273.348939 626.889655,273.348939 C431.47451,273.348939 273.346067,431.476511 273.346067,626.892527 C273.346067,822.308542 431.47451,980.436985 626.889655,980.436985 C822.30567,980.436985 980.434113,822.308542 980.434113,626.892527 Z"/>
    <path d="M626.889916,974.233644 C434.902603,974.233644 279.54845,818.879492 279.54845,626.892179 C279.54845,434.904866 434.902603,279.551583 626.889916,279.551583 C818.877229,279.551583 974.231382,434.904866 974.231382,626.892179 C974.231382,818.879492 818.877229,974.233644 626.889916,974.233644 Z"/>
    <path d="M968.029085,626.892527 C968.029085,438.333046 815.449223,285.754053 626.889742,285.754053 C438.331131,285.754053 285.751269,438.333046 285.751269,626.892527 C285.751269,815.452008 438.331131,968.03187 626.889742,968.03187 C815.449223,968.03187 968.029085,815.452008 968.029085,626.892527 Z"/>
    <path d="M626.889916,961.828617 C441.759137,961.828617 291.953565,812.023044 291.953565,626.892266 C291.953565,441.761487 441.759137,291.955915 626.889916,291.955915 C812.020695,291.955915 961.826267,441.761487 961.826267,626.892266 C961.826267,812.023044 812.020695,961.828617 626.889916,961.828617 Z"/>
    <path d="M955.624058,626.892527 C955.624058,445.19045 808.592776,298.159168 626.889829,298.159168 C445.187753,298.159168 298.15647,445.19045 298.15647,626.892527 C298.15647,808.595473 445.187753,955.626756 626.889829,955.626756 C808.592776,955.626756 955.624058,808.595473 955.624058,626.892527 Z"/>
    <path d="M626.889916,949.423676 C448.615672,949.423676 304.358679,805.165814 304.358679,626.89244 C304.358679,448.618195 448.615672,304.361203 626.889916,304.361203 C805.16329,304.361203 949.421153,448.618195 949.421153,626.89244 C949.421153,805.165814 805.16329,949.423676 626.889916,949.423676 Z"/>
    <path d="M943.219031,626.892527 C943.219031,452.046985 801.735458,310.564282 626.889916,310.564282 C452.044374,310.564282 310.561672,452.046985 310.561672,626.892527 C310.561672,801.738069 452.044374,943.221641 626.889916,943.221641 C801.735458,943.221641 943.219031,801.738069 943.219031,626.892527 Z"/>
    <path d="M626.889916,937.018649 C455.473076,937.018649 316.763794,798.309366 316.763794,626.892527 C316.763794,455.474817 455.473076,316.766405 626.889916,316.766405 C798.306756,316.766405 937.016038,455.474817 937.016038,626.892527 C937.016038,798.309366 798.306756,937.018649 626.889916,937.018649 Z"/>
    <path d="M930.81322,626.892527 C930.81322,458.903519 794.879098,322.968527 626.89009,322.968527 C458.901082,322.968527 322.96609,458.903519 322.96609,626.892527 C322.96609,794.881534 458.901082,930.815656 626.89009,930.815656 C794.879098,930.815656 930.81322,794.881534 930.81322,626.892527 Z"/>
    <path d="M626.889916,924.613621 C462.32874,924.613621 329.168908,791.452919 329.168908,626.892614 C329.168908,462.331438 462.32874,329.171606 626.889916,329.171606 C791.451092,329.171606 924.610924,462.331438 924.610924,626.892614 C924.610924,791.452919 791.451092,924.613621 626.889916,924.613621 Z"/>
    <path d="M918.408192,626.892527 C918.408192,465.760053 788.02265,335.373641 626.890177,335.373641 C465.757704,335.373641 335.371292,465.760053 335.371292,626.892527 C335.371292,788.025 465.757704,918.410542 626.890177,918.410542 C788.02265,918.410542 918.408192,788.025 918.408192,626.892527 Z"/>
    <path d="M626.889916,912.208594 C469.186145,912.208594 341.574023,784.596472 341.574023,626.892701 C341.574023,469.18893 469.186145,341.575937 626.889916,341.575937 C784.594557,341.575937 912.205809,469.18893 912.205809,626.892701 C912.205809,784.596472 784.594557,912.208594 626.889916,912.208594 Z"/>
    <path d="M906.003165,626.892527 C906.003165,472.616588 781.165333,347.778756 626.890264,347.778756 C472.614325,347.778756 347.776493,472.616588 347.776493,626.892527 C347.776493,781.167595 472.614325,906.005427 626.890264,906.005427 C781.165333,906.005427 906.003165,781.167595 906.003165,626.892527 Z"/>
    <path d="M626.889916,899.803566 C476.042679,899.803566 353.979137,777.739154 353.979137,626.892788 C353.979137,476.044681 476.042679,353.981139 626.889916,353.981139 C777.737153,353.981139 899.800695,476.044681 899.800695,626.892788 C899.800695,777.739154 777.737153,899.803566 626.889916,899.803566 Z"/>
    <path d="M893.598137,626.892527 C893.598137,479.473992 774.308885,360.18387 626.890351,360.18387 C479.470947,360.18387 360.181695,479.473992 360.181695,626.892527 C360.181695,774.311061 479.470947,893.600313 626.890351,893.600313 C774.308885,893.600313 893.598137,774.311061 893.598137,626.892527 Z"/>
    <path d="M626.889916,887.398539 C482.899214,887.398539 366.384252,770.882707 366.384252,626.892875 C366.384252,482.902173 482.899214,366.38634 626.889916,366.38634 C770.880618,366.38634 887.39645,482.902173 887.39645,626.892875 C887.39645,770.882707 770.880618,887.398539 626.889916,887.398539 Z"/>
    <path d="M881.19311,626.892527 C881.19311,486.330527 767.452438,372.588985 626.889568,372.588985 C486.327568,372.588985 372.586026,486.330527 372.586026,626.892527 C372.586026,767.454527 486.327568,881.196069 626.889568,881.196069 C767.452438,881.196069 881.19311,767.454527 881.19311,626.892527 Z"/>
    <path d="M626.889916,874.993598 C489.756618,874.993598 378.788496,764.026347 378.788496,626.892179 C378.788496,489.758881 489.756618,378.791629 626.889916,378.791629 C764.024084,378.791629 874.991336,489.758881 874.991336,626.892179 C874.991336,764.026347 764.024084,874.993598 626.889916,874.993598 Z"/>
    <path d="M868.788082,626.892527 C868.788082,493.187061 760.595991,384.994099 626.889655,384.994099 C493.184189,384.994099 384.991227,493.187061 384.991227,626.892527 C384.991227,760.598863 493.184189,868.790954 626.889655,868.790954 C760.595991,868.790954 868.788082,760.598863 868.788082,626.892527 Z"/>
    <path d="M626.889916,862.588571 C496.612282,862.588571 391.193611,757.169029 391.193611,626.892266 C391.193611,496.615502 496.612282,391.196831 626.889916,391.196831 C757.166679,391.196831 862.586221,496.615502 862.586221,626.892266 C862.586221,757.169029 757.166679,862.588571 626.889916,862.588571 Z"/>
    <path d="M856.383142,626.892527 C856.383142,500.043595 753.73876,397.399214 626.889829,397.399214 C500.040898,397.399214 397.396516,500.043595 397.396516,626.892527 C397.396516,753.741458 500.040898,856.38584 626.889829,856.38584 C753.73876,856.38584 856.383142,753.741458 856.383142,626.892527 Z"/>
    <path d="M626.889916,850.183544 C503.469687,850.183544 403.599595,750.312582 403.599595,626.892353 C403.599595,503.472124 503.469687,403.602032 626.889916,403.602032 C750.310145,403.602032 850.181107,503.472124 850.181107,626.892353 C850.181107,750.312582 750.310145,850.183544 626.889916,850.183544 Z"/>
    <path d="M843.978115,626.892527 C843.978115,506.90013 746.882313,409.804328 626.889916,409.804328 C506.897519,409.804328 409.801718,506.90013 409.801718,626.892527 C409.801718,746.884924 506.897519,843.980725 626.889916,843.980725 C746.882313,843.980725 843.978115,746.884924 843.978115,626.892527 Z"/>
    <path d="M626.889916,837.778516 C510.326221,837.778516 416.00471,743.456134 416.00471,626.89244 C416.00471,510.328745 510.326221,416.007234 626.889916,416.007234 C743.453611,416.007234 837.775992,510.328745 837.775992,626.89244 C837.775992,743.456134 743.453611,837.778516 626.889916,837.778516 Z"/>
    <path d="M831.573087,626.892527 C831.573087,513.757534 740.025866,422.209443 626.890003,422.209443 C513.755011,422.209443 422.206919,513.757534 422.206919,626.892527 C422.206919,740.028389 513.755011,831.575611 626.890003,831.575611 C740.025866,831.575611 831.573087,740.028389 831.573087,626.892527 Z"/>
    <path d="M626.889916,825.373489 C517.182756,825.373489 428.408954,736.599687 428.408954,626.892527 C428.408954,517.185366 517.182756,428.411565 626.889916,428.411565 C736.597076,428.411565 825.370878,517.185366 825.370878,626.892527 C825.370878,736.599687 736.597076,825.373489 626.889916,825.373489 Z"/>
    <path d="M819.16806,626.892527 C819.16806,520.614069 733.168548,434.614557 626.89009,434.614557 C520.610762,434.614557 434.612121,520.614069 434.612121,626.892527 C434.612121,733.170985 520.610762,819.170496 626.89009,819.170496 C733.168548,819.170496 819.16806,733.170985 819.16806,626.892527 Z"/>
    <path d="M626.889916,812.968548 C524.03929,812.968548 440.814069,729.742456 440.814069,626.892701 C440.814069,524.042075 524.03929,440.816853 626.889916,440.816853 C729.740542,440.816853 812.965763,524.042075 812.965763,626.892701 C812.965763,729.742456 729.740542,812.968548 626.889916,812.968548 Z"/>
    <path d="M806.763032,626.892527 C806.763032,527.470603 726.312101,447.019672 626.890177,447.019672 C527.468253,447.019672 447.016452,527.470603 447.016452,626.892527 C447.016452,726.31445 527.468253,806.765382 626.890177,806.765382 C726.312101,806.765382 806.763032,726.31445 806.763032,626.892527 Z"/>
    <path d="M626.889916,800.563521 C530.895824,800.563521 453.219183,722.886009 453.219183,626.892788 C453.219183,530.898696 530.895824,453.222055 626.889916,453.222055 C722.884008,453.222055 800.560649,530.898696 800.560649,626.892788 C800.560649,722.886009 722.884008,800.563521 626.889916,800.563521 Z"/>
    <path d="M794.358005,626.892527 C794.358005,534.327137 719.455653,459.424786 626.890264,459.424786 C534.324005,459.424786 459.421653,534.327137 459.421653,626.892527 C459.421653,719.457916 534.324005,794.360267 626.890264,794.360267 C719.455653,794.360267 794.358005,719.457916 794.358005,626.892527 Z"/>
    <path d="M626.889916,788.158493 C537.753229,788.158493 465.624298,716.029562 465.624298,626.892875 C465.624298,537.755318 537.753229,465.627256 626.889916,465.627256 C716.027473,465.627256 788.155534,537.755318 788.155534,626.892875 C788.155534,716.029562 716.027473,788.158493 626.889916,788.158493 Z"/>
    <path d="M781.953064,626.892527 C781.953064,541.183672 712.599293,471.829031 626.889568,471.829031 C541.181583,471.829031 471.826942,541.183672 471.826942,626.892527 C471.826942,712.601382 541.181583,781.956023 626.889568,781.956023 C712.599293,781.956023 781.953064,712.601382 781.953064,626.892527 Z"/>
    <path d="M626.889916,775.752682 C544.609763,775.752682 478.029412,709.172331 478.029412,626.892179 C478.029412,544.612026 544.609763,478.031675 626.889916,478.031675 C709.170069,478.031675 775.75042,544.612026 775.75042,626.892179 C775.75042,709.172331 709.170069,775.752682 626.889916,775.752682 Z"/>
    <path d="M769.548037,626.892527 C769.548037,548.040206 705.741976,484.234145 626.889655,484.234145 C548.038205,484.234145 484.232144,548.040206 484.232144,626.892527 C484.232144,705.743977 548.038205,769.550908 626.889655,769.550908 C705.741976,769.550908 769.548037,705.743977 769.548037,626.892527 Z"/>
    <path d="M626.889916,763.347655 C551.466298,763.347655 490.434527,702.315884 490.434527,626.892266 C490.434527,551.468647 551.466298,490.436876 626.889916,490.436876 C702.313534,490.436876 763.345305,551.468647 763.345305,626.892266 C763.345305,702.315884 702.313534,763.347655 626.889916,763.347655 Z"/>
    <path d="M757.143009,626.892527 C757.143009,554.897611 698.885528,496.63926 626.889742,496.63926 C554.894826,496.63926 496.636475,554.897611 496.636475,626.892527 C496.636475,698.887443 554.894826,757.145794 626.889742,757.145794 C698.885528,757.145794 757.143009,698.887443 757.143009,626.892527 Z"/>
    <path d="M626.889916,750.942627 C558.322832,750.942627 502.839641,695.459437 502.839641,626.892353 C502.839641,558.325269 558.322832,502.842078 626.889916,502.842078 C695.457,502.842078 750.940191,558.325269 750.940191,626.892353 C750.940191,695.459437 695.457,750.942627 626.889916,750.942627 Z"/>
    <path d="M744.737982,626.892527 C744.737982,561.754145 692.029081,509.044374 626.889829,509.044374 C561.751447,509.044374 509.041676,561.754145 509.041676,626.892527 C509.041676,692.031779 561.751447,744.740679 626.889829,744.740679 C692.029081,744.740679 744.737982,692.031779 744.737982,626.892527 Z"/>
    <path d="M626.889916,738.5376 C565.179366,738.5376 515.244756,688.602989 515.244756,626.89244 C515.244756,565.18189 565.179366,515.247279 626.889916,515.247279 C688.600466,515.247279 738.535076,565.18189 738.535076,626.89244 C738.535076,688.602989 688.600466,738.5376 626.889916,738.5376 Z"/>
    <path d="M732.332954,626.892527 C732.332954,568.610679 685.171763,521.449489 626.889916,521.449489 C568.608069,521.449489 521.446878,568.610679 521.446878,626.892527 C521.446878,685.174374 568.608069,732.335565 626.889916,732.335565 C685.171763,732.335565 732.332954,685.174374 732.332954,626.892527 Z"/>
    <path d="M626.889916,726.132573 C572.035901,726.132573 527.649,681.745672 527.649,626.892527 C527.649,572.038511 572.035901,527.651611 626.889916,527.651611 C681.743061,527.651611 726.129962,572.038511 726.129962,626.892527 C726.129962,681.745672 681.743061,726.132573 626.889916,726.132573 Z"/>
    <path d="M719.927927,626.892527 C719.927927,575.467214 678.315316,533.854603 626.890003,533.854603 C575.46469,533.854603 533.852079,575.467214 533.852079,626.892527 C533.852079,678.31784 575.46469,719.93045 626.890003,719.93045 C678.315316,719.93045 719.927927,678.31784 719.927927,626.892527 Z"/>
    <path d="M626.889916,713.727545 C578.893305,713.727545 540.054115,674.889224 540.054115,626.892614 C540.054115,578.896003 578.893305,540.056812 626.889916,540.056812 C674.886527,540.056812 713.724847,578.896003 713.724847,626.892614 C713.724847,674.889224 674.886527,713.727545 626.889916,713.727545 Z"/>
    <path d="M707.522986,626.892527 C707.522986,582.323748 671.458956,546.259718 626.890177,546.259718 C582.321398,546.259718 546.257368,582.323748 546.257368,626.892527 C546.257368,671.461305 582.321398,707.525336 626.890177,707.525336 C671.458956,707.525336 707.522986,671.461305 707.522986,626.892527 Z"/>
    <path d="M626.889916,701.322605 C585.74984,701.322605 552.460099,668.032864 552.460099,626.892788 C552.460099,585.752711 585.74984,552.462101 626.889916,552.462101 C668.029992,552.462101 701.319733,585.752711 701.319733,626.892788 C701.319733,668.032864 668.029992,701.322605 626.889916,701.322605 Z"/>
    <path d="M695.117959,626.892527 C695.117959,589.181153 664.602508,558.664832 626.890264,558.664832 C589.17802,558.664832 558.662569,589.181153 558.662569,626.892527 C558.662569,664.604771 589.17802,695.120221 626.890264,695.120221 C664.602508,695.120221 695.117959,664.604771 695.117959,626.892527 Z"/>
    <path d="M626.889916,688.917577 C592.606374,688.917577 564.865214,661.175547 564.865214,626.892875 C564.865214,592.609333 592.606374,564.867302 626.889916,564.867302 C661.173458,564.867302 688.914618,592.609333 688.914618,626.892875 C688.914618,661.175547 661.173458,688.917577 626.889916,688.917577 Z"/>
    <path d="M682.712931,626.892527 C682.712931,596.036817 657.745191,571.069947 626.890351,571.069947 C596.034641,571.069947 571.067771,596.036817 571.067771,626.892527 C571.067771,657.747366 596.034641,682.715107 626.890351,682.715107 C657.745191,682.715107 682.712931,657.747366 682.712931,626.892527 Z"/>
    <path d="M626.889916,676.51255 C599.462908,676.51255 577.269458,654.319099 577.269458,626.892092 C577.269458,599.465954 599.462908,577.272504 626.889916,577.272504 C654.316924,577.272504 676.510374,599.465954 676.510374,626.892092 C676.510374,654.319099 654.316924,676.51255 626.889916,676.51255 Z"/>
    <path d="M670.307904,626.892527 C670.307904,602.894221 650.888744,583.475061 626.889568,583.475061 C602.891263,583.475061 583.472102,602.894221 583.472102,626.892527 C583.472102,650.890832 602.891263,670.310863 626.889568,670.310863 C650.888744,670.310863 670.307904,650.890832 670.307904,626.892527 Z"/>
    <path d="M626.889916,664.107522 C606.319443,664.107522 589.674573,647.462652 589.674573,626.892179 C589.674573,606.322576 606.319443,589.677705 626.889916,589.677705 C647.460389,589.677705 664.10526,606.322576 664.10526,626.892179 C664.10526,647.462652 647.460389,664.107522 626.889916,664.107522 Z"/>
    <path d="M657.902876,626.892527 C657.902876,609.750756 644.032296,595.880176 626.889655,595.880176 C609.748754,595.880176 595.877304,609.750756 595.877304,626.892527 C595.877304,644.034298 609.748754,657.905748 626.889655,657.905748 C644.032296,657.905748 657.902876,644.034298 657.902876,626.892527 Z"/>
    <path d="M626.889916,651.702495 C613.176847,651.702495 602.079687,640.606205 602.079687,626.892266 C602.079687,613.179197 613.176847,602.082037 626.889916,602.082037 C640.603855,602.082037 651.700145,613.179197 651.700145,626.892266 C651.700145,640.606205 640.603855,651.702495 626.889916,651.702495 Z"/>
    <path d="M645.497849,626.892527 C645.497849,616.60729 637.174979,608.28529 626.889742,608.28529 C616.604505,608.28529 608.282505,616.60729 608.282505,626.892527 C608.282505,637.176893 616.604505,645.500634 626.889742,645.500634 C637.174979,645.500634 645.497849,637.176893 645.497849,626.892527 Z"/>
    <path d="M626.889916,639.297467 C620.033382,639.297467 614.484802,633.748887 614.484802,626.892353 C614.484802,620.035818 620.033382,614.487238 626.889916,614.487238 C633.74645,614.487238 639.295031,620.035818 639.295031,626.892353 C639.295031,633.748887 633.74645,639.297467 626.889916,639.297467 Z"/>
    <path d="M633.092908,626.892527 C633.092908,623.464695 630.318618,620.690405 626.889916,620.690405 C623.462084,620.690405 620.687794,623.464695 620.687794,626.892527 C620.687794,630.320359 623.462084,633.095519 626.889916,633.095519 C630.318618,633.095519 633.092908,630.320359 633.092908,626.892527 Z"/>
  </g>
</svg>
