<svg width="23" height="22" viewBox="0 0 23 22">
  <defs>
    <path id="airdrop-a" d="M11.9567854,21.1062236 C11.6528343,21.1062236 11.4047496,20.8581389 11.4047496,20.5541878 C11.4047496,20.2492898 11.6528343,20.0012051 11.9567854,20.0012051 C12.2616834,20.0012051 12.5097681,20.2492898 12.5097681,20.5541878 C12.5097681,20.8581389 12.2616834,21.1062236 11.9567854,21.1062236 Z M5.89101969,3.27063786 L7.86149399,6.38779375 L3.89403252,6.38779375 L5.89101969,3.27063786 Z M20.538433,6.38779375 L16.5757059,6.38779375 L18.4069877,3.05853491 L20.538433,6.38779375 Z M15.6562775,8.28157011 L20.6388031,8.28157011 L13.2966322,16.2127055 L15.6562775,8.28157011 Z M8.25729325,8.28157011 L10.5648598,16.0384781 L3.74347729,8.28157011 L8.25729325,8.28157011 Z M14.6677262,8.28157011 L11.9567854,17.3934751 L9.24584451,8.28157011 L14.6677262,8.28157011 Z M13.4130994,2.89377636 L17.4165426,2.89377636 L15.7093032,5.99672893 L13.4130994,2.89377636 Z M8.90496477,6.26469829 L6.77351947,2.89377636 L11.113108,2.89377636 L8.90496477,6.26469829 Z M12.2417987,2.90135147 L14.8211221,6.38779375 L9.95695754,6.38779375 L12.2417987,2.90135147 Z M23.2853556,7.16613584 L19.6161639,1.43651545 C19.4419364,1.16475854 19.1417729,1 18.818884,1 L5.61452834,1 C5.29163947,1 4.99147592,1.16475854 4.81724849,1.43651545 L1.14995057,7.16045451 C0.921750515,7.51648446 0.956785377,7.98045967 1.23611739,8.29672032 L10.3830572,18.698287 C9.85374673,19.147112 9.51097321,19.8070931 9.51097321,20.5541878 C9.51097321,21.9025566 10.6084166,23 11.9567854,23 C13.306101,23 14.4035444,21.9025566 14.4035444,20.5541878 C14.4035444,19.8194026 14.0711867,19.1669966 13.5570264,18.7191185 L23.1821448,8.32039253 C23.4756801,8.00413188 23.5182901,7.5297409 23.2853556,7.16613584 Z"/>
  </defs>
  <g fill="none" fill-rule="evenodd" transform="translate(-1 -1)">
    <use fill="#dddddd" xlink:href="#airdrop-a"/>
  </g>
</svg>
