<svg width="20" height="23" viewBox="0 0 20 23">
  <path fill="#DDD" fill-rule="evenodd" d="M21,21.25 L20.229,21.25 C20.241,20.768 20.196,15.067 12.211,11.664 C5.457,8.785 6.306,3.404 6.345,3.176 C6.355,3.116 6.341,3.06 6.341,3 L17.659,3 C17.658,3.06 17.644,3.116 17.654,3.177 C17.683,3.339 18.3,7.193 14.48,10.123 C14.042,10.459 13.959,11.087 14.295,11.525 C14.492,11.782 14.789,11.917 15.09,11.917 C15.302,11.917 15.516,11.849 15.697,11.71 C20.082,8.348 19.77,3.931 19.648,3 L21,3 C21.553,3 22,2.553 22,2 C22,1.448 21.553,1 21,1 L3,1 C2.447,1 2,1.448 2,2 C2,2.553 2.447,3 3,3 L4.354,3 C4.228,4.09 3.865,10.281 11.426,13.503 C18.26,16.416 18.235,21.024 18.231,21.211 C18.23,21.225 18.237,21.236 18.237,21.25 L5.762,21.25 C5.762,21.236 5.769,21.225 5.768,21.211 C5.767,21.178 5.684,17.857 9.744,15.042 C10.197,14.727 10.311,14.104 9.995,13.65 C9.682,13.197 9.059,13.082 8.604,13.398 C3.803,16.728 3.761,20.839 3.769,21.25 L3,21.25 C2.447,21.25 2,21.697 2,22.25 C2,22.803 2.447,23.25 3,23.25 L21,23.25 C21.553,23.25 22,22.803 22,22.25 C22,21.697 21.553,21.25 21,21.25" transform="translate(-2 -1)"/>
</svg>
