<svg xmlns="http://www.w3.org/2000/svg" xmlns:xlink="http://www.w3.org/1999/xlink" width="23" height="23" viewBox="0 0 23 23">
  <defs>
    <path id="dashboard-a" d="M17.5996,18.8376 L19.3736,20.6116 C17.6776,22.0606 15.5456,23.0106 13.1976,23.2326 L13.1976,20.7136 C14.8536,20.5096 16.3676,19.8416 17.5996,18.8376 Z M13.1978,3.5251 L13.1978,1.0061 C18.8658,1.5421 23.3018,6.3111 23.3018,12.1191 C23.3018,14.8021 22.3538,17.2621 20.7778,19.1871 L18.9908,17.4001 C20.1218,15.9361 20.8018,14.1081 20.8018,12.1191 C20.8018,7.7011 17.4758,4.0511 13.1978,3.5251 Z M11.1978,20.7326 L11.1978,23.2386 C5.9318,22.7996 1.7108,18.7116 1.0638,13.5066 L3.5908,13.5066 C4.2088,17.3236 7.3198,20.3136 11.1978,20.7326 Z M3.5,11.507 L1,11.507 C1.303,5.939 5.673,1.461 11.198,1 L11.198,3.506 C7.06,3.953 3.794,7.326 3.5,11.507 Z"/>
  </defs>
  <g fill="none" fill-rule="evenodd" transform="translate(-1 -1)">
    <use fill="#dddddd" xlink:href="#dashboard-a"/>
  </g>
</svg>
