<svg xmlns="http://www.w3.org/2000/svg" xmlns:xlink="http://www.w3.org/1999/xlink" width="20" height="20" viewBox="0 0 20 20">
  <defs>
    <path id="settings-a" d="M10.2244937,13.6782979 C10.7065935,14.1370213 11.2727213,14.36 11.955979,14.36 C12.6426317,14.36 13.2113058,14.1344681 13.6951031,13.6714894 C14.1678665,13.2187234 14.3970336,12.6723404 14.3970336,12 C14.3970336,11.3276596 14.1678665,10.7804255 13.6951031,10.3276596 C13.2113058,9.86553191 12.6426317,9.64 11.955979,9.64 C11.2735701,9.64 10.7142325,9.86297872 10.2465617,10.3208511 C9.78313476,10.7744681 9.5590602,11.3234043 9.5590602,12 C9.5590602,12.6765957 9.77719339,13.226383 10.2244937,13.6782979 Z M11.955979,16.0621277 C10.8279673,16.0621277 9.84848984,15.6714894 9.04470723,14.9021277 L9.03112696,14.8885106 C8.25535367,14.1106383 7.86152566,13.1387234 7.86152566,12 C7.86152566,10.8570213 8.26469011,9.88255319 9.06083381,9.10382979 C9.85018737,8.33021277 10.8237234,7.93787234 11.955979,7.93787234 C13.0839907,7.93787234 14.0634681,8.32765957 14.8672507,9.09702128 C15.6820673,9.87659574 16.0945682,10.853617 16.0945682,12 C16.0945682,13.146383 15.6820673,14.1225532 14.8672507,14.9021277 C14.0634681,15.6714894 13.0839907,16.0621277 11.955979,16.0621277 Z M5.56561019,6.22212766 L5.54693731,6.25191489 C5.55457622,6.24255319 5.56051759,6.23234043 5.56561019,6.22212766 Z M18.9158706,6.38297872 L18.8683396,6.40255319 C18.8844662,6.39744681 18.9014415,6.3906383 18.9158706,6.38297872 Z M20.3927256,8.9012766 C20.3893306,8.90468085 20.3850867,8.90808511 20.3808429,8.9106383 L20.3927256,8.9012766 Z M3.57525094,15.0893617 L3.56251943,15.0978723 C3.56676327,15.0953191 3.57100711,15.0919149 3.57525094,15.0893617 Z M5.03852572,17.6 C5.02155037,17.6051064 5.00797009,17.6110638 4.99778489,17.6161702 L5.03852572,17.6 Z M18.4524437,17.747234 C18.4456535,17.7574468 18.4397121,17.7676596 18.4346195,17.7770213 L18.4524437,17.747234 Z M10.4596023,20.2978723 L13.5839146,20.2978723 L13.9531284,17.7523404 L14.428438,17.5787234 C14.5727285,17.5259574 14.9453373,17.3480851 15.8212651,16.7506383 L16.1896301,16.4987234 L18.6315336,17.4510638 L20.1805338,14.8808511 L18.0076896,13.3046809 L18.0934151,12.7846809 C18.1036003,12.7251064 18.126517,12.5293617 18.126517,12 C18.126517,11.8978723 18.1188781,11.7574468 18.1061466,11.5778723 C18.09002,11.3421277 18.0823811,11.1761702 18.0823811,11.0757447 L18.0823811,10.652766 L20.0973546,9.12510638 L18.5330765,6.53531915 L16.0945682,7.50808511 L15.7185643,7.23829787 C15.161773,6.84 14.6907071,6.56170213 14.3164007,6.41191489 L13.8521251,6.22638298 L13.5321398,3.70212766 L10.4163151,3.70212766 L10.0471014,6.24765957 L9.57094294,6.4212766 C9.42750127,6.47404255 9.05489244,6.65191489 8.17896462,7.2493617 L7.80975085,7.5012766 L5.36784742,6.54893617 L3.81630085,9.12170213 L5.87371271,10.6468085 L5.87371271,11.0757447 C5.87371271,11.1761702 5.8660738,11.3421277 5.85079599,11.5744681 C5.83721572,11.7574468 5.82957681,11.8978723 5.82957681,12 C5.82957681,12.1021277 5.83721572,12.2425532 5.84994723,12.4212766 C5.8660738,12.6578723 5.87371271,12.8238298 5.87371271,12.9234043 L5.87371271,13.347234 L3.85873921,14.8740426 L5.41622715,17.452766 L7.86492073,16.4944681 L8.23752956,16.7617021 C8.79347212,17.16 9.26538672,17.4374468 9.63969309,17.587234 L10.0937836,17.7702128 L10.4596023,20.2978723 Z M13.8860757,22 L10.1574411,22 C9.50558786,22 9.00566394,21.6187234 8.85203706,21.0042553 L8.83506172,20.9191489 L8.55072468,18.9582979 C8.26638765,18.812766 7.96252896,18.6314894 7.63235849,18.4110638 L5.68358884,19.1710638 C5.34917454,19.3429787 5.00712133,19.293617 4.79492951,19.2161702 C4.58358646,19.1404255 4.29840066,18.9651064 4.10063788,18.56 L2.23759372,15.4757447 C1.86328736,14.8042553 1.99654382,14.1285106 2.55927652,13.7259574 L4.15495899,12.5165957 C4.13968118,12.3004255 4.13204227,12.1268085 4.13204227,12 C4.13204227,11.8740426 4.13883241,11.7038298 4.15495899,11.4893617 L2.40819594,10.1829787 C1.9710808,9.74638298 1.87941394,9.14893617 2.1603559,8.58468085 L4.08026747,5.40085106 C4.35526806,4.84170213 4.99099475,4.58553191 5.62926774,4.82468085 L7.59755904,5.59234043 C7.95234376,5.35914894 8.2519586,5.1787234 8.50658878,5.04340426 L8.80790116,2.99574468 C8.96237681,2.3812766 9.46230073,2 10.1133052,2 L13.8427886,2 C14.4937931,2 14.993717,2.3812766 15.1481927,2.99574468 L15.1668656,3.09531915 L15.4138568,5.04595745 C15.69395,5.18978723 15.9952624,5.3693617 16.321189,5.58723404 L18.2241253,4.8306383 C18.8004382,4.53787234 19.4803008,4.76680851 19.8486658,5.42808511 L21.7185001,8.52425532 C22.0919577,9.19489362 21.95955,9.87148936 21.3968173,10.2740426 L19.8011349,11.4834043 C19.8164127,11.6995745 19.8240516,11.8723404 19.8240516,12 C19.8240516,12.1948936 19.8215053,12.3659574 19.8155639,12.5148936 L21.5920338,13.8170213 C22.0283002,14.253617 22.1208158,14.8510638 21.8398738,15.4153191 L19.9199623,18.5982979 C19.6441129,19.1574468 19.0066887,19.4119149 18.370962,19.1753191 L16.4018219,18.4076596 C16.0470372,18.6408511 15.7482711,18.8212766 15.493641,18.9557447 L15.1923286,21.0042553 C15.0378529,21.6187234 14.537929,22 13.8860757,22 Z"/>
  </defs>
  <g fill="none" fill-rule="evenodd" transform="translate(-2 -2)">
    <use fill="#dddddd" xlink:href="#settings-a"/>
  </g>
</svg>
