<svg xmlns="http://www.w3.org/2000/svg" xmlns:xlink="http://www.w3.org/1999/xlink" width="23" height="19" viewBox="0 0 23 19">
  <defs>
    <path id="vote-a" d="M11.267,8.88735011 L10.636,11.3553501 L10.308,11.0553501 C10.065,10.8333501 9.687,10.8503501 9.465,11.0943501 C9.243,11.3373501 9.26,11.7153501 9.503,11.9363501 L10.567,12.9063501 C10.678,13.0083501 10.822,13.0623501 10.968,13.0623501 C11.026,13.0623501 11.083,13.0543501 11.139,13.0373501 C11.34,12.9773501 11.495,12.8163501 11.546,12.6133501 L12.423,9.18235011 C12.504,8.86335011 12.312,8.53835011 11.993,8.45635011 C11.672,8.37435011 11.348,8.56835011 11.267,8.88735011 Z M6.105,14.2873501 C6.235,14.7203501 6.632,15.0003501 7.063,15.0003501 C7.158,15.0003501 7.254,14.9863501 7.35,14.9583501 C7.879,14.7993501 8.179,14.2413501 8.021,13.7123501 L6.234,7.75935011 L13.405,5.28535011 L16.105,14.2873501 C16.263,14.8163501 16.819,15.1143501 17.35,14.9583501 C17.879,14.7993501 18.179,14.2413501 18.021,13.7133501 L15.021,3.71335011 C14.943,3.45135011 14.761,3.23435011 14.519,3.11035011 C14.276,2.98535011 13.995,2.96635011 13.737,3.05435011 L4.674,6.18135011 C4.167,6.35635011 3.888,6.90035011 4.042,7.41435011 L6.105,14.2873501 Z M22.063,19.3753501 L13.875,19.3753501 C13.323,19.3753501 12.875,19.8233501 12.875,20.3753501 C12.875,20.9273501 13.323,21.3753501 13.875,21.3753501 L22.063,21.3753501 C22.616,21.3753501 23.063,20.9273501 23.063,20.3753501 C23.063,19.8233501 22.616,19.3753501 22.063,19.3753501 Z M23.063,17.0003501 C23.063,16.4483501 22.616,16.0003501 22.063,16.0003501 L2,16.0003501 C1.448,16.0003501 1,16.4483501 1,17.0003501 C1,17.5523501 1.448,18.0003501 2,18.0003501 L22.063,18.0003501 C22.616,18.0003501 23.063,17.5523501 23.063,17.0003501 Z"/>
  </defs>
  <g fill="none" fill-rule="evenodd" transform="translate(-1 -3)">
    <use fill="#dddddd" xlink:href="#vote-a"/>
  </g>
</svg>
