<svg xmlns="http://www.w3.org/2000/svg" xmlns:xlink="http://www.w3.org/1999/xlink" width="22" height="17" viewBox="0 0 22 17">
  <defs>
    <path id="wallet-a" d="M17.069,13.533 C17.557,13.533 17.953,13.929 17.953,14.417 C17.953,14.905 17.557,15.301 17.069,15.301 C16.581,15.301 16.185,14.905 16.185,14.417 C16.185,13.929 16.581,13.533 17.069,13.533 Z M17.069,16.301 C18.108,16.301 18.953,15.456 18.953,14.417 C18.953,13.378 18.108,12.533 17.069,12.533 C16.031,12.533 15.185,13.378 15.185,14.417 C15.185,15.456 16.031,16.301 17.069,16.301 Z M3,18.75 L20.333,18.75 L20.333,10.083 L3,10.083 L3,18.75 Z M3,8.083 L17.123,8.083 L17.123,6 L3,6 L3,8.083 Z M20.787,8.084 L19.123,8.084 L19.123,5 C19.123,4.448 18.675,4 18.123,4 L2,4 C1.447,4 1,4.448 1,5 L1,9.084 C1,9.156 1.026,9.219 1.041,9.287 C1.015,9.397 1,9.512 1,9.63 L1,19.205 C1,20.058 1.692,20.75 2.546,20.75 L20.787,20.75 C21.641,20.75 22.333,20.058 22.333,19.205 L22.333,9.63 C22.333,8.776 21.641,8.084 20.787,8.084 Z"/>
  </defs>
  <g fill="none" fill-rule="evenodd" transform="translate(-1 -4)">
    <use fill="#dddddd" xlink:href="#wallet-a"/>
  </g>
</svg>
