<?xml version="1.0" encoding="utf-8"?>
<!-- Generator: Adobe Illustrator 22.0.1, SVG Export Plug-In . SVG Version: 6.00 Build 0)  -->
<svg version="1.1" id="Layer_1" xmlns="http://www.w3.org/2000/svg" xmlns:xlink="http://www.w3.org/1999/xlink" x="0px" y="0px"
	 viewBox="0 0 285.7 328.5" style="enable-background:new 0 0 285.7 328.5;" xml:space="preserve">
<style type="text/css">
	.st0{display:none;}
	.st1{display:inline;}
	.st2{fill:#FFFFFF;}
</style>
<g id="Layer_1_1_" class="st0">
	<g class="st1">
		<path d="M142.9,275.2l-63.4-36.6v-73.2l0.3-0.2l63.1-36.4l63.4,36.6v73.2l-0.3,0.2L142.9,275.2z M80.7,237.9l62.2,35.9l62.2-35.9
			v-71.8l-62.2-35.9l-62.2,35.9V237.9z"/>
	</g>
	<g class="st1">
		<path d="M270.3,276.1H15.5c-0.2,0-0.4-0.1-0.5-0.3c-0.1-0.2-0.1-0.4,0-0.6L142.4,54.6c0.2-0.4,0.8-0.4,1,0l127.4,220.6
			c0.1,0.2,0.1,0.4,0,0.6C270.7,276,270.5,276.1,270.3,276.1z M16.6,274.9h252.7L142.9,56.1L16.6,274.9z"/>
	</g>
	<g class="st1">
		<path d="M142.9,351.3L14.5,128.9h256.9L142.9,351.3z M16.6,130.1l126.3,218.8l126.3-218.8L16.6,130.1L16.6,130.1z"/>
	</g>
	<g class="st1">
		<path d="M267.9,274.9l-2.1-1.2l0.6-1l2.1,1.2L267.9,274.9z M263.7,272.4l-2.1-1.2l0.6-1l2.1,1.2L263.7,272.4z M259.6,270l-2.1-1.2
			l0.6-1l2.1,1.2L259.6,270z M255.4,267.6l-2.1-1.2l0.6-1l2.1,1.2L255.4,267.6z M251.2,265.2l-2.1-1.2l0.6-1l2.1,1.2L251.2,265.2z
			 M247,262.8l-2.1-1.2l0.6-1l2.1,1.2L247,262.8z M242.9,260.4l-2.1-1.2l0.6-1l2.1,1.2L242.9,260.4z M238.7,258l-2.1-1.2l0.6-1
			l2.1,1.2L238.7,258z M234.5,255.6l-2.1-1.2l0.6-1l2.1,1.2L234.5,255.6z M230.3,253.2l-2.1-1.2l0.6-1l2.1,1.2L230.3,253.2z
			 M226.2,250.7l-2.1-1.2l0.6-1l2.1,1.2L226.2,250.7z M222,248.3l-2.1-1.2l0.6-1l2.1,1.2L222,248.3z M217.8,245.9l-2.1-1.2l0.6-1
			l2.1,1.2L217.8,245.9z M213.6,243.5l-2.1-1.2l0.6-1l2.1,1.2L213.6,243.5z M209.4,241.1l-2.1-1.2l0.6-1l2.1,1.2L209.4,241.1z
			 M205.3,238.7l-2.1-1.2l0.6-1l2.1,1.2L205.3,238.7z M201.1,236.3l-2.1-1.2l0.6-1l2.1,1.2L201.1,236.3z M196.9,233.9l-2.1-1.2
			l0.6-1l2.1,1.2L196.9,233.9z M192.7,231.4l-2.1-1.2l0.6-1l2.1,1.2L192.7,231.4z M188.6,229l-2.1-1.2l0.6-1l2.1,1.2L188.6,229z
			 M184.4,226.6l-2.1-1.2l0.6-1l2.1,1.2L184.4,226.6z M180.2,224.2l-2.1-1.2l0.6-1l2.1,1.2L180.2,224.2z M176,221.8l-2.1-1.2l0.6-1
			l2.1,1.2L176,221.8z M171.9,219.4l-2.1-1.2l0.6-1l2.1,1.2L171.9,219.4z M167.7,217l-2.1-1.2l0.6-1l2.1,1.2L167.7,217z
			 M163.5,214.6l-2.1-1.2l0.6-1l2.1,1.2L163.5,214.6z M159.3,212.2l-2.1-1.2l0.6-1l2.1,1.2L159.3,212.2z M155.1,209.7l-2.1-1.2
			l0.6-1l2.1,1.2L155.1,209.7z M151,207.3l-2.1-1.2l0.6-1l2.1,1.2L151,207.3z M146.8,204.9l-2.1-1.2l0.6-1l2.1,1.2L146.8,204.9z
			 M142.6,202.5l-0.3-0.2v-0.4v-2.4h1.2v2.4h-0.6L142.6,202.5z M143.5,197.2h-1.2v-2.4h1.2V197.2z M143.5,192.3h-1.2v-2.4h1.2V192.3
			z M143.5,187.5h-1.2v-2.4h1.2V187.5z M143.5,182.7h-1.2v-2.4h1.2V182.7z M143.5,177.9h-1.2v-2.4h1.2V177.9z M143.5,173.1h-1.2
			v-2.4h1.2V173.1z M143.5,168.2h-1.2v-2.4h1.2V168.2z M143.5,163.4h-1.2V161h1.2V163.4z M143.5,158.6h-1.2v-2.4h1.2V158.6z
			 M143.5,153.8h-1.2v-2.4h1.2V153.8z M143.5,148.9h-1.2v-2.4h1.2V148.9z M143.5,144.1h-1.2v-2.4h1.2V144.1z M143.5,139.3h-1.2v-2.4
			h1.2V139.3z M143.5,134.5h-1.2v-2.4h1.2V134.5z M143.5,129.6h-1.2v-2.4h1.2V129.6z M143.5,124.8h-1.2v-2.4h1.2V124.8z M143.5,120
			h-1.2v-2.4h1.2V120z M143.5,115.2h-1.2v-2.4h1.2V115.2z M143.5,110.4h-1.2V108h1.2V110.4z M143.5,105.5h-1.2v-2.4h1.2V105.5z
			 M143.5,100.7h-1.2v-2.4h1.2V100.7z M143.5,95.9h-1.2v-2.4h1.2V95.9z M143.5,91.1h-1.2v-2.4h1.2V91.1z M143.5,86.2h-1.2v-2.4h1.2
			V86.2z M143.5,81.4h-1.2V79h1.2V81.4z M143.5,76.6h-1.2v-2.4h1.2V76.6z M143.5,71.8h-1.2v-2.4h1.2V71.8z M143.5,66.9h-1.2v-2.4
			h1.2V66.9z M143.5,62.1h-1.2v-2.4h1.2V62.1z M143.5,57.3h-1.2v-2.4h1.2V57.3z"/>
	</g>
	<g class="st1">
		<path d="M142.9,202.7l-1.9-1.1l0.6-1l1.3,0.8l0.2-0.1l0.6,1L142.9,202.7z M145.8,201l-0.6-1l2.1-1.2l0.6,1L145.8,201z
			 M138.9,200.4l-2.1-1.2l0.6-1l2.1,1.2L138.9,200.4z M150,198.7l-0.6-1l2.1-1.2l0.6,1L150,198.7z M134.7,198l-2.1-1.2l0.6-1
			l2.1,1.2L134.7,198z M154.1,196.3l-0.6-1l2.1-1.2l0.6,1L154.1,196.3z M130.5,195.6l-2.1-1.2l0.6-1l2.1,1.2L130.5,195.6z
			 M158.3,193.9l-0.6-1l2.1-1.2l0.6,1L158.3,193.9z M126.3,193.2l-2.1-1.2l0.6-1l2.1,1.2L126.3,193.2z M162.5,191.5l-0.6-1l2.1-1.2
			l0.6,1L162.5,191.5z M122.1,190.8l-2.1-1.2l0.6-1l2.1,1.2L122.1,190.8z M166.7,189.1l-0.6-1l2.1-1.2l0.6,1L166.7,189.1z
			 M117.9,188.5l-2.1-1.2l0.6-1l2.1,1.2L117.9,188.5z M170.9,186.7l-0.6-1l2.1-1.2l0.6,1L170.9,186.7z M113.7,186.1l-2.1-1.2l0.6-1
			l2.1,1.2L113.7,186.1z M175.1,184.3l-0.6-1l2.1-1.2l0.6,1L175.1,184.3z M109.5,183.7l-2.1-1.2l0.6-1l2.1,1.2L109.5,183.7z
			 M179.3,182l-0.6-1l2.1-1.2l0.6,1L179.3,182z M105.3,181.3l-2.1-1.2l0.6-1l2.1,1.2L105.3,181.3z M183.5,179.6l-0.6-1l2.1-1.2
			l0.6,1L183.5,179.6z M101.2,178.9l-2.1-1.2l0.6-1l2.1,1.2L101.2,178.9z M187.7,177.2l-0.6-1l2.1-1.2l0.6,1L187.7,177.2z M97,176.5
			l-2.1-1.2l0.6-1l2.1,1.2L97,176.5z M191.9,174.8l-0.6-1l2.1-1.2l0.6,1L191.9,174.8z M92.8,174.1l-2.1-1.2l0.6-1l2.1,1.2
			L92.8,174.1z M196.1,172.4l-0.6-1l2.1-1.2l0.6,1L196.1,172.4z M88.6,171.8l-2.1-1.2l0.6-1l2.1,1.2L88.6,171.8z M200.3,170l-0.6-1
			l2.1-1.2l0.6,1L200.3,170z M84.4,169.4l-2.1-1.2l0.6-1l2.1,1.2L84.4,169.4z M204.4,167.6l-0.6-1l2.1-1.2l0.6,1L204.4,167.6z
			 M80.2,167l-2.1-1.2l0.6-1l2.1,1.2L80.2,167z M208.6,165.3l-0.6-1l2.1-1.2l0.6,1L208.6,165.3z M76,164.6l-2.1-1.2l0.6-1l2.1,1.2
			L76,164.6z M212.8,162.9l-0.6-1l2.1-1.2l0.6,1L212.8,162.9z M71.8,162.2l-2.1-1.2l0.6-1l2.1,1.2L71.8,162.2z M217,160.5l-0.6-1
			l2.1-1.2l0.6,1L217,160.5z M67.6,159.8l-2.1-1.2l0.6-1l2.1,1.2L67.6,159.8z M221.2,158.1l-0.6-1l2.1-1.2l0.6,1L221.2,158.1z
			 M63.4,157.4l-2.1-1.2l0.6-1l2.1,1.2L63.4,157.4z M225.4,155.7l-0.6-1l2.1-1.2l0.6,1L225.4,155.7z M59.2,155.1l-2.1-1.2l0.6-1
			l2.1,1.2L59.2,155.1z M229.6,153.3l-0.6-1l2.1-1.2l0.6,1L229.6,153.3z M55,152.7l-2.1-1.2l0.6-1l2.1,1.2L55,152.7z M233.8,150.9
			l-0.6-1l2.1-1.2l0.6,1L233.8,150.9z M50.9,150.3l-2.1-1.2l0.6-1l2.1,1.2L50.9,150.3z M238,148.6l-0.6-1l2.1-1.2l0.6,1L238,148.6z
			 M46.7,147.9l-2.1-1.2l0.6-1l2.1,1.2L46.7,147.9z M242.2,146.2l-0.6-1l2.1-1.2l0.6,1L242.2,146.2z M42.5,145.5l-2.1-1.2l0.6-1
			l2.1,1.2L42.5,145.5z M246.4,143.8l-0.6-1l2.1-1.2l0.6,1L246.4,143.8z M38.3,143.1l-2.1-1.2l0.6-1l2.1,1.2L38.3,143.1z
			 M250.6,141.4l-0.6-1l2.1-1.2l0.6,1L250.6,141.4z M34.1,140.7l-2.1-1.2l0.6-1l2.1,1.2L34.1,140.7z M254.7,139l-0.6-1l2.1-1.2
			l0.6,1L254.7,139z M29.9,138.4l-2.1-1.2l0.6-1l2.1,1.2L29.9,138.4z M258.9,136.6l-0.6-1l2.1-1.2l0.6,1L258.9,136.6z M25.7,136
			l-2.1-1.2l0.6-1l2.1,1.2L25.7,136z M263.1,134.2l-0.6-1l2.1-1.2l0.6,1L263.1,134.2z M21.5,133.6l-2.1-1.2l0.6-1l2.1,1.2
			L21.5,133.6z M267.3,131.9l-0.6-1l2.1-1.2l0.6,1L267.3,131.9z M17.3,131.2l-2.1-1.2l0.6-1l2.1,1.2L17.3,131.2z"/>
	</g>
	<g class="st1">
		<path d="M143.5,350.1h-1.2v-1h1.2V350.1z M143.5,346.7h-1.2v-2.4h1.2V346.7z M143.5,341.9h-1.2v-2.4h1.2V341.9z M143.5,337h-1.2
			v-2.4h1.2V337z M143.5,332.2h-1.2v-2.4h1.2V332.2z M143.5,327.4h-1.2V325h1.2V327.4z M143.5,322.6h-1.2v-2.4h1.2V322.6z
			 M143.5,317.7h-1.2v-2.4h1.2V317.7z M143.5,312.9h-1.2v-2.4h1.2V312.9z M143.5,308.1h-1.2v-2.4h1.2V308.1z M143.5,303.3h-1.2v-2.4
			h1.2V303.3z M143.5,298.5h-1.2v-2.4h1.2V298.5z M143.5,293.6h-1.2v-2.4h1.2V293.6z M143.5,288.8h-1.2v-2.4h1.2V288.8z M143.5,284
			h-1.2v-2.4h1.2V284z M143.5,279.2h-1.2v-2.4h1.2V279.2z M15.8,276l-0.6-1l2.1-1.2l0.6,1L15.8,276z M143.5,274.3h-1.2v-2.4h1.2
			V274.3z M20,273.6l-0.6-1l2.1-1.2l0.6,1L20,273.6z M24.2,271.2l-0.6-1l2.1-1.2l0.6,1L24.2,271.2z M143.5,269.5h-1.2v-2.4h1.2
			V269.5z M28.4,268.8l-0.6-1l2.1-1.2l0.6,1L28.4,268.8z M32.5,266.4l-0.6-1l2.1-1.2l0.6,1L32.5,266.4z M143.5,264.7h-1.2v-2.4h1.2
			V264.7z M36.7,264l-0.6-1l2.1-1.2l0.6,1L36.7,264z M40.9,261.6l-0.6-1l2.1-1.2l0.6,1L40.9,261.6z M143.5,259.9h-1.2v-2.4h1.2
			V259.9z M45.1,259.2l-0.6-1l2.1-1.2l0.6,1L45.1,259.2z M49.2,256.7l-0.6-1l2.1-1.2l0.6,1L49.2,256.7z M143.5,255h-1.2v-2.4h1.2
			V255z M53.4,254.3l-0.6-1l2.1-1.2l0.6,1L53.4,254.3z M57.6,251.9l-0.6-1l2.1-1.2l0.6,1L57.6,251.9z M143.5,250.2h-1.2v-2.4h1.2
			V250.2z M61.8,249.5l-0.6-1l2.1-1.2l0.6,1L61.8,249.5z M65.9,247.1l-0.6-1l2.1-1.2l0.6,1L65.9,247.1z M143.5,245.4h-1.2V243h1.2
			V245.4z M70.1,244.7l-0.6-1l2.1-1.2l0.6,1L70.1,244.7z M74.3,242.3l-0.6-1l2.1-1.2l0.6,1L74.3,242.3z M143.5,240.6h-1.2v-2.4h1.2
			V240.6z M78.5,239.9l-0.6-1l2.1-1.2l0.6,1L78.5,239.9z M82.7,237.5l-0.6-1l2.1-1.2l0.6,1L82.7,237.5z M143.5,235.8h-1.2v-2.4h1.2
			V235.8z M86.8,235l-0.6-1l2.1-1.2l0.6,1L86.8,235z M91,232.6l-0.6-1l2.1-1.2l0.6,1L91,232.6z M143.5,230.9h-1.2v-2.4h1.2V230.9z
			 M95.2,230.2l-0.6-1l2.1-1.2l0.6,1L95.2,230.2z M99.4,227.8l-0.6-1l2.1-1.2l0.6,1L99.4,227.8z M143.5,226.1h-1.2v-2.4h1.2V226.1z
			 M103.5,225.4l-0.6-1l2.1-1.2l0.6,1L103.5,225.4z M107.7,223l-0.6-1l2.1-1.2l0.6,1L107.7,223z M143.5,221.3h-1.2v-2.4h1.2V221.3z
			 M111.9,220.6l-0.6-1l2.1-1.2l0.6,1L111.9,220.6z M116.1,218.2l-0.6-1l2.1-1.2l0.6,1L116.1,218.2z M143.5,216.5h-1.2v-2.4h1.2
			V216.5z M120.2,215.8l-0.6-1l2.1-1.2l0.6,1L120.2,215.8z M124.4,213.3l-0.6-1l2.1-1.2l0.6,1L124.4,213.3z M143.5,211.6h-1.2v-2.4
			h1.2V211.6z M128.6,210.9l-0.6-1l2.1-1.2l0.6,1L128.6,210.9z M132.8,208.5l-0.6-1l2.1-1.2l0.6,1L132.8,208.5z M143.5,206.8h-1.2
			v-2.4h1.2V206.8z M137,206.1l-0.6-1l2.1-1.2l0.6,1L137,206.1z M141.1,203.7l-0.6-1l3-1.7v1h-0.6l0.3,0.5L141.1,203.7z"/>
	</g>
	<g class="st1">
		<path d="M142.9,350.8l-2-1.2l0.6-1l1.4,0.8l0.1-0.1l0.1,0.2l0.1,0.1v0.1l0.4,0.7L142.9,350.8z M145.7,349.2l-0.6-1l2.1-1.2l0.6,1
			L145.7,349.2z M138.8,348.4l-2.1-1.2l0.6-1l2.1,1.2L138.8,348.4z M149.8,346.7l-0.6-1l2.1-1.2l0.6,1L149.8,346.7z M134.7,346
			l-2.1-1.2l0.6-1l2.1,1.2L134.7,346z M154,344.3l-0.6-1l2.1-1.2l0.6,1L154,344.3z M130.5,343.5l-2.1-1.2l0.6-1l2.1,1.2L130.5,343.5
			z M158.2,341.9l-0.6-1l2.1-1.2l0.6,1L158.2,341.9z M126.3,341.1l-2.1-1.2l0.6-1l2.1,1.2L126.3,341.1z M162.3,339.4l-0.6-1l2.1-1.2
			l0.6,1L162.3,339.4z M122.2,338.7l-2.1-1.2l0.6-1l2.1,1.2L122.2,338.7z M166.5,337l-0.6-1l2.1-1.2l0.6,1L166.5,337z M118,336.2
			l-2.1-1.2l0.6-1l2.1,1.2L118,336.2z M170.7,334.6l-0.6-1l2.1-1.2l0.6,1L170.7,334.6z M113.9,333.8l-2.1-1.2l0.6-1l2.1,1.2
			L113.9,333.8z M174.8,332.1l-0.6-1l2.1-1.2l0.6,1L174.8,332.1z M109.7,331.4l-2.1-1.2l0.6-1l2.1,1.2L109.7,331.4z M179,329.7
			l-0.6-1l2.1-1.2l0.6,1L179,329.7z M105.5,328.9l-2.1-1.2l0.6-1l2.1,1.2L105.5,328.9z M183.1,327.2l-0.6-1l2.1-1.2l0.6,1
			L183.1,327.2z M101.4,326.5l-2.1-1.2l0.6-1l2.1,1.2L101.4,326.5z M187.3,324.8l-0.6-1l2.1-1.2l0.6,1L187.3,324.8z M97.2,324.1
			l-2.1-1.2l0.6-1l2.1,1.2L97.2,324.1z M191.5,322.4l-0.6-1l2.1-1.2l0.6,1L191.5,322.4z M93,321.6l-2.1-1.2l0.6-1l2.1,1.2L93,321.6z
			 M195.6,319.9l-0.6-1l2.1-1.2l0.6,1L195.6,319.9z M88.9,319.2l-2.1-1.2l0.6-1l2.1,1.2L88.9,319.2z M199.8,317.5l-0.6-1l2.1-1.2
			l0.6,1L199.8,317.5z M84.7,316.7l-2.1-1.2l0.6-1l2.1,1.2L84.7,316.7z M203.9,315.1l-0.6-1l2.1-1.2l0.6,1L203.9,315.1z M80.6,314.3
			l-2.1-1.2l0.6-1l2.1,1.2L80.6,314.3z M208.1,312.6l-0.6-1l2.1-1.2l0.6,1L208.1,312.6z M76.4,311.9l-2.1-1.2l0.6-1l2.1,1.2
			L76.4,311.9z M212.3,310.2l-0.6-1l2.1-1.2l0.6,1L212.3,310.2z M72.2,309.4l-2.1-1.2l0.6-1l2.1,1.2L72.2,309.4z M216.4,307.7
			l-0.6-1l2.1-1.2l0.6,1L216.4,307.7z M68.1,307l-2.1-1.2l0.6-1l2.1,1.2L68.1,307z M220.6,305.3l-0.6-1l2.1-1.2l0.6,1L220.6,305.3z
			 M63.9,304.6l-2.1-1.2l0.6-1l2.1,1.2L63.9,304.6z M224.8,302.9l-0.6-1l2.1-1.2l0.6,1L224.8,302.9z M59.7,302.1l-2.1-1.2l0.6-1
			l2.1,1.2L59.7,302.1z M228.9,300.4l-0.6-1l2.1-1.2l0.6,1L228.9,300.4z M55.6,299.7l-2.1-1.2l0.6-1l2.1,1.2L55.6,299.7z M233.1,298
			l-0.6-1l2.1-1.2l0.6,1L233.1,298z M51.4,297.2l-2.1-1.2l0.6-1l2.1,1.2L51.4,297.2z M237.2,295.6l-0.6-1l2.1-1.2l0.6,1L237.2,295.6
			z M47.3,294.8l-2.1-1.2l0.6-1l2.1,1.2L47.3,294.8z M241.4,293.1l-0.6-1l2.1-1.2l0.6,1L241.4,293.1z M43.1,292.4l-2.1-1.2l0.6-1
			l2.1,1.2L43.1,292.4z M245.6,290.7l-0.6-1l2.1-1.2l0.6,1L245.6,290.7z M38.9,289.9l-2.1-1.2l0.6-1l2.1,1.2L38.9,289.9z
			 M249.7,288.3l-0.6-1l2.1-1.2l0.6,1L249.7,288.3z M34.8,287.5l-2.1-1.2l0.6-1l2.1,1.2L34.8,287.5z M253.9,285.8l-0.6-1l2.1-1.2
			l0.6,1L253.9,285.8z M30.6,285.1l-2.1-1.2l0.6-1l2.1,1.2L30.6,285.1z M258.1,283.4l-0.6-1l2.1-1.2l0.6,1L258.1,283.4z M26.5,282.6
			l-2.1-1.2l0.6-1l2.1,1.2L26.5,282.6z M262.2,280.9l-0.6-1l2.1-1.2l0.6,1L262.2,280.9z M22.3,280.2l-2.1-1.2l0.6-1l2.1,1.2
			L22.3,280.2z M266.4,278.5l-0.6-1l2.1-1.2l0.6,1L266.4,278.5z M18.1,277.7l-2.1-1.2l0.6-1l2.1,1.2L18.1,277.7z M270.6,276
			l-0.3-0.5h-0.6v-2.4h1.2v2.7L270.6,276z M16.1,274.1h-1.2v-2.4h1.2V274.1z M270.9,270.7h-1.2v-2.4h1.2V270.7z M16.1,269.3h-1.2
			v-2.4h1.2V269.3z M270.9,265.9h-1.2v-2.4h1.2V265.9z M16.1,264.4h-1.2V262h1.2V264.4z M270.9,261.1h-1.2v-2.4h1.2V261.1z
			 M16.1,259.6h-1.2v-2.4h1.2V259.6z M270.9,256.3h-1.2v-2.4h1.2V256.3z M16.1,254.8h-1.2v-2.4h1.2V254.8z M270.9,251.5h-1.2v-2.4
			h1.2V251.5z M16.1,250h-1.2v-2.5h1.2V250z M270.9,246.6h-1.2v-2.4h1.2V246.6z M16.1,245.1h-1.2v-2.4h1.2V245.1z M270.9,241.8h-1.2
			v-2.4h1.2V241.8z M16.1,240.3h-1.2v-2.4h1.2V240.3z M270.9,237h-1.2v-2.4h1.2V237z M16.1,235.5h-1.2v-2.4h1.2V235.5z M270.9,232.2
			h-1.2v-2.4h1.2V232.2z M16.1,230.7h-1.2v-2.4h1.2V230.7z M270.9,227.3h-1.2v-2.4h1.2V227.3z M16.1,225.8h-1.2v-2.4h1.2V225.8z
			 M270.9,222.5h-1.2v-2.4h1.2V222.5z M16.1,221h-1.2v-2.4h1.2V221z M270.9,217.7h-1.2v-2.4h1.2V217.7z M16.1,216.2h-1.2v-2.4h1.2
			V216.2z M270.9,212.9h-1.2v-2.4h1.2V212.9z M16.1,211.4h-1.2V209h1.2V211.4z M270.9,208h-1.2v-2.4h1.2V208z M16.1,206.5h-1.2v-2.4
			h1.2V206.5z M270.9,203.2h-1.2v-2.4h1.2V203.2z M16.1,201.7h-1.2v-2.4h1.2V201.7z M270.9,198.4h-1.2V196h1.2V198.4z M16.1,196.9
			h-1.2v-2.4h1.2V196.9z M270.9,193.6h-1.2v-2.4h1.2V193.6z M16.1,192.1h-1.2v-2.4h1.2V192.1z M270.9,188.8h-1.2v-2.4h1.2V188.8z
			 M16.1,187.3h-1.2v-2.4h1.2V187.3z M270.9,183.9h-1.2v-2.4h1.2V183.9z M16.1,182.4h-1.2V180h1.2V182.4z M270.9,179.1h-1.2v-2.4
			h1.2V179.1z M16.1,177.6h-1.2v-2.4h1.2V177.6z M270.9,174.3h-1.2v-2.4h1.2V174.3z M16.1,172.8h-1.2v-2.4h1.2V172.8z M270.9,169.5
			h-1.2v-2.4h1.2V169.5z M16.1,168h-1.2v-2.4h1.2V168z M270.9,164.6h-1.2v-2.4h1.2V164.6z M16.1,163.1h-1.2v-2.4h1.2V163.1z
			 M270.9,159.8h-1.2v-2.4h1.2V159.8z M16.1,158.3h-1.2v-2.4h1.2V158.3z M270.9,155h-1.2v-2.4h1.2V155z M16.1,153.5h-1.2v-2.4h1.2
			V153.5z M270.9,150.2h-1.2v-2.4h1.2V150.2z M16.1,148.7h-1.2v-2.4h1.2V148.7z M270.9,145.3h-1.2v-2.4h1.2V145.3z M16.1,143.9h-1.2
			v-2.4h1.2V143.9z M270.9,140.5h-1.2v-2.4h1.2V140.5z M16.1,139h-1.2v-2.4h1.2V139z M270.9,135.7h-1.2v-2.4h1.2V135.7z M16.1,134.2
			h-1.2v-2.4h1.2V134.2z M270.9,130.9h-1.2v-1.1l-0.6-0.3l0.6-1l1.2,0.7V130.9z M15.8,130l-0.6-1l2.1-1.2l0.6,1L15.8,130z
			 M267,128.3l-2.1-1.2l0.6-1l2.1,1.2L267,128.3z M20,127.6l-0.6-1l2.1-1.2l0.6,1L20,127.6z M262.9,125.8l-2.1-1.2l0.6-1l2.1,1.2
			L262.9,125.8z M24.1,125.1l-0.6-1l2.1-1.2l0.6,1L24.1,125.1z M258.7,123.4l-2.1-1.2l0.6-1l2.1,1.2L258.7,123.4z M28.3,122.7
			l-0.6-1l2.1-1.2l0.6,1L28.3,122.7z M254.5,121l-2.1-1.2l0.6-1l2.1,1.2L254.5,121z M32.5,120.3l-0.6-1l2.1-1.2l0.6,1L32.5,120.3z
			 M250.4,118.5l-2.1-1.2l0.6-1l2.1,1.2L250.4,118.5z M36.6,117.8l-0.6-1l2.1-1.2l0.6,1L36.6,117.8z M246.2,116.1l-2.1-1.2l0.6-1
			l2.1,1.2L246.2,116.1z M40.8,115.4l-0.6-1l2.1-1.2l0.6,1L40.8,115.4z M242,113.6l-2.1-1.2l0.6-1l2.1,1.2L242,113.6z M45,112.9
			l-0.6-1l2.1-1.2l0.6,1L45,112.9z M237.9,111.2l-2.1-1.2l0.6-1l2.1,1.2L237.9,111.2z M49.1,110.5l-0.6-1l2.1-1.2l0.6,1L49.1,110.5z
			 M233.7,108.8l-2.1-1.2l0.6-1l2.1,1.2L233.7,108.8z M53.3,108.1l-0.6-1l2.1-1.2l0.6,1L53.3,108.1z M229.6,106.3l-2.1-1.2l0.6-1
			l2.1,1.2L229.6,106.3z M57.4,105.6l-0.6-1l2.1-1.2l0.6,1L57.4,105.6z M225.4,103.9l-2.1-1.2l0.6-1l2.1,1.2L225.4,103.9z
			 M61.6,103.2l-0.6-1l2.1-1.2l0.6,1L61.6,103.2z M221.2,101.5l-2.1-1.2l0.6-1l2.1,1.2L221.2,101.5z M65.8,100.8l-0.6-1l2.1-1.2
			l0.6,1L65.8,100.8z M217.1,99l-2.1-1.2l0.6-1l2.1,1.2L217.1,99z M69.9,98.3l-0.6-1l2.1-1.2l0.6,1L69.9,98.3z M212.9,96.6l-2.1-1.2
			l0.6-1l2.1,1.2L212.9,96.6z M74.1,95.9l-0.6-1l2.1-1.2l0.6,1L74.1,95.9z M208.7,94.1l-2.1-1.2l0.6-1l2.1,1.2L208.7,94.1z
			 M78.3,93.4l-0.6-1l2.1-1.2l0.6,1L78.3,93.4z M204.6,91.7l-2.1-1.2l0.6-1l2.1,1.2L204.6,91.7z M82.4,91l-0.6-1l2.1-1.2l0.6,1
			L82.4,91z M200.4,89.3l-2.1-1.2l0.6-1l2.1,1.2L200.4,89.3z M86.6,88.6l-0.6-1l2.1-1.2l0.6,1L86.6,88.6z M196.3,86.8l-2.1-1.2
			l0.6-1l2.1,1.2L196.3,86.8z M90.7,86.1l-0.6-1l2.1-1.2l0.6,1L90.7,86.1z M192.1,84.4l-2.1-1.2l0.6-1l2.1,1.2L192.1,84.4z
			 M94.9,83.7l-0.6-1l2.1-1.2l0.6,1L94.9,83.7z M187.9,82l-2.1-1.2l0.6-1l2.1,1.2L187.9,82z M99.1,81.3l-0.6-1l2.1-1.2l0.6,1
			L99.1,81.3z M183.8,79.5l-2.1-1.2l0.6-1l2.1,1.2L183.8,79.5z M103.2,78.8l-0.6-1l2.1-1.2l0.6,1L103.2,78.8z M179.6,77.1l-2.1-1.2
			l0.6-1l2.1,1.2L179.6,77.1z M107.4,76.4l-0.6-1l2.1-1.2l0.6,1L107.4,76.4z M175.5,74.7l-2.1-1.2l0.6-1l2.1,1.2L175.5,74.7z
			 M111.6,73.9l-0.6-1l2.1-1.2l0.6,1L111.6,73.9z M171.3,72.2l-2.1-1.2l0.6-1l2.1,1.2L171.3,72.2z M115.7,71.5l-0.6-1l2.1-1.2l0.6,1
			L115.7,71.5z M167.1,69.8l-2.1-1.2l0.6-1l2.1,1.2L167.1,69.8z M119.9,69.1l-0.6-1l2.1-1.2l0.6,1L119.9,69.1z M163,67.3l-2.1-1.2
			l0.6-1l2.1,1.2L163,67.3z M124,66.6l-0.6-1l2.1-1.2l0.6,1L124,66.6z M158.8,64.9l-2.1-1.2l0.6-1l2.1,1.2L158.8,64.9z M128.2,64.2
			l-0.6-1l2.1-1.2l0.6,1L128.2,64.2z M154.6,62.5l-2.1-1.2l0.6-1l2.1,1.2L154.6,62.5z M132.4,61.8l-0.6-1l2.1-1.2l0.6,1L132.4,61.8z
			 M150.5,60l-2.1-1.2l0.6-1l2.1,1.2L150.5,60z M136.5,59.3l-0.6-1l2.1-1.2l0.6,1L136.5,59.3z M146.3,57.6l-2.1-1.2l0.6-1l2.1,1.2
			L146.3,57.6z M140.7,56.9l-0.6-1l2.1-1.2l0.6,1L140.7,56.9z"/>
	</g>
	<g class="st1">
		<path d="M146.7,54.9c0,2.1-1.7,3.8-3.8,3.8s-3.8-1.7-3.8-3.8c0-2.1,1.7-3.8,3.8-3.8S146.7,52.8,146.7,54.9z"/>
	</g>
	<g class="st1">
		<circle cx="142.9" cy="100.3" r="3.8"/>
	</g>
	<g class="st1">
		<path d="M56.7,148.3c1.8,1.1,2.5,3.4,1.4,5.2s-3.4,2.5-5.2,1.4s-2.5-3.4-1.4-5.2C52.6,147.8,54.9,147.2,56.7,148.3z"/>
	</g>
	<g class="st1">
		<path d="M52.9,249.5c1.8-1.1,4.2-0.4,5.2,1.4c1.1,1.8,0.4,4.2-1.4,5.2s-4.2,0.4-5.2-1.4C50.5,252.9,51.1,250.6,52.9,249.5z"/>
	</g>
	<g class="st1">
		<path d="M139.1,303.7c0-2.1,1.7-3.8,3.8-3.8s3.8,1.7,3.8,3.8c0,2.1-1.7,3.8-3.8,3.8S139.1,305.8,139.1,303.7z"/>
	</g>
	<g class="st1">
		<path d="M229.1,256.1c-1.8-1.1-2.5-3.4-1.4-5.2c1.1-1.8,3.4-2.5,5.2-1.4c1.8,1.1,2.5,3.4,1.4,5.2
			C233.2,256.6,230.9,257.2,229.1,256.1z"/>
	</g>
	<g class="st1">
		<path d="M232.9,155c-1.8,1.1-4.2,0.4-5.2-1.4c-1.1-1.8-0.4-4.2,1.4-5.2c1.8-1.1,4.2-0.4,5.2,1.4C235.3,151.6,234.7,154,232.9,155z
			"/>
	</g>
	<g class="st1">
		<path d="M146.7,274.5c0,2.1-1.7,3.8-3.8,3.8s-3.8-1.7-3.8-3.8c0-2.1,1.7-3.8,3.8-3.8S146.7,272.4,146.7,274.5z"/>
	</g>
	<g class="st1">
		<path d="M80.1,169.5c-2.1,0-3.8-1.7-3.8-3.8s1.7-3.8,3.8-3.8s3.8,1.7,3.8,3.8S82.2,169.5,80.1,169.5z"/>
	</g>
	<g class="st1">
		<path d="M205.7,169.5c-2.1,0-3.8-1.7-3.8-3.8s1.7-3.8,3.8-3.8c2.1,0,3.8,1.7,3.8,3.8C209.5,167.8,207.8,169.5,205.7,169.5z"/>
	</g>
	<g class="st1">
		<path d="M80.1,242c-2.1,0-3.8-1.7-3.8-3.8c0-2.1,1.7-3.8,3.8-3.8s3.8,1.7,3.8,3.8S82.2,242,80.1,242z"/>
	</g>
	<g class="st1">
		<path d="M205.7,242c-2.1,0-3.8-1.7-3.8-3.8c0-2.1,1.7-3.8,3.8-3.8c2.1,0,3.8,1.7,3.8,3.8C209.5,240.3,207.8,242,205.7,242z"/>
	</g>
	<g class="st1">
		<path d="M274.1,129.5c0,2.1-1.7,3.8-3.8,3.8c-2.1,0-3.8-1.7-3.8-3.8s1.7-3.8,3.8-3.8S274.1,127.4,274.1,129.5z"/>
	</g>
	<g class="st1">
		<path d="M19.3,129.5c0,2.1-1.7,3.8-3.8,3.8c-2.1,0-3.8-1.7-3.8-3.8s1.7-3.8,3.8-3.8C17.6,125.7,19.3,127.4,19.3,129.5z"/>
	</g>
	<g class="st1">
		<path d="M274.1,275.5c0,2.1-1.7,3.8-3.8,3.8c-2.1,0-3.8-1.7-3.8-3.8c0-2.1,1.7-3.8,3.8-3.8S274.1,273.4,274.1,275.5z"/>
	</g>
	<g class="st1">
		<path d="M19.3,275.5c0,2.1-1.7,3.8-3.8,3.8c-2.1,0-3.8-1.7-3.8-3.8c0-2.1,1.7-3.8,3.8-3.8C17.6,271.7,19.3,273.4,19.3,275.5z"/>
	</g>
	<g class="st1">
		<path d="M146.7,350.1c0,2.1-1.7,3.8-3.8,3.8s-3.8-1.7-3.8-3.8c0-2.1,1.7-3.8,3.8-3.8C145,346.3,146.7,348,146.7,350.1z"/>
	</g>
	<g class="st1">
		<path d="M142.9,69.3c-7.9,0-14.4-6.5-14.4-14.4s6.5-14.4,14.4-14.4s14.4,6.5,14.4,14.4S150.8,69.3,142.9,69.3z M142.9,41.7
			c-7.3,0-13.2,5.9-13.2,13.2s5.9,13.2,13.2,13.2c7.3,0,13.2-5.9,13.2-13.2S150.2,41.7,142.9,41.7z"/>
	</g>
	<g class="st1">
		<path d="M270.3,143.9c-7.9,0-14.4-6.5-14.4-14.4s6.5-14.4,14.4-14.4s14.4,6.5,14.4,14.4S278.2,143.9,270.3,143.9z M270.3,116.3
			c-7.3,0-13.2,5.9-13.2,13.2s5.9,13.2,13.2,13.2c7.3,0,13.2-5.9,13.2-13.2S277.6,116.3,270.3,116.3z"/>
	</g>
	<g class="st1">
		<path d="M15.5,143.9c-7.9,0-14.4-6.5-14.4-14.4s6.5-14.4,14.4-14.4s14.4,6.5,14.4,14.4S23.5,143.9,15.5,143.9z M15.5,116.3
			c-7.3,0-13.2,5.9-13.2,13.2s5.9,13.2,13.2,13.2s13.2-5.9,13.2-13.2S22.8,116.3,15.5,116.3z"/>
	</g>
	<g class="st1">
		<path d="M270.3,289.9c-7.9,0-14.4-6.5-14.4-14.4s6.5-14.4,14.4-14.4s14.4,6.5,14.4,14.4C284.7,283.5,278.2,289.9,270.3,289.9z
			 M270.3,262.3c-7.3,0-13.2,5.9-13.2,13.2c0,7.3,5.9,13.2,13.2,13.2c7.3,0,13.2-5.9,13.2-13.2C283.5,268.2,277.6,262.3,270.3,262.3
			z"/>
	</g>
	<g class="st1">
		<path d="M15.5,289.9c-7.9,0-14.4-6.5-14.4-14.4s6.5-14.4,14.4-14.4s14.4,6.5,14.4,14.4C29.9,283.5,23.5,289.9,15.5,289.9z
			 M15.5,262.3c-7.3,0-13.2,5.9-13.2,13.2c0,7.3,5.9,13.2,13.2,13.2s13.2-5.9,13.2-13.2C28.7,268.2,22.8,262.3,15.5,262.3z"/>
	</g>
	<g class="st1">
		<path d="M142.9,364.5c-7.9,0-14.4-6.5-14.4-14.4s6.5-14.4,14.4-14.4s14.4,6.5,14.4,14.4C157.3,358.1,150.8,364.5,142.9,364.5z
			 M142.9,336.9c-7.3,0-13.2,5.9-13.2,13.2c0,7.3,5.9,13.2,13.2,13.2c7.3,0,13.2-5.9,13.2-13.2S150.2,336.9,142.9,336.9z"/>
	</g>
	<g class="st1">
		<path d="M142.9,275.7l-1.6-2.7l1-0.6l1,1.8l-0.2,0.1l0.4,0.2L142.9,275.7z M144.8,272.4l-1-0.6l1.2-2.1l1,0.6L144.8,272.4z
			 M140.1,270.9l-1.2-2.1l1-0.6l1.2,2.1L140.1,270.9z M147.2,268.2l-1-0.6l1.2-2.1l1,0.6L147.2,268.2z M137.7,266.7l-1.2-2.1l1-0.6
			l1.2,2.1L137.7,266.7z M149.6,264l-1-0.6l1.2-2.1l1,0.6L149.6,264z M135.3,262.5l-1.2-2.1l1-0.6l1.2,2.1L135.3,262.5z M152,259.9
			l-1-0.6l1.2-2.1l1,0.6L152,259.9z M132.9,258.4l-1.2-2.1l1-0.6l1.2,2.1L132.9,258.4z M154.4,255.7l-1-0.6l1.2-2.1l1,0.6
			L154.4,255.7z M130.5,254.2l-1.2-2.1l1-0.6l1.2,2.1L130.5,254.2z M156.9,251.5l-1-0.6l1.2-2.1l1,0.6L156.9,251.5z M128.1,250
			l-1.2-2.1l1-0.6l1.2,2.1L128.1,250z M159.3,247.3l-1-0.6l1.2-2.1l1,0.6L159.3,247.3z M125.7,245.8l-1.2-2.1l1-0.6l1.2,2.1
			L125.7,245.8z M161.7,243.2l-1-0.6l1.2-2.1l1,0.6L161.7,243.2z M123.3,241.7l-1.2-2.1l1-0.6l1.2,2.1L123.3,241.7z M164.1,239
			l-1-0.6l1.2-2.1l1,0.6L164.1,239z M120.8,237.5l-1.2-2.1l1-0.6l1.2,2.1L120.8,237.5z M166.5,234.8l-1-0.6l1.2-2.1l1,0.6
			L166.5,234.8z M118.4,233.3l-1.2-2.1l1-0.6l1.2,2.1L118.4,233.3z M168.9,230.6l-1-0.6l1.2-2.1l1,0.6L168.9,230.6z M116,229.1
			l-1.2-2.1l1-0.6l1.2,2.1L116,229.1z M171.3,226.5l-1-0.6l1.2-2.1l1,0.6L171.3,226.5z M113.6,224.9l-1.2-2.1l1-0.6l1.2,2.1
			L113.6,224.9z M173.7,222.3l-1-0.6l1.2-2.1l1,0.6L173.7,222.3z M111.2,220.8l-1.2-2.1l1-0.6l1.2,2.1L111.2,220.8z M176.1,218.1
			l-1-0.6l1.2-2.1l1,0.6L176.1,218.1z M108.8,216.6l-1.2-2.1l1-0.6l1.2,2.1L108.8,216.6z M178.6,213.9l-1-0.6l1.2-2.1l1,0.6
			L178.6,213.9z M106.4,212.4l-1.2-2.1l1-0.6l1.2,2.1L106.4,212.4z M181,209.7l-1-0.6l1.2-2.1l1,0.6L181,209.7z M104,208.2l-1.2-2.1
			l1-0.6l1.2,2.1L104,208.2z M183.4,205.6l-1-0.6l1.2-2.1l1,0.6L183.4,205.6z M101.5,204.1l-1.2-2.1l1-0.6l1.2,2.1L101.5,204.1z
			 M185.8,201.4l-1-0.6l1.2-2.1l1,0.6L185.8,201.4z M99.1,199.9l-1.2-2.1l1-0.6l1.2,2.1L99.1,199.9z M188.2,197.2l-1-0.6l1.2-2.1
			l1,0.6L188.2,197.2z M96.7,195.7l-1.2-2.1l1-0.6l1.2,2.1L96.7,195.7z M190.6,193l-1-0.6l1.2-2.1l1,0.6L190.6,193z M94.3,191.5
			l-1.2-2.1l1-0.6l1.2,2.1L94.3,191.5z M193,188.9l-1-0.6l1.2-2.1l1,0.6L193,188.9z M91.9,187.4l-1.2-2.1l1-0.6l1.2,2.1L91.9,187.4z
			 M195.4,184.7l-1-0.6l1.2-2.1l1,0.6L195.4,184.7z M89.5,183.2l-1.2-2.1l1-0.6l1.2,2.1L89.5,183.2z M197.9,180.5l-1-0.6l1.2-2.1
			l1,0.6L197.9,180.5z M87.1,179l-1.2-2.1l1-0.6l1.2,2.1L87.1,179z M200.3,176.3l-1-0.6l1.2-2.1l1,0.6L200.3,176.3z M84.7,174.8
			l-1.2-2.1l1-0.6l1.2,2.1L84.7,174.8z M202.7,172.2l-1-0.6l1.2-2.1l1,0.6L202.7,172.2z M82.3,170.6l-1.2-2.1l1-0.6l1.2,2.1
			L82.3,170.6z M205.1,168l-1-0.6l1.1-1.9l0.4,0.2v-0.5h1.2L205.1,168z M79.8,166.5l-0.8-1.3h3.5v1.2h-2.4L79.8,166.5z M203.1,166.3
			h-2.4v-1.2h2.4V166.3z M198.3,166.3h-2.4v-1.2h2.4V166.3z M193.5,166.3h-2.4v-1.2h2.4V166.3z M188.6,166.3h-2.4v-1.2h2.4V166.3z
			 M183.8,166.3h-2.4v-1.2h2.4V166.3z M179,166.3h-2.4v-1.2h2.4V166.3z M174.2,166.3h-2.4v-1.2h2.4V166.3z M169.3,166.3h-2.4v-1.2
			h2.4V166.3z M164.5,166.3h-2.4v-1.2h2.4V166.3z M159.7,166.3h-2.4v-1.2h2.4V166.3z M154.9,166.3h-2.4v-1.2h2.4V166.3z
			 M150.1,166.3h-2.4v-1.2h2.4V166.3z M145.2,166.3h-2.4v-1.2h2.4V166.3z M140.4,166.3H138v-1.2h2.4V166.3z M135.6,166.3h-2.4v-1.2
			h2.4V166.3z M130.8,166.3h-2.4v-1.2h2.4V166.3z M125.9,166.3h-2.4v-1.2h2.4V166.3z M121.1,166.3h-2.4v-1.2h2.4V166.3z
			 M116.3,166.3h-2.4v-1.2h2.4V166.3z M111.5,166.3h-2.4v-1.2h2.4V166.3z M106.6,166.3h-2.4v-1.2h2.4V166.3z M101.8,166.3h-2.4v-1.2
			h2.4V166.3z M97,166.3h-2.4v-1.2H97V166.3z M92.2,166.3h-2.4v-1.2h2.4V166.3z M87.4,166.3h-2.5v-1.2h2.4v1.2H87.4z"/>
	</g>
	<g class="st1">
		<path d="M206.7,238.8h-3.3v-1.2h2.2v0.4l0.4-0.3L206.7,238.8z M201,238.8h-2.4v-1.2h2.4V238.8z M196.2,238.8h-2.4v-1.2h2.4V238.8z
			 M191.4,238.8H189v-1.2h2.4V238.8z M186.6,238.8h-2.4v-1.2h2.4V238.8z M181.7,238.8h-2.4v-1.2h2.4V238.8z M176.9,238.8h-2.4v-1.2
			h2.4V238.8z M172.1,238.8h-2.4v-1.2h2.4V238.8z M167.3,238.8h-2.4v-1.2h2.4V238.8z M162.4,238.8H160v-1.2h2.4V238.8z M157.6,238.8
			h-2.4v-1.2h2.4V238.8z M152.8,238.8h-2.4v-1.2h2.4V238.8z M148,238.8h-2.4v-1.2h2.4V238.8z M143.2,238.8h-2.4v-1.2h2.4V238.8z
			 M138.3,238.8h-2.4v-1.2h2.4V238.8z M133.5,238.8h-2.4v-1.2h2.4V238.8z M128.7,238.8h-2.4v-1.2h2.4V238.8z M123.9,238.8h-2.4v-1.2
			h2.4V238.8z M119,238.8h-2.4v-1.2h2.4V238.8z M114.2,238.8h-2.4v-1.2h2.4V238.8z M109.4,238.8H107v-1.2h2.4V238.8z M104.6,238.8
			h-2.4v-1.2h2.4V238.8z M99.7,238.8h-2.4v-1.2h2.4V238.8z M94.9,238.8h-2.4v-1.2h2.4V238.8z M90.1,238.8h-2.4v-1.2h2.4V238.8z
			 M85.3,238.8h-2.4v-1.2h2.4V238.8z M80.5,238.8h-1.4l1.6-2.7l1,0.6l-1,1.8l-0.2-0.1L80.5,238.8L80.5,238.8z M203.9,236.3l-1.2-2.1
			l1-0.6l1.2,2.1L203.9,236.3z M82.9,234.6l-1-0.6l1.2-2.1l1,0.6L82.9,234.6z M201.5,232.1l-1.2-2.1l1-0.6l1.2,2.1L201.5,232.1z
			 M85.3,230.5l-1-0.6l1.2-2.1l1,0.6L85.3,230.5z M199,227.9l-1.2-2.1l1-0.6l1.2,2.1L199,227.9z M87.7,226.3l-1-0.6l1.2-2.1l1,0.6
			L87.7,226.3z M196.6,223.8l-1.2-2.1l1-0.6l1.2,2.1L196.6,223.8z M90.1,222.1l-1-0.6l1.2-2.1l1,0.6L90.1,222.1z M194.2,219.6
			l-1.2-2.1l1-0.6l1.2,2.1L194.2,219.6z M92.5,217.9l-1-0.6l1.2-2.1l1,0.6L92.5,217.9z M191.8,215.4l-1.2-2.1l1-0.6l1.2,2.1
			L191.8,215.4z M94.9,213.8l-1-0.6l1.2-2.1l1,0.6L94.9,213.8z M189.4,211.2l-1.2-2.1l1-0.6l1.2,2.1L189.4,211.2z M97.4,209.6
			l-1-0.6l1.2-2.1l1,0.6L97.4,209.6z M187,207.1l-1.2-2.1l1-0.6l1.2,2.1L187,207.1z M99.8,205.4l-1-0.6l1.2-2.1l1,0.6L99.8,205.4z
			 M184.6,202.9l-1.2-2.1l1-0.6l1.2,2.1L184.6,202.9z M102.2,201.2l-1-0.6l1.2-2.1l1,0.6L102.2,201.2z M182.2,198.7l-1.2-2.1l1-0.6
			l1.2,2.1L182.2,198.7z M104.6,197.1l-1-0.6l1.2-2.1l1,0.6L104.6,197.1z M179.8,194.5l-1.2-2.1l1-0.6l1.2,2.1L179.8,194.5z
			 M107,192.9l-1-0.6l1.2-2.1l1,0.6L107,192.9z M177.3,190.3l-1.2-2.1l1-0.6l1.2,2.1L177.3,190.3z M109.4,188.7l-1-0.6l1.2-2.1
			l1,0.6L109.4,188.7z M174.9,186.2l-1.2-2.1l1-0.6l1.2,2.1L174.9,186.2z M111.8,184.5l-1-0.6l1.2-2.1l1,0.6L111.8,184.5z
			 M172.5,182l-1.2-2.1l1-0.6l1.2,2.1L172.5,182z M114.2,180.3l-1-0.6l1.2-2.1l1,0.6L114.2,180.3z M170.1,177.8l-1.2-2.1l1-0.6
			l1.2,2.1L170.1,177.8z M116.6,176.2l-1-0.6l1.2-2.1l1,0.6L116.6,176.2z M167.7,173.6l-1.2-2.1l1-0.6l1.2,2.1L167.7,173.6z
			 M119.1,172l-1-0.6l1.2-2.1l1,0.6L119.1,172z M165.3,169.5l-1.2-2.1l1-0.6l1.2,2.1L165.3,169.5z M121.5,167.8l-1-0.6l1.2-2.1
			l1,0.6L121.5,167.8z M162.9,165.3l-1.2-2.1l1-0.6l1.2,2.1L162.9,165.3z M123.9,163.6l-1-0.6l1.2-2.1l1,0.6L123.9,163.6z
			 M160.5,161.1l-1.2-2.1l1-0.6l1.2,2.1L160.5,161.1z M126.3,159.5l-1-0.6l1.2-2.1l1,0.6L126.3,159.5z M158.1,156.9l-1.2-2.1l1-0.6
			l1.2,2.1L158.1,156.9z M128.7,155.3l-1-0.6l1.2-2.1l1,0.6L128.7,155.3z M155.6,152.8l-1.2-2.1l1-0.6l1.2,2.1L155.6,152.8z
			 M131.1,151.1l-1-0.6l1.2-2.1l1,0.6L131.1,151.1z M153.2,148.6l-1.2-2.1l1-0.6l1.2,2.1L153.2,148.6z M133.5,146.9l-1-0.6l1.2-2.1
			l1,0.6L133.5,146.9z M150.8,144.4l-1.2-2.1l1-0.6l1.2,2.1L150.8,144.4z M135.9,142.7l-1-0.6l1.2-2.1l1,0.6L135.9,142.7z
			 M148.4,140.2l-1.2-2.1l1-0.6l1.2,2.1L148.4,140.2z M138.3,138.6l-1-0.6l1.2-2.1l1,0.6L138.3,138.6z M146,136l-1.2-2.1l1-0.6
			l1.2,2.1L146,136z M140.8,134.4l-1-0.6l1.2-2.1l1,0.6L140.8,134.4z M143.6,131.9l-1.2-2.1l0,0l-0.3-0.2l0.8-1.3l1.7,3L143.6,131.9
			z"/>
	</g>
</g>
<g id="Layer_4">
</g>
<g>
	<g id="Layer_2_1_">
		<g>
			<g>
				<path class="st2" d="M29.5,82.1L28,79.5l2.5-1.5l1.5,2.6L29.5,82.1z M34.7,79.1l-1.5-2.6l2.5-1.5l1.5,2.6L34.7,79.1z M39.8,76.2
					l-1.5-2.6l2.5-1.5l1.5,2.6L39.8,76.2z M44.8,73.2l-1.5-2.6l2.5-1.5l1.5,2.6L44.8,73.2z M50,70.3l-1.5-2.6l2.5-1.5l1.5,2.6
					L50,70.3z M55,67.3l-1.5-2.6l2.5-1.5l1.5,2.6L55,67.3z M60.1,64.4l-1.5-2.6l2.5-1.5l1.5,2.6L60.1,64.4z M65.3,61.4l-1.5-2.6
					l2.5-1.5l1.5,2.6L65.3,61.4z M70.3,58.5l-1.5-2.6l2.5-1.5l1.5,2.6L70.3,58.5z M75.3,55.5l-1.5-2.6l2.5-1.5l1.5,2.6L75.3,55.5z
					 M80.5,52.6L79,50l2.5-1.5l1.5,2.6L80.5,52.6z M85.5,49.7L84,47.1l2.5-1.5l1.5,2.6L85.5,49.7z M90.7,46.7l-1.5-2.6l2.5-1.5
					l1.5,2.6L90.7,46.7z M95.8,43.8l-1.5-2.6l2.5-1.5l1.5,2.6L95.8,43.8z M100.8,40.8l-1.5-2.6l2.5-1.5l1.5,2.6L100.8,40.8z
					 M106,37.9l-1.5-2.6l2.5-1.5l1.5,2.6L106,37.9z M111,34.9l-1.5-2.6l2.5-1.5l1.5,2.6L111,34.9z M116.1,32l-1.5-2.6l2.5-1.5
					l1.5,2.6L116.1,32z M121.3,29l-1.5-2.6l2.5-1.5l1.5,2.6L121.3,29z M126.3,26.1l-1.5-2.6l2.5-1.5l1.5,2.6L126.3,26.1z"/>
			</g>
			<g>
				<path class="st2" d="M16.2,218.7h-3v-3.1h3V218.7z M16.2,212.5h-3v-3h3V212.5z M16.2,206.4h-3v-3.1h3V206.4z M16.2,200.3h-3
					v-3.1h3V200.3z M16.2,194.2h-3v-3.1h3V194.2z M16.2,188.1h-3V185h3V188.1z M16.2,182h-3v-3.1h3V182z M16.2,175.9h-3v-3.1h3
					V175.9z M16.2,169.8h-3v-3.1h3V169.8z M16.2,163.7h-3v-3.1h3V163.7z M16.2,157.6h-3v-3.1h3V157.6z M16.2,151.5h-3v-3.1h3V151.5z
					 M16.2,145.3h-3v-3.1h3V145.3z M16.2,139.2h-3v-3.1h3V139.2z M16.2,133.1h-3V130h3V133.1z M16.2,127h-3v-3.1h3V127z M16.2,120.9
					h-3v-3.1h3V120.9z M16.2,114.8h-3v-3.1h3V114.8z M16.2,108.7h-3v-3.1h3V108.7z"/>
			</g>
			<g>
				<polygon class="st2" points="43.4,253.9 45.9,255.4 47.4,252.8 44.9,251.3 				"/>
				<polygon class="st2" points="48.4,256.9 50.9,258.4 52.4,255.8 49.9,254.3 				"/>
				<polygon class="st2" points="53.6,259.9 56.1,261.4 57.6,258.8 55.1,257.3 				"/>
				<polygon class="st2" points="63.8,265.9 66.3,267.4 67.8,264.8 65.3,263.3 				"/>
				<polygon class="st2" points="58.7,262.9 61.1,264.4 62.7,261.8 60.1,260.3 				"/>
				<polygon class="st2" points="28.1,245 30.6,246.5 32.1,243.9 29.6,242.4 				"/>
				<polygon class="st2" points="33.1,248 35.7,249.5 37.1,246.9 34.7,245.4 				"/>
				<polygon class="st2" points="38.3,251 40.8,252.5 42.3,249.9 39.8,248.4 				"/>
				<polygon class="st2" points="68.9,268.9 71.4,270.4 72.9,267.8 70.4,266.3 				"/>
				<polygon class="st2" points="109.6,292.9 112.1,294.4 113.6,291.8 111.1,290.3 				"/>
				<polygon class="st2" points="114.7,295.9 117.1,297.4 118.7,294.8 116.1,293.3 				"/>
				<polygon class="st2" points="119.8,298.9 122.3,300.4 123.8,297.8 121.3,296.3 				"/>
				<polygon class="st2" points="126.4,299.3 124.9,301.9 127.4,303.4 128.9,300.8 				"/>
				<polygon class="st2" points="104.4,289.9 106.9,291.4 108.4,288.8 105.9,287.3 				"/>
				<polygon class="st2" points="89.3,280.9 91.8,282.4 93.3,279.8 90.8,278.3 				"/>
				<polygon class="st2" points="79.1,274.9 81.6,276.4 83.1,273.8 80.6,272.3 				"/>
				<polygon class="st2" points="84.1,277.9 86.7,279.4 88.1,276.8 85.7,275.3 				"/>
				<polygon class="st2" points="99.4,286.9 101.9,288.4 103.4,285.8 100.9,284.3 				"/>
				<polygon class="st2" points="94.4,283.9 96.9,285.4 98.4,282.8 95.9,281.3 				"/>
				<polygon class="st2" points="73.9,271.9 76.4,273.4 77.9,270.8 75.4,269.3 				"/>
			</g>
			<g>
				<polygon class="st2" points="142.1,312 140.1,310.8 141.7,308.3 142.1,308.6 142.8,308.3 144.3,310.9 				"/>
			</g>
			<g>
				<path class="st2" d="M269.3,219.3v-3h3v3H269.3z M269.3,213.2v-3h3v3H269.3z M269.3,207.1v-3h3v3H269.3z M269.1,201v-3h3v3
					H269.1z M269.1,194.9v-3h3v3H269.1z M269.1,188.8v-3h3v3H269.1z M269.1,182.7v-3h3v3H269.1z M269,176.6v-3h3v3H269z M269,170.5
					v-3h3v3H269z M269,164.4v-3h3v3H269z M269,158.3v-3h3v3H269z M268.9,152.2v-3h3v3H268.9z M268.9,146.2v-3h3v3H268.9z
					 M268.9,140.1v-3h3v3H268.9z M268.9,134v-3h3v3H268.9z M268.9,127.9v-3h3v3H268.9z M268.9,121.8v-3h3v3H268.9z M268.9,115.7v-3
					h3v3H268.9z M268.9,109.6v-3h3v3H268.9z"/>
			</g>
			<g>
				<path class="st2" d="M255.4,82.9l-2.6-1.5l1.5-2.6l2.6,1.5L255.4,82.9z M250.3,79.9l-2.6-1.5l1.5-2.6l2.6,1.5L250.3,79.9z
					 M245.1,76.9l-2.6-1.5l1.5-2.6l2.6,1.5L245.1,76.9z M240,73.9l-2.6-1.5l1.5-2.6l2.6,1.5L240,73.9z M234.9,70.9l-2.6-1.5l1.5-2.6
					l2.6,1.5L234.9,70.9z M229.8,68l-2.6-1.5l1.5-2.6l2.6,1.5L229.8,68z M224.7,65l-2.6-1.5l1.5-2.6l2.6,1.5L224.7,65z M219.5,62
					l-2.6-1.5l1.5-2.6l2.6,1.5L219.5,62z M214.4,59l-2.6-1.5l1.5-2.6l2.6,1.5L214.4,59z M209.3,56l-2.6-1.5l1.5-2.6l2.6,1.5
					L209.3,56z M204.1,53l-2.6-1.5l1.5-2.6l2.6,1.5L204.1,53z M199,50.1l-2.6-1.5l1.5-2.6l2.6,1.5L199,50.1z M193.9,47.1l-2.6-1.5
					l1.5-2.6l2.6,1.5L193.9,47.1z M188.8,44.1l-2.6-1.5l1.5-2.6l2.6,1.5L188.8,44.1z M183.7,41.1l-2.6-1.5l1.5-2.6l2.6,1.5
					L183.7,41.1z M178.5,38.1l-2.6-1.5l1.5-2.6l2.6,1.5L178.5,38.1z M173.4,35.2l-2.6-1.5l1.5-2.6l2.6,1.5L173.4,35.2z M168.4,32.2
					l-2.6-1.5l1.5-2.6l2.6,1.5L168.4,32.2z M163.1,29.2l-2.6-1.5l1.5-2.6l2.6,1.5L163.1,29.2z M158,26.2l-2.6-1.5l1.5-2.6l2.6,1.5
					L158,26.2z"/>
			</g>
		</g>
		<g>
			<path class="st2" d="M142.5,238.4l-0.8-0.4l-64.5-37.9V125l65.3-37.8l65.6,38.2l0.3,75L142.5,238.4z M80.1,198.3l62.3,36.6
				l62.9-36.3l-0.3-71.5l-62.6-36.5l-62.3,36V198.3L80.1,198.3z"/>
		</g>
		<g>
			<path class="st2" d="M29,229.4l-1.5-2.6l2.6-1.5l1.5,2.6L29,229.4z M34.1,226.5l-1.5-2.6l2.6-1.5l1.5,2.6L34.1,226.5z
				 M39.3,223.5l-1.5-2.6l2.6-1.5l1.5,2.6L39.3,223.5z M44.5,220.5l-1.5-2.6l2.6-1.5l1.5,2.6L44.5,220.5z M49.8,217.5l-1.5-2.6
				l2.6-1.5l1.5,2.6L49.8,217.5z M55,214.6l-1.5-2.6l2.6-1.5l1.5,2.6L55,214.6z M60.1,211.6l-1.5-2.6l2.6-1.5l1.5,2.6L60.1,211.6z
				 M65.3,208.6l-1.5-2.6l2.6-1.5l1.5,2.6L65.3,208.6z M70.7,205.6l-1.5-2.6l2.6-1.5l1.5,2.6L70.7,205.6z M75.8,202.7l-1.5-2.6
				l2.6-1.5l1.5,2.6L75.8,202.7z M81,199.7l-1.5-2.6l2.6-1.5l1.5,2.6L81,199.7z M86.3,196.7l-1.5-2.6l2.6-1.5l1.5,2.6L86.3,196.7z
				 M91.5,193.8l-1.5-2.6l2.6-1.5l1.5,2.6L91.5,193.8z M96.7,190.8l-1.5-2.6l2.6-1.5l1.5,2.6L96.7,190.8z M101.8,187.8l-1.5-2.6
				l2.6-1.5l1.5,2.6L101.8,187.8z M107,184.8l-1.5-2.6l2.6-1.5l1.5,2.6L107,184.8z M169.7,149.2l-1.5-2.6l2.6-1.5l1.5,2.6
				L169.7,149.2z M174.9,146.2l-1.5-2.6l2.6-1.5l1.5,2.6L174.9,146.2z M180,143.2l-1.5-2.6l2.6-1.5l1.5,2.6L180,143.2z M185.3,140.3
				l-1.5-2.6l2.6-1.5l1.5,2.6L185.3,140.3z M190.4,137.3l-1.5-2.6l2.6-1.5l1.5,2.6L190.4,137.3z M195.8,134.3l-1.5-2.6l2.6-1.5
				l1.5,2.6L195.8,134.3z M200.9,131.4l-1.5-2.6l2.6-1.5l1.5,2.6L200.9,131.4z M206.1,128.4l-1.5-2.6l2.6-1.5l1.5,2.6L206.1,128.4z
				 M211.4,125.4l-1.5-2.6l2.6-1.5l1.5,2.6L211.4,125.4z M216.5,122.4l-1.5-2.6l2.6-1.5l1.5,2.6L216.5,122.4z M221.8,119.5l-1.5-2.6
				l2.6-1.5l1.5,2.6L221.8,119.5z M226.9,116.5l-1.5-2.6l2.6-1.5l1.5,2.6L226.9,116.5z M232.1,113.5l-1.5-2.6l2.6-1.5l1.5,2.6
				L232.1,113.5z M237.4,110.6l-1.5-2.6l2.6-1.5l1.5,2.6L237.4,110.6z M242.7,107.6l-1.5-2.6l2.6-1.5l1.5,2.6L242.7,107.6z
				 M247.9,104.6l-1.5-2.6l2.6-1.5l1.5,2.6L247.9,104.6z M253,101.6l-1.5-2.6l2.6-1.5l1.5,2.6L253,101.6z M258.3,98.7l-1.5-2.6
				l1.3-0.8l1.5,2.6L258.3,98.7z"/>
		</g>
		<g>
			<path class="st2" d="M255.9,229.5l-2.6-1.5l1.5-2.6l2.6,1.5L255.9,229.5z M250.8,226.5l-2.6-1.5l1.5-2.6l2.6,1.5L250.8,226.5z
				 M245.5,223.5l-2.6-1.5l1.5-2.6l2.6,1.5L245.5,223.5z M240.4,220.5l-2.6-1.5l1.5-2.6l2.6,1.5L240.4,220.5z M235.1,217.5l-2.6-1.5
				l1.5-2.6l2.6,1.5L235.1,217.5z M229.9,214.6l-2.6-1.5l1.5-2.6l2.6,1.5L229.9,214.6z M224.8,211.6l-2.6-1.5l1.5-2.6l2.6,1.5
				L224.8,211.6z M219.5,208.6l-2.6-1.5l1.5-2.6l2.6,1.5L219.5,208.6z M214.4,205.6l-2.6-1.5l1.5-2.6l2.6,1.5L214.4,205.6z
				 M209.1,202.6l-2.6-1.5l1.5-2.6l2.6,1.5L209.1,202.6z M203.9,199.6l-2.6-1.5l1.5-2.6l2.6,1.5L203.9,199.6z M198.8,196.6l-2.6-1.5
				l1.5-2.6l2.6,1.5L198.8,196.6z M193.5,193.6l-2.6-1.5l1.5-2.6l2.6,1.5L193.5,193.6z M188.3,190.6l-2.6-1.5l1.5-2.6l2.6,1.5
				L188.3,190.6z M183,187.6l-2.6-1.5l1.5-2.6l2.6,1.5L183,187.6z M177.9,184.7l-2.6-1.5l1.5-2.6l2.6,1.5L177.9,184.7z M115.5,148.8
				l-2.6-1.5l1.5-2.6l2.6,1.5L115.5,148.8z M110.3,145.8l-2.6-1.5l1.5-2.6l2.6,1.5L110.3,145.8z M105,142.8l-2.6-1.5l1.5-2.6
				l2.6,1.5L105,142.8z M99.8,139.8l-2.6-1.5l1.5-2.6l2.6,1.5L99.8,139.8z M94.7,136.8l-2.6-1.5l1.5-2.6l2.6,1.5L94.7,136.8z
				 M89.5,133.8l-2.6-1.5l1.5-2.6l2.6,1.5L89.5,133.8z M84.3,130.8l-2.6-1.5l1.5-2.6l2.6,1.5L84.3,130.8z M79,127.8l-2.6-1.5
				l1.5-2.6l2.6,1.5L79,127.8z M73.8,124.9l-2.6-1.5l1.5-2.6l2.6,1.5L73.8,124.9z M68.7,121.9l-2.6-1.5l1.5-2.6l2.6,1.5L68.7,121.9z
				 M63.5,118.9l-2.6-1.5l1.5-2.6l2.6,1.5L63.5,118.9z M58.3,115.9l-2.6-1.5l1.5-2.6l2.6,1.5L58.3,115.9z M53,112.9l-2.6-1.5
				l1.5-2.6l2.6,1.5L53,112.9z M47.8,109.9l-2.6-1.5l1.5-2.6l2.6,1.5L47.8,109.9z M42.7,106.9l-2.6-1.5l1.5-2.6l2.6,1.5L42.7,106.9z
				 M37.5,103.9l-2.6-1.5l1.5-2.6l2.6,1.5L37.5,103.9z M32.3,100.9l-2.6-1.5l1.5-2.6l2.6,1.5L32.3,100.9z"/>
		</g>
		<g>
			<rect x="141.4" y="118.2" class="st2" width="3" height="3"/>
			<rect x="141.4" y="112.2" class="st2" width="3" height="3"/>
			<rect x="141.4" y="106.2" class="st2" width="3" height="3"/>
			<rect x="141.4" y="88.2" class="st2" width="3" height="3"/>
			<rect x="141.4" y="94.2" class="st2" width="3" height="3"/>
			<rect x="141.4" y="100.2" class="st2" width="3" height="3"/>
			<rect x="141.4" y="29.5" class="st2" width="3" height="1.7"/>
			<rect x="141.4" y="34.2" class="st2" width="3" height="3"/>
			<rect x="141.4" y="40.2" class="st2" width="3" height="3"/>
			<rect x="141.4" y="52.2" class="st2" width="3" height="3"/>
			<rect x="141.4" y="46.2" class="st2" width="3" height="3"/>
			<rect x="141.4" y="76.2" class="st2" width="3" height="3"/>
			<rect x="141.4" y="70.2" class="st2" width="3" height="3"/>
			<rect x="141.4" y="82.2" class="st2" width="3" height="3"/>
			<rect x="141.4" y="58.2" class="st2" width="3" height="3"/>
			<rect x="141.4" y="64.2" class="st2" width="3" height="3"/>
			<rect x="141.4" y="250.2" class="st2" width="3" height="3"/>
			<rect x="141.4" y="244.2" class="st2" width="3" height="3"/>
			<rect x="141.4" y="238.2" class="st2" width="3" height="3"/>
			<rect x="141.4" y="232.2" class="st2" width="3" height="3"/>
			<rect x="141.4" y="262.2" class="st2" width="3" height="3"/>
			<rect x="141.4" y="286.2" class="st2" width="3" height="3"/>
			<rect x="141.4" y="292.2" class="st2" width="3" height="3"/>
			<rect x="141.4" y="268.2" class="st2" width="3" height="3"/>
			<rect x="141.4" y="274.2" class="st2" width="3" height="3"/>
			<rect x="141.4" y="280.2" class="st2" width="3" height="3"/>
			<rect x="141.4" y="256.2" class="st2" width="3" height="3"/>
			<rect x="141.4" y="214.2" class="st2" width="3" height="3"/>
			<rect x="141.4" y="220.2" class="st2" width="3" height="3"/>
			<rect x="141.4" y="208.2" class="st2" width="3" height="3"/>
			<rect x="141.4" y="226.2" class="st2" width="3" height="3"/>
		</g>
	</g>
	<g>
		<g>
			<path class="st2" d="M20.7,101.9l114.4,196c0.8-0.5,1.8-1,2.7-1.3L23.3,100.5C22.5,101,21.6,101.5,20.7,101.9z"/>
			<path class="st2" d="M29.9,87.6c0,0.2,0,0.4,0,0.6c0,0.8-0.1,1.6-0.2,2.4l226.4,0.2c-0.2-0.8-0.2-1.7-0.2-2.6c0-0.1,0-0.3,0-0.4
				L29.9,87.6z"/>
		</g>
		<path class="st2" d="M262.3,100.4L147.9,296.5c1,0.3,1.9,0.8,2.7,1.3l114.3-196C264.1,101.4,263.2,101,262.3,100.4z"/>
	</g>
	<g>
		<g>
			<path class="st2" d="M143,30.4c-8.4,0-15.2-6.8-15.2-15.2S134.6,0,143,0s15.2,6.8,15.2,15.2S151.4,30.4,143,30.4z M143,1.1
				c-7.8,0-14.2,6.4-14.2,14.2s6.3,14.2,14.2,14.2c7.9,0,14.2-6.4,14.2-14.2S150.8,1.1,143,1.1z"/>
		</g>
	</g>
	<g>
		<g>
			<g>
				
					<rect x="207.6" y="270.1" transform="matrix(0.8662 -0.4997 0.4997 0.8662 -107.7366 140.8289)" class="st2" width="3" height="3"/>
				
					<rect x="181.9" y="285" transform="matrix(0.8662 -0.4997 0.4997 0.8662 -118.6202 129.9801)" class="st2" width="3" height="3"/>
				
					<rect x="202.4" y="273.1" transform="matrix(0.8662 -0.4997 0.4997 0.8662 -109.9314 138.6319)" class="st2" width="3" height="3"/>
				
					<rect x="197.3" y="276.1" transform="matrix(0.8662 -0.4997 0.4997 0.8662 -112.1129 136.4848)" class="st2" width="3" height="3"/>
				
					<rect x="192.1" y="279" transform="matrix(0.8662 -0.4997 0.4997 0.8662 -114.2572 134.2742)" class="st2" width="3" height="3"/>
				<rect x="187" y="282" transform="matrix(0.8662 -0.4997 0.4997 0.8662 -116.4387 132.1271)" class="st2" width="3" height="3"/>
				
					<rect x="156.1" y="299.8" transform="matrix(0.8662 -0.4997 0.4997 0.8662 -129.4678 119.0682)" class="st2" width="3" height="3"/>
				
					<rect x="161.3" y="296.9" transform="matrix(0.8662 -0.4997 0.4997 0.8662 -127.3234 121.2789)" class="st2" width="3" height="3"/>
				
					<rect x="166.4" y="293.9" transform="matrix(0.8662 -0.4997 0.4997 0.8662 -125.1419 123.4259)" class="st2" width="3" height="3"/>
				
					<rect x="171.6" y="290.9" transform="matrix(0.8662 -0.4997 0.4997 0.8662 -122.9471 125.6229)" class="st2" width="3" height="3"/>
				
					<rect x="176.7" y="287.9" transform="matrix(0.8662 -0.4997 0.4997 0.8662 -120.7656 127.7699)" class="st2" width="3" height="3"/>
				
					<rect x="253.9" y="243.4" transform="matrix(0.8662 -0.4997 0.4997 0.8662 -88.1995 160.3924)" class="st2" width="3" height="3"/>
				
					<rect x="248.8" y="246.4" transform="matrix(0.8662 -0.4997 0.4997 0.8662 -90.3811 158.2454)" class="st2" width="3" height="3"/>
				
					<rect x="243.6" y="249.3" transform="matrix(0.8662 -0.4997 0.4997 0.8662 -92.5254 156.0346)" class="st2" width="3" height="3"/>
				
					<rect x="212.7" y="267.2" transform="matrix(0.8662 -0.4997 0.4997 0.8662 -105.605 142.9893)" class="st2" width="3" height="3"/>
				
					<rect x="217.9" y="264.2" transform="matrix(0.8662 -0.4997 0.4997 0.8662 -103.4102 145.1864)" class="st2" width="3" height="3"/>
				
					<rect x="223" y="261.2" transform="matrix(0.8662 -0.4997 0.4997 0.8662 -101.2287 147.3334)" class="st2" width="3" height="3"/>
				
					<rect x="228.2" y="258.2" transform="matrix(0.8662 -0.4997 0.4997 0.8662 -99.0338 149.5304)" class="st2" width="3" height="3"/>
				
					<rect x="233.3" y="255.3" transform="matrix(0.8662 -0.4997 0.4997 0.8662 -96.9017 151.6905)" class="st2" width="3" height="3"/>
				
					<rect x="238.5" y="252.3" transform="matrix(0.8662 -0.4997 0.4997 0.8662 -94.7069 153.8876)" class="st2" width="3" height="3"/>
			</g>
			<path class="st2" d="M143,325.5c-8.4,0-15.2-6.8-15.2-15.2c0-8.4,6.8-15.2,15.2-15.2s15.2,6.8,15.2,15.2S151.4,325.5,143,325.5z
				 M143,296.1c-7.8,0-14.2,6.4-14.2,14.2c0,7.8,6.4,14.2,14.2,14.2c7.8,0,14.2-6.4,14.2-14.2S150.8,296.1,143,296.1z"/>
		</g>
	</g>
	<g>
		<g>
			<path class="st2" d="M270.5,103.4c-8.4,0-15.2-6.8-15.2-15.2S262.1,73,270.5,73c8.4,0,15.2,6.8,15.2,15.2
				S278.9,103.4,270.5,103.4z M270.5,74.1c-7.8,0-14.2,6.4-14.2,14.2s6.4,14.2,14.2,14.2c7.8,0,14.2-6.4,14.2-14.2
				S278.4,74.1,270.5,74.1z"/>
		</g>
	</g>
	<g>
		<g>
			<path class="st2" d="M15.2,103.4C6.8,103.4,0,96.6,0,88.2S6.8,73,15.2,73s15.2,6.8,15.2,15.2S23.7,103.4,15.2,103.4z M15.2,74.1
				C7.4,74.1,1,80.5,1,88.3s6.4,14.2,14.2,14.2s14.2-6.4,14.2-14.2S23.1,74.1,15.2,74.1z"/>
		</g>
	</g>
	<g>
		<g>
			<path class="st2" d="M270.5,250.8c-8.4,0-15.2-6.8-15.2-15.2c0-8.4,6.8-15.2,15.2-15.2c8.4,0,15.2,6.8,15.2,15.2
				S278.9,250.8,270.5,250.8z M270.5,221.4c-7.8,0-14.2,6.4-14.2,14.2c0,7.8,6.4,14.2,14.2,14.2c7.8,0,14.2-6.4,14.2-14.2
				S278.4,221.4,270.5,221.4z"/>
		</g>
	</g>
	<g>
		<g>
			<path class="st2" d="M15.2,250.8C6.8,250.8,0,244,0,235.6c0-8.4,6.8-15.2,15.2-15.2s15.2,6.8,15.2,15.2S23.7,250.8,15.2,250.8z
				 M15.2,221.4c-7.8,0-14.2,6.4-14.2,14.2c0,7.8,6.4,14.2,14.2,14.2s14.2-6.4,14.2-14.2S23.1,221.4,15.2,221.4z"/>
		</g>
	</g>
	<g>
		<circle class="st2" cx="79.5" cy="198.8" r="7.2"/>
	</g>
	<g>
		<circle class="st2" cx="79.5" cy="126.3" r="7.2"/>
	</g>
	<g>
		<ellipse class="st2" cx="143.2" cy="88.8" rx="7.2" ry="7.2"/>
	</g>
	<g>
		<circle class="st2" cx="206.3" cy="126.3" r="7.2"/>
	</g>
	<g>
		<circle class="st2" cx="206.3" cy="200.3" r="7.2"/>
	</g>
	<g>
		<circle class="st2" cx="142.9" cy="236.7" r="7.2"/>
	</g>
	<g>
		<circle class="st2" cx="142.7" cy="59.3" r="4"/>
		<path class="st2" d="M142.7,63.8c-2.5,0-4.5-2-4.5-4.5s2-4.5,4.5-4.5s4.5,2,4.5,4.5S145,63.8,142.7,63.8z M142.7,55.8
			c-1.9,0-3.5,1.6-3.5,3.5s1.6,3.5,3.5,3.5s3.5-1.6,3.5-3.5S144.5,55.8,142.7,55.8z"/>
	</g>
	<g>
		<circle class="st2" cx="142.7" cy="268.8" r="4"/>
		<path class="st2" d="M142.7,273.3c-2.5,0-4.5-2-4.5-4.5s2-4.5,4.5-4.5s4.5,2,4.5,4.5S145,273.3,142.7,273.3z M142.7,265.3
			c-1.9,0-3.5,1.6-3.5,3.5s1.6,3.5,3.5,3.5s3.5-1.6,3.5-3.5S144.5,265.3,142.7,265.3z"/>
	</g>
	<g>
		<g>
			<circle class="st2" cx="234.7" cy="215.2" r="4"/>
			<path class="st2" d="M234.7,219.7c-2.5,0-4.5-2-4.5-4.5s2-4.5,4.5-4.5s4.5,2,4.5,4.5S237.1,219.7,234.7,219.7z M234.7,211.7
				c-1.9,0-3.5,1.6-3.5,3.5s1.6,3.5,3.5,3.5s3.5-1.6,3.5-3.5S236.5,211.7,234.7,211.7z"/>
		</g>
		<g>
			<circle class="st2" cx="49.8" cy="215.2" r="4"/>
			<path class="st2" d="M49.8,219.7c-2.5,0-4.5-2-4.5-4.5s2-4.5,4.5-4.5s4.5,2,4.5,4.5S52.3,219.7,49.8,219.7z M49.8,211.7
				c-1.9,0-3.5,1.6-3.5,3.5s1.6,3.5,3.5,3.5s3.5-1.6,3.5-3.5S51.8,211.7,49.8,211.7z"/>
		</g>
		<g>
			<circle class="st2" cx="233.4" cy="111.8" r="4"/>
			<path class="st2" d="M233.4,116.3c-2.5,0-4.5-2-4.5-4.5s2-4.5,4.5-4.5s4.5,2,4.5,4.5S235.9,116.3,233.4,116.3z M233.4,108.3
				c-1.9,0-3.5,1.6-3.5,3.5s1.6,3.5,3.5,3.5s3.5-1.6,3.5-3.5S235.4,108.3,233.4,108.3z"/>
		</g>
		<g>
			<circle class="st2" cx="52.8" cy="110.8" r="4"/>
			<path class="st2" d="M52.8,115.3c-2.5,0-4.5-2-4.5-4.5s2-4.5,4.5-4.5s4.5,2,4.5,4.5S55.3,115.3,52.8,115.3z M52.8,107.3
				c-1.9,0-3.5,1.6-3.5,3.5s1.6,3.5,3.5,3.5s3.5-1.6,3.5-3.5S54.8,107.3,52.8,107.3z"/>
		</g>
	</g>
	<g>
		<ellipse transform="matrix(0.6408 -0.7677 0.7677 0.6408 39.6798 115.2466)" class="st2" cx="143" cy="15.2" rx="7.2" ry="7.2"/>
	</g>
	<g>
		<circle class="st2" cx="143" cy="310.3" r="7.2"/>
	</g>
	<g>
		<circle class="st2" cx="270.5" cy="88.2" r="7.2"/>
	</g>
	<g>
		<circle class="st2" cx="270.5" cy="235.6" r="7.2"/>
	</g>
	<g>
		
			<ellipse transform="matrix(0.9951 -9.854741e-02 9.854741e-02 0.9951 -23.1428 2.6444)" class="st2" cx="15.2" cy="235.6" rx="7.2" ry="7.2"/>
	</g>
	<g>
		<circle class="st2" cx="15.2" cy="88.2" r="7.2"/>
	</g>
	<g>
		<g>
			<path class="st2" d="M256,233.7l-226.2-0.2c0.1,0.7,0.2,1.4,0.2,2.1c0,0.3,0,0.6,0,0.9l226,0.2c0-0.4-0.1-0.7-0.1-1.1
				C255.9,235,255.9,234.3,256,233.7z"/>
			<path class="st2" d="M23.4,223.4L137.1,28.7c-0.9-0.4-1.8-0.9-2.6-1.5L20.8,222C21.7,222.4,22.6,222.8,23.4,223.4z"/>
		</g>
		<path class="st2" d="M151,27.5c-0.8,0.6-1.7,1-2.7,1.4L262,223.7c0.8-0.6,1.7-1.1,2.6-1.5L151,27.5z"/>
	</g>
</g>
<path class="st2" d="M169.1,188.7l-24.4,14.4l-0.2-0.5l17.1-48.3L169.1,188.7z M160.3,148.3l-17.5,49.3l-17.7-49.8l17.6-23.4
	L160.3,148.3z M123.6,153.6l17.4,49l-0.2,0.6l-24.2-14.5L123.6,153.6z"/>
</svg>
