<?xml version="1.0" encoding="utf-8"?>
<!-- Generator: Adobe Illustrator 22.0.1, SVG Export Plug-In . SVG Version: 6.00 Build 0)  -->
<svg version="1.1" id="Layer_1" xmlns="http://www.w3.org/2000/svg" xmlns:xlink="http://www.w3.org/1999/xlink" x="0px" y="0px"
	 viewBox="0 0 500 500" style="enable-background:new 0 0 500 500;" xml:space="preserve">
<style type="text/css">
	.st0{display:none;}
	.st1{display:inline;}
	.st2{fill:#FFFFFF;}
</style>
<g id="Layer_1_1_" class="st0">
	<g class="st1">
		<path d="M250,322.7l-63.4-36.6v-73.2l0.3-0.2l63.1-36.4l63.4,36.6v73.2l-0.3,0.2L250,322.7z M187.8,285.4l62.2,35.9l62.2-35.9
			v-71.8L250,177.7l-62.2,35.9V285.4z"/>
	</g>
	<g class="st1">
		<path d="M377.4,323.6H122.6c-0.2,0-0.4-0.1-0.5-0.3c-0.1-0.2-0.1-0.4,0-0.6l127.4-220.6c0.2-0.4,0.8-0.4,1,0l127.4,220.6
			c0.1,0.2,0.1,0.4,0,0.6C377.8,323.5,377.6,323.6,377.4,323.6z M123.7,322.4h252.7L250,103.6L123.7,322.4z"/>
	</g>
	<g class="st1">
		<path d="M250,398.8L121.6,176.4h256.9L250,398.8z M123.7,177.6L250,396.4l126.3-218.8L123.7,177.6L123.7,177.6z"/>
	</g>
	<g class="st1">
		<path d="M375,322.4l-2.1-1.2l0.6-1l2.1,1.2L375,322.4z M370.8,319.9l-2.1-1.2l0.6-1l2.1,1.2L370.8,319.9z M366.7,317.5l-2.1-1.2
			l0.6-1l2.1,1.2L366.7,317.5z M362.5,315.1l-2.1-1.2l0.6-1l2.1,1.2L362.5,315.1z M358.3,312.7l-2.1-1.2l0.6-1l2.1,1.2L358.3,312.7z
			 M354.1,310.3l-2.1-1.2l0.6-1l2.1,1.2L354.1,310.3z M350,307.9l-2.1-1.2l0.6-1l2.1,1.2L350,307.9z M345.8,305.5l-2.1-1.2l0.6-1
			l2.1,1.2L345.8,305.5z M341.6,303.1l-2.1-1.2l0.6-1l2.1,1.2L341.6,303.1z M337.4,300.7l-2.1-1.2l0.6-1l2.1,1.2L337.4,300.7z
			 M333.3,298.2l-2.1-1.2l0.6-1l2.1,1.2L333.3,298.2z M329.1,295.8l-2.1-1.2l0.6-1l2.1,1.2L329.1,295.8z M324.9,293.4l-2.1-1.2
			l0.6-1l2.1,1.2L324.9,293.4z M320.7,291l-2.1-1.2l0.6-1l2.1,1.2L320.7,291z M316.5,288.6l-2.1-1.2l0.6-1l2.1,1.2L316.5,288.6z
			 M312.4,286.2l-2.1-1.2l0.6-1l2.1,1.2L312.4,286.2z M308.2,283.8l-2.1-1.2l0.6-1l2.1,1.2L308.2,283.8z M304,281.4l-2.1-1.2l0.6-1
			l2.1,1.2L304,281.4z M299.8,278.9l-2.1-1.2l0.6-1l2.1,1.2L299.8,278.9z M295.7,276.5l-2.1-1.2l0.6-1l2.1,1.2L295.7,276.5z
			 M291.5,274.1l-2.1-1.2l0.6-1l2.1,1.2L291.5,274.1z M287.3,271.7l-2.1-1.2l0.6-1l2.1,1.2L287.3,271.7z M283.1,269.3l-2.1-1.2
			l0.6-1l2.1,1.2L283.1,269.3z M279,266.9l-2.1-1.2l0.6-1l2.1,1.2L279,266.9z M274.8,264.5l-2.1-1.2l0.6-1l2.1,1.2L274.8,264.5z
			 M270.6,262.1l-2.1-1.2l0.6-1l2.1,1.2L270.6,262.1z M266.4,259.7l-2.1-1.2l0.6-1l2.1,1.2L266.4,259.7z M262.2,257.2l-2.1-1.2
			l0.6-1l2.1,1.2L262.2,257.2z M258.1,254.8l-2.1-1.2l0.6-1l2.1,1.2L258.1,254.8z M253.9,252.4l-2.1-1.2l0.6-1l2.1,1.2L253.9,252.4z
			 M249.7,250l-0.3-0.2v-0.4V247h1.2v2.4H250L249.7,250z M250.6,244.7h-1.2v-2.4h1.2V244.7z M250.6,239.8h-1.2v-2.4h1.2V239.8z
			 M250.6,235h-1.2v-2.4h1.2V235z M250.6,230.2h-1.2v-2.4h1.2V230.2z M250.6,225.4h-1.2V223h1.2V225.4z M250.6,220.6h-1.2v-2.4h1.2
			V220.6z M250.6,215.7h-1.2v-2.4h1.2V215.7z M250.6,210.9h-1.2v-2.4h1.2V210.9z M250.6,206.1h-1.2v-2.4h1.2V206.1z M250.6,201.3
			h-1.2v-2.4h1.2V201.3z M250.6,196.4h-1.2V194h1.2V196.4z M250.6,191.6h-1.2v-2.4h1.2V191.6z M250.6,186.8h-1.2v-2.4h1.2V186.8z
			 M250.6,182h-1.2v-2.4h1.2V182z M250.6,177.1h-1.2v-2.4h1.2V177.1z M250.6,172.3h-1.2v-2.4h1.2V172.3z M250.6,167.5h-1.2v-2.4h1.2
			V167.5z M250.6,162.7h-1.2v-2.4h1.2V162.7z M250.6,157.9h-1.2v-2.4h1.2V157.9z M250.6,153h-1.2v-2.4h1.2V153z M250.6,148.2h-1.2
			v-2.4h1.2V148.2z M250.6,143.4h-1.2V141h1.2V143.4z M250.6,138.6h-1.2v-2.4h1.2V138.6z M250.6,133.7h-1.2v-2.4h1.2V133.7z
			 M250.6,128.9h-1.2v-2.4h1.2V128.9z M250.6,124.1h-1.2v-2.4h1.2V124.1z M250.6,119.3h-1.2v-2.4h1.2V119.3z M250.6,114.4h-1.2V112
			h1.2V114.4z M250.6,109.6h-1.2v-2.4h1.2V109.6z M250.6,104.8h-1.2v-2.4h1.2V104.8z"/>
	</g>
	<g class="st1">
		<path d="M250,250.2l-1.9-1.1l0.6-1l1.3,0.8l0.2-0.1l0.6,1L250,250.2z M252.9,248.5l-0.6-1l2.1-1.2l0.6,1L252.9,248.5z M246,247.9
			l-2.1-1.2l0.6-1l2.1,1.2L246,247.9z M257.1,246.2l-0.6-1l2.1-1.2l0.6,1L257.1,246.2z M241.8,245.5l-2.1-1.2l0.6-1l2.1,1.2
			L241.8,245.5z M261.2,243.8l-0.6-1l2.1-1.2l0.6,1L261.2,243.8z M237.6,243.1l-2.1-1.2l0.6-1l2.1,1.2L237.6,243.1z M265.4,241.4
			l-0.6-1l2.1-1.2l0.6,1L265.4,241.4z M233.4,240.7l-2.1-1.2l0.6-1l2.1,1.2L233.4,240.7z M269.6,239l-0.6-1l2.1-1.2l0.6,1L269.6,239
			z M229.2,238.3l-2.1-1.2l0.6-1l2.1,1.2L229.2,238.3z M273.8,236.6l-0.6-1l2.1-1.2l0.6,1L273.8,236.6z M225,236l-2.1-1.2l0.6-1
			l2.1,1.2L225,236z M278,234.2l-0.6-1l2.1-1.2l0.6,1L278,234.2z M220.8,233.6l-2.1-1.2l0.6-1l2.1,1.2L220.8,233.6z M282.2,231.8
			l-0.6-1l2.1-1.2l0.6,1L282.2,231.8z M216.6,231.2l-2.1-1.2l0.6-1l2.1,1.2L216.6,231.2z M286.4,229.5l-0.6-1l2.1-1.2l0.6,1
			L286.4,229.5z M212.4,228.8l-2.1-1.2l0.6-1l2.1,1.2L212.4,228.8z M290.6,227.1l-0.6-1l2.1-1.2l0.6,1L290.6,227.1z M208.3,226.4
			l-2.1-1.2l0.6-1l2.1,1.2L208.3,226.4z M294.8,224.7l-0.6-1l2.1-1.2l0.6,1L294.8,224.7z M204.1,224l-2.1-1.2l0.6-1l2.1,1.2
			L204.1,224z M299,222.3l-0.6-1l2.1-1.2l0.6,1L299,222.3z M199.9,221.6l-2.1-1.2l0.6-1l2.1,1.2L199.9,221.6z M303.2,219.9l-0.6-1
			l2.1-1.2l0.6,1L303.2,219.9z M195.7,219.3l-2.1-1.2l0.6-1l2.1,1.2L195.7,219.3z M307.4,217.5l-0.6-1l2.1-1.2l0.6,1L307.4,217.5z
			 M191.5,216.9l-2.1-1.2l0.6-1l2.1,1.2L191.5,216.9z M311.5,215.1l-0.6-1l2.1-1.2l0.6,1L311.5,215.1z M187.3,214.5l-2.1-1.2l0.6-1
			l2.1,1.2L187.3,214.5z M315.7,212.8l-0.6-1l2.1-1.2l0.6,1L315.7,212.8z M183.1,212.1l-2.1-1.2l0.6-1l2.1,1.2L183.1,212.1z
			 M319.9,210.4l-0.6-1l2.1-1.2l0.6,1L319.9,210.4z M178.9,209.7l-2.1-1.2l0.6-1l2.1,1.2L178.9,209.7z M324.1,208l-0.6-1l2.1-1.2
			l0.6,1L324.1,208z M174.7,207.3l-2.1-1.2l0.6-1l2.1,1.2L174.7,207.3z M328.3,205.6l-0.6-1l2.1-1.2l0.6,1L328.3,205.6z
			 M170.5,204.9l-2.1-1.2l0.6-1l2.1,1.2L170.5,204.9z M332.5,203.2l-0.6-1l2.1-1.2l0.6,1L332.5,203.2z M166.3,202.6l-2.1-1.2l0.6-1
			l2.1,1.2L166.3,202.6z M336.7,200.8l-0.6-1l2.1-1.2l0.6,1L336.7,200.8z M162.1,200.2L160,199l0.6-1l2.1,1.2L162.1,200.2z
			 M340.9,198.4l-0.6-1l2.1-1.2l0.6,1L340.9,198.4z M158,197.8l-2.1-1.2l0.6-1l2.1,1.2L158,197.8z M345.1,196.1l-0.6-1l2.1-1.2
			l0.6,1L345.1,196.1z M153.8,195.4l-2.1-1.2l0.6-1l2.1,1.2L153.8,195.4z M349.3,193.7l-0.6-1l2.1-1.2l0.6,1L349.3,193.7z
			 M149.6,193l-2.1-1.2l0.6-1l2.1,1.2L149.6,193z M353.5,191.3l-0.6-1l2.1-1.2l0.6,1L353.5,191.3z M145.4,190.6l-2.1-1.2l0.6-1
			l2.1,1.2L145.4,190.6z M357.7,188.9l-0.6-1l2.1-1.2l0.6,1L357.7,188.9z M141.2,188.2l-2.1-1.2l0.6-1l2.1,1.2L141.2,188.2z
			 M361.8,186.5l-0.6-1l2.1-1.2l0.6,1L361.8,186.5z M137,185.9l-2.1-1.2l0.6-1l2.1,1.2L137,185.9z M366,184.1l-0.6-1l2.1-1.2l0.6,1
			L366,184.1z M132.8,183.5l-2.1-1.2l0.6-1l2.1,1.2L132.8,183.5z M370.2,181.7l-0.6-1l2.1-1.2l0.6,1L370.2,181.7z M128.6,181.1
			l-2.1-1.2l0.6-1l2.1,1.2L128.6,181.1z M374.4,179.4l-0.6-1l2.1-1.2l0.6,1L374.4,179.4z M124.4,178.7l-2.1-1.2l0.6-1l2.1,1.2
			L124.4,178.7z"/>
	</g>
	<g class="st1">
		<path d="M250.6,397.6h-1.2v-1h1.2V397.6z M250.6,394.2h-1.2v-2.4h1.2V394.2z M250.6,389.4h-1.2V387h1.2V389.4z M250.6,384.5h-1.2
			v-2.4h1.2V384.5z M250.6,379.7h-1.2v-2.4h1.2V379.7z M250.6,374.9h-1.2v-2.4h1.2V374.9z M250.6,370.1h-1.2v-2.4h1.2V370.1z
			 M250.6,365.2h-1.2v-2.4h1.2V365.2z M250.6,360.4h-1.2V358h1.2V360.4z M250.6,355.6h-1.2v-2.4h1.2V355.6z M250.6,350.8h-1.2v-2.4
			h1.2V350.8z M250.6,346h-1.2v-2.4h1.2V346z M250.6,341.1h-1.2v-2.4h1.2V341.1z M250.6,336.3h-1.2v-2.4h1.2V336.3z M250.6,331.5
			h-1.2v-2.4h1.2V331.5z M250.6,326.7h-1.2v-2.4h1.2V326.7z M122.9,323.5l-0.6-1l2.1-1.2l0.6,1L122.9,323.5z M250.6,321.8h-1.2v-2.4
			h1.2V321.8z M127.1,321.1l-0.6-1l2.1-1.2l0.6,1L127.1,321.1z M131.3,318.7l-0.6-1l2.1-1.2l0.6,1L131.3,318.7z M250.6,317h-1.2
			v-2.4h1.2V317z M135.5,316.3l-0.6-1l2.1-1.2l0.6,1L135.5,316.3z M139.6,313.9l-0.6-1l2.1-1.2l0.6,1L139.6,313.9z M250.6,312.2
			h-1.2v-2.4h1.2V312.2z M143.8,311.5l-0.6-1l2.1-1.2l0.6,1L143.8,311.5z M148,309.1l-0.6-1l2.1-1.2l0.6,1L148,309.1z M250.6,307.4
			h-1.2V305h1.2V307.4z M152.2,306.7l-0.6-1l2.1-1.2l0.6,1L152.2,306.7z M156.3,304.2l-0.6-1l2.1-1.2l0.6,1L156.3,304.2z
			 M250.6,302.5h-1.2v-2.4h1.2V302.5z M160.5,301.8l-0.6-1l2.1-1.2l0.6,1L160.5,301.8z M164.7,299.4l-0.6-1l2.1-1.2l0.6,1
			L164.7,299.4z M250.6,297.7h-1.2v-2.4h1.2V297.7z M168.9,297l-0.6-1l2.1-1.2l0.6,1L168.9,297z M173,294.6l-0.6-1l2.1-1.2l0.6,1
			L173,294.6z M250.6,292.9h-1.2v-2.4h1.2V292.9z M177.2,292.2l-0.6-1l2.1-1.2l0.6,1L177.2,292.2z M181.4,289.8l-0.6-1l2.1-1.2
			l0.6,1L181.4,289.8z M250.6,288.1h-1.2v-2.4h1.2V288.1z M185.6,287.4l-0.6-1l2.1-1.2l0.6,1L185.6,287.4z M189.8,285l-0.6-1
			l2.1-1.2l0.6,1L189.8,285z M250.6,283.3h-1.2v-2.4h1.2V283.3z M193.9,282.5l-0.6-1l2.1-1.2l0.6,1L193.9,282.5z M198.1,280.1
			l-0.6-1l2.1-1.2l0.6,1L198.1,280.1z M250.6,278.4h-1.2V276h1.2V278.4z M202.3,277.7l-0.6-1l2.1-1.2l0.6,1L202.3,277.7z
			 M206.5,275.3l-0.6-1l2.1-1.2l0.6,1L206.5,275.3z M250.6,273.6h-1.2v-2.4h1.2V273.6z M210.6,272.9l-0.6-1l2.1-1.2l0.6,1
			L210.6,272.9z M214.8,270.5l-0.6-1l2.1-1.2l0.6,1L214.8,270.5z M250.6,268.8h-1.2v-2.4h1.2V268.8z M219,268.1l-0.6-1l2.1-1.2
			l0.6,1L219,268.1z M223.2,265.7l-0.6-1l2.1-1.2l0.6,1L223.2,265.7z M250.6,264h-1.2v-2.4h1.2V264z M227.3,263.3l-0.6-1l2.1-1.2
			l0.6,1L227.3,263.3z M231.5,260.8l-0.6-1l2.1-1.2l0.6,1L231.5,260.8z M250.6,259.1h-1.2v-2.4h1.2V259.1z M235.7,258.4l-0.6-1
			l2.1-1.2l0.6,1L235.7,258.4z M239.9,256l-0.6-1l2.1-1.2l0.6,1L239.9,256z M250.6,254.3h-1.2v-2.4h1.2V254.3z M244.1,253.6l-0.6-1
			l2.1-1.2l0.6,1L244.1,253.6z M248.2,251.2l-0.6-1l3-1.7v1H250l0.3,0.5L248.2,251.2z"/>
	</g>
	<g class="st1">
		<path d="M250,398.3l-2-1.2l0.6-1l1.4,0.8l0.1-0.1l0.1,0.2l0.1,0.1v0.1l0.4,0.7L250,398.3z M252.8,396.7l-0.6-1l2.1-1.2l0.6,1
			L252.8,396.7z M245.9,395.9l-2.1-1.2l0.6-1l2.1,1.2L245.9,395.9z M256.9,394.2l-0.6-1l2.1-1.2l0.6,1L256.9,394.2z M241.8,393.5
			l-2.1-1.2l0.6-1l2.1,1.2L241.8,393.5z M261.1,391.8l-0.6-1l2.1-1.2l0.6,1L261.1,391.8z M237.6,391l-2.1-1.2l0.6-1l2.1,1.2
			L237.6,391z M265.3,389.4l-0.6-1l2.1-1.2l0.6,1L265.3,389.4z M233.4,388.6l-2.1-1.2l0.6-1l2.1,1.2L233.4,388.6z M269.4,386.9
			l-0.6-1l2.1-1.2l0.6,1L269.4,386.9z M229.3,386.2l-2.1-1.2l0.6-1l2.1,1.2L229.3,386.2z M273.6,384.5l-0.6-1l2.1-1.2l0.6,1
			L273.6,384.5z M225.1,383.7l-2.1-1.2l0.6-1l2.1,1.2L225.1,383.7z M277.8,382.1l-0.6-1l2.1-1.2l0.6,1L277.8,382.1z M221,381.3
			l-2.1-1.2l0.6-1l2.1,1.2L221,381.3z M281.9,379.6l-0.6-1l2.1-1.2l0.6,1L281.9,379.6z M216.8,378.9l-2.1-1.2l0.6-1l2.1,1.2
			L216.8,378.9z M286.1,377.2l-0.6-1l2.1-1.2l0.6,1L286.1,377.2z M212.6,376.4l-2.1-1.2l0.6-1l2.1,1.2L212.6,376.4z M290.2,374.7
			l-0.6-1l2.1-1.2l0.6,1L290.2,374.7z M208.5,374l-2.1-1.2l0.6-1l2.1,1.2L208.5,374z M294.4,372.3l-0.6-1l2.1-1.2l0.6,1L294.4,372.3
			z M204.3,371.6l-2.1-1.2l0.6-1l2.1,1.2L204.3,371.6z M298.6,369.9l-0.6-1l2.1-1.2l0.6,1L298.6,369.9z M200.1,369.1l-2.1-1.2l0.6-1
			l2.1,1.2L200.1,369.1z M302.7,367.4l-0.6-1l2.1-1.2l0.6,1L302.7,367.4z M196,366.7l-2.1-1.2l0.6-1l2.1,1.2L196,366.7z M306.9,365
			l-0.6-1l2.1-1.2l0.6,1L306.9,365z M191.8,364.2l-2.1-1.2l0.6-1l2.1,1.2L191.8,364.2z M311,362.6l-0.6-1l2.1-1.2l0.6,1L311,362.6z
			 M187.7,361.8l-2.1-1.2l0.6-1l2.1,1.2L187.7,361.8z M315.2,360.1l-0.6-1l2.1-1.2l0.6,1L315.2,360.1z M183.5,359.4l-2.1-1.2l0.6-1
			l2.1,1.2L183.5,359.4z M319.4,357.7l-0.6-1l2.1-1.2l0.6,1L319.4,357.7z M179.3,356.9l-2.1-1.2l0.6-1l2.1,1.2L179.3,356.9z
			 M323.5,355.2l-0.6-1l2.1-1.2l0.6,1L323.5,355.2z M175.2,354.5l-2.1-1.2l0.6-1l2.1,1.2L175.2,354.5z M327.7,352.8l-0.6-1l2.1-1.2
			l0.6,1L327.7,352.8z M171,352.1l-2.1-1.2l0.6-1l2.1,1.2L171,352.1z M331.9,350.4l-0.6-1l2.1-1.2l0.6,1L331.9,350.4z M166.8,349.6
			l-2.1-1.2l0.6-1l2.1,1.2L166.8,349.6z M336,347.9l-0.6-1l2.1-1.2l0.6,1L336,347.9z M162.7,347.2l-2.1-1.2l0.6-1l2.1,1.2
			L162.7,347.2z M340.2,345.5l-0.6-1l2.1-1.2l0.6,1L340.2,345.5z M158.5,344.7l-2.1-1.2l0.6-1l2.1,1.2L158.5,344.7z M344.3,343.1
			l-0.6-1l2.1-1.2l0.6,1L344.3,343.1z M154.4,342.3l-2.1-1.2l0.6-1l2.1,1.2L154.4,342.3z M348.5,340.6l-0.6-1l2.1-1.2l0.6,1
			L348.5,340.6z M150.2,339.9l-2.1-1.2l0.6-1l2.1,1.2L150.2,339.9z M352.7,338.2l-0.6-1l2.1-1.2l0.6,1L352.7,338.2z M146,337.4
			l-2.1-1.2l0.6-1l2.1,1.2L146,337.4z M356.8,335.8l-0.6-1l2.1-1.2l0.6,1L356.8,335.8z M141.9,335l-2.1-1.2l0.6-1l2.1,1.2L141.9,335
			z M361,333.3l-0.6-1l2.1-1.2l0.6,1L361,333.3z M137.7,332.6l-2.1-1.2l0.6-1l2.1,1.2L137.7,332.6z M365.2,330.9l-0.6-1l2.1-1.2
			l0.6,1L365.2,330.9z M133.6,330.1l-2.1-1.2l0.6-1l2.1,1.2L133.6,330.1z M369.3,328.4l-0.6-1l2.1-1.2l0.6,1L369.3,328.4z
			 M129.4,327.7l-2.1-1.2l0.6-1l2.1,1.2L129.4,327.7z M373.5,326l-0.6-1l2.1-1.2l0.6,1L373.5,326z M125.2,325.2l-2.1-1.2l0.6-1
			l2.1,1.2L125.2,325.2z M377.7,323.5l-0.3-0.5h-0.6v-2.4h1.2v2.7L377.7,323.5z M123.2,321.6H122v-2.4h1.2V321.6z M378,318.2h-1.2
			v-2.4h1.2V318.2z M123.2,316.8H122v-2.4h1.2V316.8z M378,313.4h-1.2V311h1.2V313.4z M123.2,311.9H122v-2.4h1.2V311.9z M378,308.6
			h-1.2v-2.4h1.2V308.6z M123.2,307.1H122v-2.4h1.2V307.1z M378,303.8h-1.2v-2.4h1.2V303.8z M123.2,302.3H122v-2.4h1.2V302.3z
			 M378,299h-1.2v-2.4h1.2V299z M123.2,297.5H122V295h1.2V297.5z M378,294.1h-1.2v-2.4h1.2V294.1z M123.2,292.6H122v-2.4h1.2V292.6z
			 M378,289.3h-1.2v-2.4h1.2V289.3z M123.2,287.8H122v-2.4h1.2V287.8z M378,284.5h-1.2v-2.4h1.2V284.5z M123.2,283H122v-2.4h1.2V283
			z M378,279.7h-1.2v-2.4h1.2V279.7z M123.2,278.2H122v-2.4h1.2V278.2z M378,274.8h-1.2v-2.4h1.2V274.8z M123.2,273.3H122v-2.4h1.2
			V273.3z M378,270h-1.2v-2.4h1.2V270z M123.2,268.5H122v-2.4h1.2V268.5z M378,265.2h-1.2v-2.4h1.2V265.2z M123.2,263.7H122v-2.4
			h1.2V263.7z M378,260.4h-1.2V258h1.2V260.4z M123.2,258.9H122v-2.4h1.2V258.9z M378,255.5h-1.2v-2.4h1.2V255.5z M123.2,254H122
			v-2.4h1.2V254z M378,250.7h-1.2v-2.4h1.2V250.7z M123.2,249.2H122v-2.4h1.2V249.2z M378,245.9h-1.2v-2.4h1.2V245.9z M123.2,244.4
			H122V242h1.2V244.4z M378,241.1h-1.2v-2.4h1.2V241.1z M123.2,239.6H122v-2.4h1.2V239.6z M378,236.3h-1.2v-2.4h1.2V236.3z
			 M123.2,234.8H122v-2.4h1.2V234.8z M378,231.4h-1.2V229h1.2V231.4z M123.2,229.9H122v-2.4h1.2V229.9z M378,226.6h-1.2v-2.4h1.2
			V226.6z M123.2,225.1H122v-2.4h1.2V225.1z M378,221.8h-1.2v-2.4h1.2V221.8z M123.2,220.3H122v-2.4h1.2V220.3z M378,217h-1.2v-2.4
			h1.2V217z M123.2,215.5H122v-2.4h1.2V215.5z M378,212.1h-1.2v-2.4h1.2V212.1z M123.2,210.6H122v-2.4h1.2V210.6z M378,207.3h-1.2
			v-2.4h1.2V207.3z M123.2,205.8H122v-2.4h1.2V205.8z M378,202.5h-1.2v-2.4h1.2V202.5z M123.2,201H122v-2.4h1.2V201z M378,197.7
			h-1.2v-2.4h1.2V197.7z M123.2,196.2H122v-2.4h1.2V196.2z M378,192.8h-1.2v-2.4h1.2V192.8z M123.2,191.4H122V189h1.2V191.4z
			 M378,188h-1.2v-2.4h1.2V188z M123.2,186.5H122v-2.4h1.2V186.5z M378,183.2h-1.2v-2.4h1.2V183.2z M123.2,181.7H122v-2.4h1.2V181.7
			z M378,178.4h-1.2v-1.1l-0.6-0.3l0.6-1l1.2,0.7V178.4z M122.9,177.5l-0.6-1l2.1-1.2l0.6,1L122.9,177.5z M374.1,175.8l-2.1-1.2
			l0.6-1l2.1,1.2L374.1,175.8z M127.1,175.1l-0.6-1l2.1-1.2l0.6,1L127.1,175.1z M370,173.3l-2.1-1.2l0.6-1l2.1,1.2L370,173.3z
			 M131.2,172.6l-0.6-1l2.1-1.2l0.6,1L131.2,172.6z M365.8,170.9l-2.1-1.2l0.6-1l2.1,1.2L365.8,170.9z M135.4,170.2l-0.6-1l2.1-1.2
			l0.6,1L135.4,170.2z M361.6,168.5l-2.1-1.2l0.6-1l2.1,1.2L361.6,168.5z M139.6,167.8l-0.6-1l2.1-1.2l0.6,1L139.6,167.8z
			 M357.5,166l-2.1-1.2l0.6-1l2.1,1.2L357.5,166z M143.7,165.3l-0.6-1l2.1-1.2l0.6,1L143.7,165.3z M353.3,163.6l-2.1-1.2l0.6-1
			l2.1,1.2L353.3,163.6z M147.9,162.9l-0.6-1l2.1-1.2l0.6,1L147.9,162.9z M349.1,161.1l-2.1-1.2l0.6-1l2.1,1.2L349.1,161.1z
			 M152.1,160.4l-0.6-1l2.1-1.2l0.6,1L152.1,160.4z M345,158.7l-2.1-1.2l0.6-1l2.1,1.2L345,158.7z M156.2,158l-0.6-1l2.1-1.2l0.6,1
			L156.2,158z M340.8,156.3l-2.1-1.2l0.6-1l2.1,1.2L340.8,156.3z M160.4,155.6l-0.6-1l2.1-1.2l0.6,1L160.4,155.6z M336.7,153.8
			l-2.1-1.2l0.6-1l2.1,1.2L336.7,153.8z M164.5,153.1l-0.6-1l2.1-1.2l0.6,1L164.5,153.1z M332.5,151.4l-2.1-1.2l0.6-1l2.1,1.2
			L332.5,151.4z M168.7,150.7l-0.6-1l2.1-1.2l0.6,1L168.7,150.7z M328.3,149l-2.1-1.2l0.6-1l2.1,1.2L328.3,149z M172.9,148.3l-0.6-1
			l2.1-1.2l0.6,1L172.9,148.3z M324.2,146.5l-2.1-1.2l0.6-1l2.1,1.2L324.2,146.5z M177,145.8l-0.6-1l2.1-1.2l0.6,1L177,145.8z
			 M320,144.1l-2.1-1.2l0.6-1l2.1,1.2L320,144.1z M181.2,143.4l-0.6-1l2.1-1.2l0.6,1L181.2,143.4z M315.8,141.6l-2.1-1.2l0.6-1
			l2.1,1.2L315.8,141.6z M185.4,140.9l-0.6-1l2.1-1.2l0.6,1L185.4,140.9z M311.7,139.2l-2.1-1.2l0.6-1l2.1,1.2L311.7,139.2z
			 M189.5,138.5l-0.6-1l2.1-1.2l0.6,1L189.5,138.5z M307.5,136.8l-2.1-1.2l0.6-1l2.1,1.2L307.5,136.8z M193.7,136.1l-0.6-1l2.1-1.2
			l0.6,1L193.7,136.1z M303.4,134.3l-2.1-1.2l0.6-1l2.1,1.2L303.4,134.3z M197.8,133.6l-0.6-1l2.1-1.2l0.6,1L197.8,133.6z
			 M299.2,131.9l-2.1-1.2l0.6-1l2.1,1.2L299.2,131.9z M202,131.2l-0.6-1l2.1-1.2l0.6,1L202,131.2z M295,129.5l-2.1-1.2l0.6-1
			l2.1,1.2L295,129.5z M206.2,128.8l-0.6-1l2.1-1.2l0.6,1L206.2,128.8z M290.9,127l-2.1-1.2l0.6-1l2.1,1.2L290.9,127z M210.3,126.3
			l-0.6-1l2.1-1.2l0.6,1L210.3,126.3z M286.7,124.6l-2.1-1.2l0.6-1l2.1,1.2L286.7,124.6z M214.5,123.9l-0.6-1l2.1-1.2l0.6,1
			L214.5,123.9z M282.6,122.2l-2.1-1.2l0.6-1l2.1,1.2L282.6,122.2z M218.7,121.4l-0.6-1l2.1-1.2l0.6,1L218.7,121.4z M278.4,119.7
			l-2.1-1.2l0.6-1l2.1,1.2L278.4,119.7z M222.8,119l-0.6-1l2.1-1.2l0.6,1L222.8,119z M274.2,117.3l-2.1-1.2l0.6-1l2.1,1.2
			L274.2,117.3z M227,116.6l-0.6-1l2.1-1.2l0.6,1L227,116.6z M270.1,114.8l-2.1-1.2l0.6-1l2.1,1.2L270.1,114.8z M231.1,114.1l-0.6-1
			l2.1-1.2l0.6,1L231.1,114.1z M265.9,112.4l-2.1-1.2l0.6-1l2.1,1.2L265.9,112.4z M235.3,111.7l-0.6-1l2.1-1.2l0.6,1L235.3,111.7z
			 M261.7,110l-2.1-1.2l0.6-1l2.1,1.2L261.7,110z M239.5,109.3l-0.6-1l2.1-1.2l0.6,1L239.5,109.3z M257.6,107.5l-2.1-1.2l0.6-1
			l2.1,1.2L257.6,107.5z M243.6,106.8l-0.6-1l2.1-1.2l0.6,1L243.6,106.8z M253.4,105.1l-2.1-1.2l0.6-1l2.1,1.2L253.4,105.1z
			 M247.8,104.4l-0.6-1l2.1-1.2l0.6,1L247.8,104.4z"/>
	</g>
	<g class="st1">
		<path d="M253.8,102.4c0,2.1-1.7,3.8-3.8,3.8s-3.8-1.7-3.8-3.8c0-2.1,1.7-3.8,3.8-3.8S253.8,100.3,253.8,102.4z"/>
	</g>
	<g class="st1">
		<circle cx="250" cy="147.8" r="3.8"/>
	</g>
	<g class="st1">
		<path d="M163.8,195.8c1.8,1.1,2.5,3.4,1.4,5.2s-3.4,2.5-5.2,1.4s-2.5-3.4-1.4-5.2C159.7,195.3,162,194.7,163.8,195.8z"/>
	</g>
	<g class="st1">
		<path d="M160,297c1.8-1.1,4.2-0.4,5.2,1.4c1.1,1.8,0.4,4.2-1.4,5.2s-4.2,0.4-5.2-1.4C157.6,300.4,158.2,298.1,160,297z"/>
	</g>
	<g class="st1">
		<path d="M246.2,351.2c0-2.1,1.7-3.8,3.8-3.8s3.8,1.7,3.8,3.8c0,2.1-1.7,3.8-3.8,3.8S246.2,353.3,246.2,351.2z"/>
	</g>
	<g class="st1">
		<path d="M336.2,303.6c-1.8-1.1-2.5-3.4-1.4-5.2c1.1-1.8,3.4-2.5,5.2-1.4c1.8,1.1,2.5,3.4,1.4,5.2
			C340.3,304.1,338,304.7,336.2,303.6z"/>
	</g>
	<g class="st1">
		<path d="M340,202.5c-1.8,1.1-4.2,0.4-5.2-1.4c-1.1-1.8-0.4-4.2,1.4-5.2c1.8-1.1,4.2-0.4,5.2,1.4
			C342.4,199.1,341.8,201.5,340,202.5z"/>
	</g>
	<g class="st1">
		<path d="M253.8,322c0,2.1-1.7,3.8-3.8,3.8s-3.8-1.7-3.8-3.8c0-2.1,1.7-3.8,3.8-3.8S253.8,319.9,253.8,322z"/>
	</g>
	<g class="st1">
		<path d="M187.2,217c-2.1,0-3.8-1.7-3.8-3.8s1.7-3.8,3.8-3.8s3.8,1.7,3.8,3.8S189.3,217,187.2,217z"/>
	</g>
	<g class="st1">
		<path d="M312.8,217c-2.1,0-3.8-1.7-3.8-3.8s1.7-3.8,3.8-3.8c2.1,0,3.8,1.7,3.8,3.8C316.6,215.3,314.9,217,312.8,217z"/>
	</g>
	<g class="st1">
		<path d="M187.2,289.5c-2.1,0-3.8-1.7-3.8-3.8c0-2.1,1.7-3.8,3.8-3.8s3.8,1.7,3.8,3.8S189.3,289.5,187.2,289.5z"/>
	</g>
	<g class="st1">
		<path d="M312.8,289.5c-2.1,0-3.8-1.7-3.8-3.8c0-2.1,1.7-3.8,3.8-3.8c2.1,0,3.8,1.7,3.8,3.8C316.6,287.8,314.9,289.5,312.8,289.5z"
			/>
	</g>
	<g class="st1">
		<path d="M381.2,177c0,2.1-1.7,3.8-3.8,3.8c-2.1,0-3.8-1.7-3.8-3.8s1.7-3.8,3.8-3.8S381.2,174.9,381.2,177z"/>
	</g>
	<g class="st1">
		<path d="M126.4,177c0,2.1-1.7,3.8-3.8,3.8c-2.1,0-3.8-1.7-3.8-3.8s1.7-3.8,3.8-3.8C124.7,173.2,126.4,174.9,126.4,177z"/>
	</g>
	<g class="st1">
		<path d="M381.2,323c0,2.1-1.7,3.8-3.8,3.8c-2.1,0-3.8-1.7-3.8-3.8c0-2.1,1.7-3.8,3.8-3.8S381.2,320.9,381.2,323z"/>
	</g>
	<g class="st1">
		<path d="M126.4,323c0,2.1-1.7,3.8-3.8,3.8c-2.1,0-3.8-1.7-3.8-3.8c0-2.1,1.7-3.8,3.8-3.8C124.7,319.2,126.4,320.9,126.4,323z"/>
	</g>
	<g class="st1">
		<path d="M253.8,397.6c0,2.1-1.7,3.8-3.8,3.8s-3.8-1.7-3.8-3.8c0-2.1,1.7-3.8,3.8-3.8C252.1,393.8,253.8,395.5,253.8,397.6z"/>
	</g>
	<g class="st1">
		<path d="M250,116.8c-7.9,0-14.4-6.5-14.4-14.4S242.1,88,250,88s14.4,6.5,14.4,14.4S257.9,116.8,250,116.8z M250,89.2
			c-7.3,0-13.2,5.9-13.2,13.2s5.9,13.2,13.2,13.2c7.3,0,13.2-5.9,13.2-13.2S257.3,89.2,250,89.2z"/>
	</g>
	<g class="st1">
		<path d="M377.4,191.4c-7.9,0-14.4-6.5-14.4-14.4s6.5-14.4,14.4-14.4s14.4,6.5,14.4,14.4S385.3,191.4,377.4,191.4z M377.4,163.8
			c-7.3,0-13.2,5.9-13.2,13.2s5.9,13.2,13.2,13.2c7.3,0,13.2-5.9,13.2-13.2S384.7,163.8,377.4,163.8z"/>
	</g>
	<g class="st1">
		<path d="M122.6,191.4c-7.9,0-14.4-6.5-14.4-14.4s6.5-14.4,14.4-14.4S137,169.1,137,177S130.6,191.4,122.6,191.4z M122.6,163.8
			c-7.3,0-13.2,5.9-13.2,13.2s5.9,13.2,13.2,13.2s13.2-5.9,13.2-13.2S129.9,163.8,122.6,163.8z"/>
	</g>
	<g class="st1">
		<path d="M377.4,337.4c-7.9,0-14.4-6.5-14.4-14.4s6.5-14.4,14.4-14.4s14.4,6.5,14.4,14.4C391.8,331,385.3,337.4,377.4,337.4z
			 M377.4,309.8c-7.3,0-13.2,5.9-13.2,13.2c0,7.3,5.9,13.2,13.2,13.2c7.3,0,13.2-5.9,13.2-13.2C390.6,315.7,384.7,309.8,377.4,309.8
			z"/>
	</g>
	<g class="st1">
		<path d="M122.6,337.4c-7.9,0-14.4-6.5-14.4-14.4s6.5-14.4,14.4-14.4S137,315.1,137,323C137,331,130.6,337.4,122.6,337.4z
			 M122.6,309.8c-7.3,0-13.2,5.9-13.2,13.2c0,7.3,5.9,13.2,13.2,13.2s13.2-5.9,13.2-13.2C135.8,315.7,129.9,309.8,122.6,309.8z"/>
	</g>
	<g class="st1">
		<path d="M250,412c-7.9,0-14.4-6.5-14.4-14.4s6.5-14.4,14.4-14.4s14.4,6.5,14.4,14.4C264.4,405.6,257.9,412,250,412z M250,384.4
			c-7.3,0-13.2,5.9-13.2,13.2c0,7.3,5.9,13.2,13.2,13.2c7.3,0,13.2-5.9,13.2-13.2S257.3,384.4,250,384.4z"/>
	</g>
	<g class="st1">
		<path d="M250,323.2l-1.6-2.7l1-0.6l1,1.8l-0.2,0.1l0.4,0.2L250,323.2z M251.9,319.9l-1-0.6l1.2-2.1l1,0.6L251.9,319.9z
			 M247.2,318.4l-1.2-2.1l1-0.6l1.2,2.1L247.2,318.4z M254.3,315.7l-1-0.6l1.2-2.1l1,0.6L254.3,315.7z M244.8,314.2l-1.2-2.1l1-0.6
			l1.2,2.1L244.8,314.2z M256.7,311.5l-1-0.6l1.2-2.1l1,0.6L256.7,311.5z M242.4,310l-1.2-2.1l1-0.6l1.2,2.1L242.4,310z
			 M259.1,307.4l-1-0.6l1.2-2.1l1,0.6L259.1,307.4z M240,305.9l-1.2-2.1l1-0.6l1.2,2.1L240,305.9z M261.5,303.2l-1-0.6l1.2-2.1
			l1,0.6L261.5,303.2z M237.6,301.7l-1.2-2.1l1-0.6l1.2,2.1L237.6,301.7z M264,299l-1-0.6l1.2-2.1l1,0.6L264,299z M235.2,297.5
			l-1.2-2.1l1-0.6l1.2,2.1L235.2,297.5z M266.4,294.8l-1-0.6l1.2-2.1l1,0.6L266.4,294.8z M232.8,293.3l-1.2-2.1l1-0.6l1.2,2.1
			L232.8,293.3z M268.8,290.7l-1-0.6l1.2-2.1l1,0.6L268.8,290.7z M230.4,289.2l-1.2-2.1l1-0.6l1.2,2.1L230.4,289.2z M271.2,286.5
			l-1-0.6l1.2-2.1l1,0.6L271.2,286.5z M227.9,285l-1.2-2.1l1-0.6l1.2,2.1L227.9,285z M273.6,282.3l-1-0.6l1.2-2.1l1,0.6L273.6,282.3
			z M225.5,280.8l-1.2-2.1l1-0.6l1.2,2.1L225.5,280.8z M276,278.1l-1-0.6l1.2-2.1l1,0.6L276,278.1z M223.1,276.6l-1.2-2.1l1-0.6
			l1.2,2.1L223.1,276.6z M278.4,274l-1-0.6l1.2-2.1l1,0.6L278.4,274z M220.7,272.4l-1.2-2.1l1-0.6l1.2,2.1L220.7,272.4z
			 M280.8,269.8l-1-0.6l1.2-2.1l1,0.6L280.8,269.8z M218.3,268.3l-1.2-2.1l1-0.6l1.2,2.1L218.3,268.3z M283.2,265.6l-1-0.6l1.2-2.1
			l1,0.6L283.2,265.6z M215.9,264.1l-1.2-2.1l1-0.6l1.2,2.1L215.9,264.1z M285.7,261.4l-1-0.6l1.2-2.1l1,0.6L285.7,261.4z
			 M213.5,259.9l-1.2-2.1l1-0.6l1.2,2.1L213.5,259.9z M288.1,257.2l-1-0.6l1.2-2.1l1,0.6L288.1,257.2z M211.1,255.7l-1.2-2.1l1-0.6
			l1.2,2.1L211.1,255.7z M290.5,253.1l-1-0.6l1.2-2.1l1,0.6L290.5,253.1z M208.6,251.6l-1.2-2.1l1-0.6l1.2,2.1L208.6,251.6z
			 M292.9,248.9l-1-0.6l1.2-2.1l1,0.6L292.9,248.9z M206.2,247.4l-1.2-2.1l1-0.6l1.2,2.1L206.2,247.4z M295.3,244.7l-1-0.6l1.2-2.1
			l1,0.6L295.3,244.7z M203.8,243.2l-1.2-2.1l1-0.6l1.2,2.1L203.8,243.2z M297.7,240.5l-1-0.6l1.2-2.1l1,0.6L297.7,240.5z
			 M201.4,239l-1.2-2.1l1-0.6l1.2,2.1L201.4,239z M300.1,236.4l-1-0.6l1.2-2.1l1,0.6L300.1,236.4z M199,234.9l-1.2-2.1l1-0.6
			l1.2,2.1L199,234.9z M302.5,232.2l-1-0.6l1.2-2.1l1,0.6L302.5,232.2z M196.6,230.7l-1.2-2.1l1-0.6l1.2,2.1L196.6,230.7z M305,228
			l-1-0.6l1.2-2.1l1,0.6L305,228z M194.2,226.5l-1.2-2.1l1-0.6l1.2,2.1L194.2,226.5z M307.4,223.8l-1-0.6l1.2-2.1l1,0.6L307.4,223.8
			z M191.8,222.3l-1.2-2.1l1-0.6l1.2,2.1L191.8,222.3z M309.8,219.7l-1-0.6l1.2-2.1l1,0.6L309.8,219.7z M189.4,218.1l-1.2-2.1l1-0.6
			l1.2,2.1L189.4,218.1z M312.2,215.5l-1-0.6l1.1-1.9l0.4,0.2v-0.5h1.2L312.2,215.5z M186.9,214l-0.8-1.3h3.5v1.2h-2.4L186.9,214z
			 M310.2,213.8h-2.4v-1.2h2.4V213.8z M305.4,213.8H303v-1.2h2.4V213.8z M300.6,213.8h-2.4v-1.2h2.4V213.8z M295.7,213.8h-2.4v-1.2
			h2.4V213.8z M290.9,213.8h-2.4v-1.2h2.4V213.8z M286.1,213.8h-2.4v-1.2h2.4V213.8z M281.3,213.8h-2.4v-1.2h2.4V213.8z
			 M276.4,213.8H274v-1.2h2.4V213.8z M271.6,213.8h-2.4v-1.2h2.4V213.8z M266.8,213.8h-2.4v-1.2h2.4V213.8z M262,213.8h-2.4v-1.2
			h2.4V213.8z M257.2,213.8h-2.4v-1.2h2.4V213.8z M252.3,213.8h-2.4v-1.2h2.4V213.8z M247.5,213.8h-2.4v-1.2h2.4V213.8z
			 M242.7,213.8h-2.4v-1.2h2.4V213.8z M237.9,213.8h-2.4v-1.2h2.4V213.8z M233,213.8h-2.4v-1.2h2.4V213.8z M228.2,213.8h-2.4v-1.2
			h2.4V213.8z M223.4,213.8H221v-1.2h2.4V213.8z M218.6,213.8h-2.4v-1.2h2.4V213.8z M213.7,213.8h-2.4v-1.2h2.4V213.8z M208.9,213.8
			h-2.4v-1.2h2.4V213.8z M204.1,213.8h-2.4v-1.2h2.4V213.8z M199.3,213.8h-2.4v-1.2h2.4V213.8z M194.5,213.8H192v-1.2h2.4v1.2H194.5
			z"/>
	</g>
	<g class="st1">
		<path d="M313.8,286.3h-3.3v-1.2h2.2v0.4l0.4-0.3L313.8,286.3z M308.1,286.3h-2.4v-1.2h2.4V286.3z M303.3,286.3h-2.4v-1.2h2.4
			V286.3z M298.5,286.3h-2.4v-1.2h2.4V286.3z M293.7,286.3h-2.4v-1.2h2.4V286.3z M288.8,286.3h-2.4v-1.2h2.4V286.3z M284,286.3h-2.4
			v-1.2h2.4V286.3z M279.2,286.3h-2.4v-1.2h2.4V286.3z M274.4,286.3H272v-1.2h2.4V286.3z M269.5,286.3h-2.4v-1.2h2.4V286.3z
			 M264.7,286.3h-2.4v-1.2h2.4V286.3z M259.9,286.3h-2.4v-1.2h2.4V286.3z M255.1,286.3h-2.4v-1.2h2.4V286.3z M250.3,286.3h-2.4v-1.2
			h2.4V286.3z M245.4,286.3H243v-1.2h2.4V286.3z M240.6,286.3h-2.4v-1.2h2.4V286.3z M235.8,286.3h-2.4v-1.2h2.4V286.3z M231,286.3
			h-2.4v-1.2h2.4V286.3z M226.1,286.3h-2.4v-1.2h2.4V286.3z M221.3,286.3h-2.4v-1.2h2.4V286.3z M216.5,286.3h-2.4v-1.2h2.4V286.3z
			 M211.7,286.3h-2.4v-1.2h2.4V286.3z M206.8,286.3h-2.4v-1.2h2.4V286.3z M202,286.3h-2.4v-1.2h2.4V286.3z M197.2,286.3h-2.4v-1.2
			h2.4V286.3z M192.4,286.3H190v-1.2h2.4V286.3z M187.6,286.3h-1.4l1.6-2.7l1,0.6l-1,1.8l-0.2-0.1L187.6,286.3L187.6,286.3z
			 M311,283.8l-1.2-2.1l1-0.6l1.2,2.1L311,283.8z M190,282.1l-1-0.6l1.2-2.1l1,0.6L190,282.1z M308.6,279.6l-1.2-2.1l1-0.6l1.2,2.1
			L308.6,279.6z M192.4,278l-1-0.6l1.2-2.1l1,0.6L192.4,278z M306.1,275.4l-1.2-2.1l1-0.6l1.2,2.1L306.1,275.4z M194.8,273.8l-1-0.6
			l1.2-2.1l1,0.6L194.8,273.8z M303.7,271.3l-1.2-2.1l1-0.6l1.2,2.1L303.7,271.3z M197.2,269.6l-1-0.6l1.2-2.1l1,0.6L197.2,269.6z
			 M301.3,267.1l-1.2-2.1l1-0.6l1.2,2.1L301.3,267.1z M199.6,265.4l-1-0.6l1.2-2.1l1,0.6L199.6,265.4z M298.9,262.9l-1.2-2.1l1-0.6
			l1.2,2.1L298.9,262.9z M202,261.3l-1-0.6l1.2-2.1l1,0.6L202,261.3z M296.5,258.7l-1.2-2.1l1-0.6l1.2,2.1L296.5,258.7z
			 M204.5,257.1l-1-0.6l1.2-2.1l1,0.6L204.5,257.1z M294.1,254.6l-1.2-2.1l1-0.6l1.2,2.1L294.1,254.6z M206.9,252.9l-1-0.6l1.2-2.1
			l1,0.6L206.9,252.9z M291.7,250.4l-1.2-2.1l1-0.6l1.2,2.1L291.7,250.4z M209.3,248.7l-1-0.6l1.2-2.1l1,0.6L209.3,248.7z
			 M289.3,246.2l-1.2-2.1l1-0.6l1.2,2.1L289.3,246.2z M211.7,244.6l-1-0.6l1.2-2.1l1,0.6L211.7,244.6z M286.9,242l-1.2-2.1l1-0.6
			l1.2,2.1L286.9,242z M214.1,240.4l-1-0.6l1.2-2.1l1,0.6L214.1,240.4z M284.4,237.8l-1.2-2.1l1-0.6l1.2,2.1L284.4,237.8z
			 M216.5,236.2l-1-0.6l1.2-2.1l1,0.6L216.5,236.2z M282,233.7l-1.2-2.1l1-0.6l1.2,2.1L282,233.7z M218.9,232l-1-0.6l1.2-2.1l1,0.6
			L218.9,232z M279.6,229.5l-1.2-2.1l1-0.6l1.2,2.1L279.6,229.5z M221.3,227.8l-1-0.6l1.2-2.1l1,0.6L221.3,227.8z M277.2,225.3
			l-1.2-2.1l1-0.6l1.2,2.1L277.2,225.3z M223.7,223.7l-1-0.6l1.2-2.1l1,0.6L223.7,223.7z M274.8,221.1l-1.2-2.1l1-0.6l1.2,2.1
			L274.8,221.1z M226.2,219.5l-1-0.6l1.2-2.1l1,0.6L226.2,219.5z M272.4,217l-1.2-2.1l1-0.6l1.2,2.1L272.4,217z M228.6,215.3l-1-0.6
			l1.2-2.1l1,0.6L228.6,215.3z M270,212.8l-1.2-2.1l1-0.6l1.2,2.1L270,212.8z M231,211.1l-1-0.6l1.2-2.1l1,0.6L231,211.1z
			 M267.6,208.6l-1.2-2.1l1-0.6l1.2,2.1L267.6,208.6z M233.4,207l-1-0.6l1.2-2.1l1,0.6L233.4,207z M265.2,204.4l-1.2-2.1l1-0.6
			l1.2,2.1L265.2,204.4z M235.8,202.8l-1-0.6l1.2-2.1l1,0.6L235.8,202.8z M262.7,200.3l-1.2-2.1l1-0.6l1.2,2.1L262.7,200.3z
			 M238.2,198.6l-1-0.6l1.2-2.1l1,0.6L238.2,198.6z M260.3,196.1l-1.2-2.1l1-0.6l1.2,2.1L260.3,196.1z M240.6,194.4l-1-0.6l1.2-2.1
			l1,0.6L240.6,194.4z M257.9,191.9l-1.2-2.1l1-0.6l1.2,2.1L257.9,191.9z M243,190.2l-1-0.6l1.2-2.1l1,0.6L243,190.2z M255.5,187.7
			l-1.2-2.1l1-0.6l1.2,2.1L255.5,187.7z M245.4,186.1l-1-0.6l1.2-2.1l1,0.6L245.4,186.1z M253.1,183.5l-1.2-2.1l1-0.6l1.2,2.1
			L253.1,183.5z M247.9,181.9l-1-0.6l1.2-2.1l1,0.6L247.9,181.9z M250.7,179.4l-1.2-2.1l0,0l-0.3-0.2l0.8-1.3l1.7,3L250.7,179.4z"/>
	</g>
</g>
<g id="Layer_4">
</g>
<g>
	<g id="Layer_2_1_">
		<g>
			<g>
				<path d="M136.6,129.6l-1.5-2.6l2.5-1.5l1.5,2.6L136.6,129.6z M141.8,126.6l-1.5-2.6l2.5-1.5l1.5,2.6L141.8,126.6z M146.9,123.7
					l-1.5-2.6l2.5-1.5l1.5,2.6L146.9,123.7z M151.9,120.7l-1.5-2.6l2.5-1.5l1.5,2.6L151.9,120.7z M157.1,117.8l-1.5-2.6l2.5-1.5
					l1.5,2.6L157.1,117.8z M162.1,114.8l-1.5-2.6l2.5-1.5l1.5,2.6L162.1,114.8z M167.2,111.9l-1.5-2.6l2.5-1.5l1.5,2.6L167.2,111.9z
					 M172.4,108.9l-1.5-2.6l2.5-1.5l1.5,2.6L172.4,108.9z M177.4,106l-1.5-2.6l2.5-1.5l1.5,2.6L177.4,106z M182.4,103l-1.5-2.6
					l2.5-1.5l1.5,2.6L182.4,103z M187.6,100.1l-1.5-2.6l2.5-1.5l1.5,2.6L187.6,100.1z M192.6,97.2l-1.5-2.6l2.5-1.5l1.5,2.6
					L192.6,97.2z M197.8,94.2l-1.5-2.6l2.5-1.5l1.5,2.6L197.8,94.2z M202.9,91.3l-1.5-2.6l2.5-1.5l1.5,2.6L202.9,91.3z M207.9,88.3
					l-1.5-2.6l2.5-1.5l1.5,2.6L207.9,88.3z M213.1,85.4l-1.5-2.6l2.5-1.5l1.5,2.6L213.1,85.4z M218.1,82.4l-1.5-2.6l2.5-1.5l1.5,2.6
					L218.1,82.4z M223.2,79.5l-1.5-2.6l2.5-1.5l1.5,2.6L223.2,79.5z M228.4,76.5l-1.5-2.6l2.5-1.5l1.5,2.6L228.4,76.5z M233.4,73.6
					l-1.5-2.6l2.5-1.5l1.5,2.6L233.4,73.6z"/>
			</g>
			<g>
				<path d="M123.3,266.2h-3v-3.1h3V266.2z M123.3,260h-3v-3h3V260z M123.3,253.9h-3v-3.1h3V253.9z M123.3,247.8h-3v-3.1h3V247.8z
					 M123.3,241.7h-3v-3.1h3V241.7z M123.3,235.6h-3v-3.1h3V235.6z M123.3,229.5h-3v-3.1h3V229.5z M123.3,223.4h-3v-3.1h3V223.4z
					 M123.3,217.3h-3v-3.1h3V217.3z M123.3,211.2h-3v-3.1h3V211.2z M123.3,205.1h-3V202h3V205.1z M123.3,199h-3v-3.1h3V199z
					 M123.3,192.8h-3v-3.1h3V192.8z M123.3,186.7h-3v-3.1h3V186.7z M123.3,180.6h-3v-3.1h3V180.6z M123.3,174.5h-3v-3.1h3V174.5z
					 M123.3,168.4h-3v-3.1h3V168.4z M123.3,162.3h-3v-3.1h3V162.3z M123.3,156.2h-3v-3.1h3V156.2z"/>
			</g>
			<g>
				<polygon points="150.5,301.4 153,302.9 154.5,300.3 152,298.8 				"/>
				<polygon points="155.5,304.4 158,305.9 159.5,303.3 157,301.8 				"/>
				<polygon points="160.7,307.4 163.2,308.9 164.7,306.3 162.2,304.8 				"/>
				<polygon points="170.9,313.4 173.4,314.9 174.9,312.3 172.4,310.8 				"/>
				<polygon points="165.8,310.4 168.2,311.9 169.8,309.3 167.2,307.8 				"/>
				<polygon points="135.2,292.5 137.7,294 139.2,291.4 136.7,289.9 				"/>
				<polygon points="140.2,295.5 142.8,297 144.2,294.4 141.8,292.9 				"/>
				<polygon points="145.4,298.5 147.9,300 149.4,297.4 146.9,295.9 				"/>
				<polygon points="176,316.4 178.5,317.9 180,315.3 177.5,313.8 				"/>
				<polygon points="216.7,340.4 219.2,341.9 220.7,339.3 218.2,337.8 				"/>
				<polygon points="221.8,343.4 224.2,344.9 225.8,342.3 223.2,340.8 				"/>
				<polygon points="226.9,346.4 229.4,347.9 230.9,345.3 228.4,343.8 				"/>
				<polygon points="233.5,346.8 232,349.4 234.5,350.9 236,348.3 				"/>
				<polygon points="211.5,337.4 214,338.9 215.5,336.3 213,334.8 				"/>
				<polygon points="196.4,328.4 198.9,329.9 200.4,327.3 197.9,325.8 				"/>
				<polygon points="186.2,322.4 188.7,323.9 190.2,321.3 187.7,319.8 				"/>
				<polygon points="191.2,325.4 193.8,326.9 195.2,324.3 192.8,322.8 				"/>
				<polygon points="206.5,334.4 209,335.9 210.5,333.3 208,331.8 				"/>
				<polygon points="201.5,331.4 204,332.9 205.5,330.3 203,328.8 				"/>
				<polygon points="181,319.4 183.5,320.9 185,318.3 182.5,316.8 				"/>
			</g>
			<g>
				<polygon points="249.2,359.5 247.2,358.3 248.8,355.8 249.2,356.1 249.9,355.8 251.4,358.4 				"/>
			</g>
			<g>
				<path d="M376.4,266.8v-3h3v3H376.4z M376.4,260.7v-3h3v3H376.4z M376.4,254.6v-3h3v3H376.4z M376.2,248.5v-3h3v3H376.2z
					 M376.2,242.4v-3h3v3H376.2z M376.2,236.3v-3h3v3H376.2z M376.2,230.2v-3h3v3H376.2z M376.1,224.1v-3h3v3H376.1z M376.1,218v-3
					h3v3H376.1z M376.1,211.9v-3h3v3H376.1z M376.1,205.8v-3h3v3H376.1z M376,199.7v-3h3v3H376z M376,193.7v-3h3v3H376z M376,187.6
					v-3h3v3H376z M376,181.5v-3h3v3H376z M376,175.4v-3h3v3H376z M376,169.3v-3h3v3H376z M376,163.2v-3h3v3H376z M376,157.1v-3h3v3
					H376z"/>
			</g>
			<g>
				<path d="M362.5,130.4l-2.6-1.5l1.5-2.6l2.6,1.5L362.5,130.4z M357.4,127.4l-2.6-1.5l1.5-2.6l2.6,1.5L357.4,127.4z M352.2,124.4
					l-2.6-1.5l1.5-2.6l2.6,1.5L352.2,124.4z M347.1,121.4l-2.6-1.5l1.5-2.6l2.6,1.5L347.1,121.4z M342,118.4l-2.6-1.5l1.5-2.6
					l2.6,1.5L342,118.4z M336.9,115.5l-2.6-1.5l1.5-2.6l2.6,1.5L336.9,115.5z M331.8,112.5l-2.6-1.5l1.5-2.6l2.6,1.5L331.8,112.5z
					 M326.6,109.5L324,108l1.5-2.6l2.6,1.5L326.6,109.5z M321.5,106.5l-2.6-1.5l1.5-2.6l2.6,1.5L321.5,106.5z M316.4,103.5l-2.6-1.5
					l1.5-2.6l2.6,1.5L316.4,103.5z M311.2,100.5l-2.6-1.5l1.5-2.6l2.6,1.5L311.2,100.5z M306.1,97.6l-2.6-1.5l1.5-2.6l2.6,1.5
					L306.1,97.6z M301,94.6l-2.6-1.5l1.5-2.6l2.6,1.5L301,94.6z M295.9,91.6l-2.6-1.5l1.5-2.6l2.6,1.5L295.9,91.6z M290.8,88.6
					l-2.6-1.5l1.5-2.6l2.6,1.5L290.8,88.6z M285.6,85.6l-2.6-1.5l1.5-2.6l2.6,1.5L285.6,85.6z M280.5,82.7l-2.6-1.5l1.5-2.6l2.6,1.5
					L280.5,82.7z M275.5,79.7l-2.6-1.5l1.5-2.6l2.6,1.5L275.5,79.7z M270.2,76.7l-2.6-1.5l1.5-2.6l2.6,1.5L270.2,76.7z M265.1,73.7
					l-2.6-1.5l1.5-2.6l2.6,1.5L265.1,73.7z"/>
			</g>
		</g>
		<g>
			<path d="M249.6,285.9l-0.8-0.4l-64.5-37.9v-75.1l65.3-37.8l65.6,38.2l0.3,75L249.6,285.9z M187.2,245.8l62.3,36.6l62.9-36.3
				l-0.3-71.5l-62.6-36.5l-62.3,36V245.8L187.2,245.8z"/>
		</g>
		<g>
			<path d="M136.1,276.9l-1.5-2.6l2.6-1.5l1.5,2.6L136.1,276.9z M141.2,274l-1.5-2.6l2.6-1.5l1.5,2.6L141.2,274z M146.4,271
				l-1.5-2.6l2.6-1.5l1.5,2.6L146.4,271z M151.6,268l-1.5-2.6l2.6-1.5l1.5,2.6L151.6,268z M156.9,265l-1.5-2.6l2.6-1.5l1.5,2.6
				L156.9,265z M162.1,262.1l-1.5-2.6l2.6-1.5l1.5,2.6L162.1,262.1z M167.2,259.1l-1.5-2.6l2.6-1.5l1.5,2.6L167.2,259.1z
				 M172.4,256.1l-1.5-2.6l2.6-1.5l1.5,2.6L172.4,256.1z M177.8,253.1l-1.5-2.6l2.6-1.5l1.5,2.6L177.8,253.1z M182.9,250.2l-1.5-2.6
				l2.6-1.5l1.5,2.6L182.9,250.2z M188.1,247.2l-1.5-2.6l2.6-1.5l1.5,2.6L188.1,247.2z M193.4,244.2l-1.5-2.6l2.6-1.5l1.5,2.6
				L193.4,244.2z M198.6,241.3l-1.5-2.6l2.6-1.5l1.5,2.6L198.6,241.3z M203.8,238.3l-1.5-2.6l2.6-1.5l1.5,2.6L203.8,238.3z
				 M208.9,235.3l-1.5-2.6l2.6-1.5l1.5,2.6L208.9,235.3z M214.1,232.3l-1.5-2.6l2.6-1.5l1.5,2.6L214.1,232.3z M276.8,196.7l-1.5-2.6
				l2.6-1.5l1.5,2.6L276.8,196.7z M282,193.7l-1.5-2.6l2.6-1.5l1.5,2.6L282,193.7z M287.1,190.7l-1.5-2.6l2.6-1.5l1.5,2.6
				L287.1,190.7z M292.4,187.8l-1.5-2.6l2.6-1.5l1.5,2.6L292.4,187.8z M297.5,184.8l-1.5-2.6l2.6-1.5l1.5,2.6L297.5,184.8z
				 M302.9,181.8l-1.5-2.6l2.6-1.5l1.5,2.6L302.9,181.8z M308,178.9l-1.5-2.6l2.6-1.5l1.5,2.6L308,178.9z M313.2,175.9l-1.5-2.6
				l2.6-1.5l1.5,2.6L313.2,175.9z M318.5,172.9l-1.5-2.6l2.6-1.5l1.5,2.6L318.5,172.9z M323.6,169.9l-1.5-2.6l2.6-1.5l1.5,2.6
				L323.6,169.9z M328.9,167l-1.5-2.6l2.6-1.5l1.5,2.6L328.9,167z M334,164l-1.5-2.6l2.6-1.5l1.5,2.6L334,164z M339.2,161l-1.5-2.6
				l2.6-1.5l1.5,2.6L339.2,161z M344.5,158.1l-1.5-2.6l2.6-1.5l1.5,2.6L344.5,158.1z M349.8,155.1l-1.5-2.6l2.6-1.5l1.5,2.6
				L349.8,155.1z M355,152.1l-1.5-2.6l2.6-1.5l1.5,2.6L355,152.1z M360.1,149.1l-1.5-2.6l2.6-1.5l1.5,2.6L360.1,149.1z M365.4,146.2
				l-1.5-2.6l1.3-0.8l1.5,2.6L365.4,146.2z"/>
		</g>
		<g>
			<path d="M363,277l-2.6-1.5l1.5-2.6l2.6,1.5L363,277z M357.9,274l-2.6-1.5l1.5-2.6l2.6,1.5L357.9,274z M352.6,271l-2.6-1.5
				l1.5-2.6l2.6,1.5L352.6,271z M347.5,268l-2.6-1.5l1.5-2.6l2.6,1.5L347.5,268z M342.2,265l-2.6-1.5l1.5-2.6l2.6,1.5L342.2,265z
				 M337,262.1l-2.6-1.5l1.5-2.6l2.6,1.5L337,262.1z M331.9,259.1l-2.6-1.5l1.5-2.6l2.6,1.5L331.9,259.1z M326.6,256.1l-2.6-1.5
				l1.5-2.6l2.6,1.5L326.6,256.1z M321.5,253.1l-2.6-1.5l1.5-2.6l2.6,1.5L321.5,253.1z M316.2,250.1l-2.6-1.5l1.5-2.6l2.6,1.5
				L316.2,250.1z M311,247.1l-2.6-1.5l1.5-2.6l2.6,1.5L311,247.1z M305.9,244.1l-2.6-1.5l1.5-2.6l2.6,1.5L305.9,244.1z M300.6,241.1
				l-2.6-1.5l1.5-2.6l2.6,1.5L300.6,241.1z M295.4,238.1l-2.6-1.5l1.5-2.6l2.6,1.5L295.4,238.1z M290.1,235.1l-2.6-1.5l1.5-2.6
				l2.6,1.5L290.1,235.1z M285,232.2l-2.6-1.5l1.5-2.6l2.6,1.5L285,232.2z M222.6,196.3l-2.6-1.5l1.5-2.6l2.6,1.5L222.6,196.3z
				 M217.4,193.3l-2.6-1.5l1.5-2.6l2.6,1.5L217.4,193.3z M212.1,190.3l-2.6-1.5l1.5-2.6l2.6,1.5L212.1,190.3z M206.9,187.3l-2.6-1.5
				l1.5-2.6l2.6,1.5L206.9,187.3z M201.8,184.3l-2.6-1.5l1.5-2.6l2.6,1.5L201.8,184.3z M196.6,181.3l-2.6-1.5l1.5-2.6l2.6,1.5
				L196.6,181.3z M191.4,178.3l-2.6-1.5l1.5-2.6l2.6,1.5L191.4,178.3z M186.1,175.3l-2.6-1.5l1.5-2.6l2.6,1.5L186.1,175.3z
				 M180.9,172.4l-2.6-1.5l1.5-2.6l2.6,1.5L180.9,172.4z M175.8,169.4l-2.6-1.5l1.5-2.6l2.6,1.5L175.8,169.4z M170.6,166.4l-2.6-1.5
				l1.5-2.6l2.6,1.5L170.6,166.4z M165.4,163.4l-2.6-1.5l1.5-2.6l2.6,1.5L165.4,163.4z M160.1,160.4l-2.6-1.5l1.5-2.6l2.6,1.5
				L160.1,160.4z M154.9,157.4l-2.6-1.5l1.5-2.6l2.6,1.5L154.9,157.4z M149.8,154.4l-2.6-1.5l1.5-2.6l2.6,1.5L149.8,154.4z
				 M144.6,151.4l-2.6-1.5l1.5-2.6l2.6,1.5L144.6,151.4z M139.4,148.4l-2.6-1.5l1.5-2.6l2.6,1.5L139.4,148.4z"/>
		</g>
		<g>
			<rect x="248.5" y="165.7" width="3" height="3"/>
			<rect x="248.5" y="159.7" width="3" height="3"/>
			<rect x="248.5" y="153.7" width="3" height="3"/>
			<rect x="248.5" y="135.7" width="3" height="3"/>
			<rect x="248.5" y="141.7" width="3" height="3"/>
			<rect x="248.5" y="147.7" width="3" height="3"/>
			<rect x="248.5" y="77" width="3" height="1.7"/>
			<rect x="248.5" y="81.7" width="3" height="3"/>
			<rect x="248.5" y="87.7" width="3" height="3"/>
			<rect x="248.5" y="99.7" width="3" height="3"/>
			<rect x="248.5" y="93.7" width="3" height="3"/>
			<rect x="248.5" y="123.7" width="3" height="3"/>
			<rect x="248.5" y="117.7" width="3" height="3"/>
			<rect x="248.5" y="129.7" width="3" height="3"/>
			<rect x="248.5" y="105.7" width="3" height="3"/>
			<rect x="248.5" y="111.7" width="3" height="3"/>
			<rect x="248.5" y="297.7" width="3" height="3"/>
			<rect x="248.5" y="291.7" width="3" height="3"/>
			<rect x="248.5" y="285.7" width="3" height="3"/>
			<rect x="248.5" y="279.7" width="3" height="3"/>
			<rect x="248.5" y="309.7" width="3" height="3"/>
			<rect x="248.5" y="333.7" width="3" height="3"/>
			<rect x="248.5" y="339.7" width="3" height="3"/>
			<rect x="248.5" y="315.7" width="3" height="3"/>
			<rect x="248.5" y="321.7" width="3" height="3"/>
			<rect x="248.5" y="327.7" width="3" height="3"/>
			<rect x="248.5" y="303.7" width="3" height="3"/>
			<rect x="248.5" y="261.7" width="3" height="3"/>
			<rect x="248.5" y="267.7" width="3" height="3"/>
			<rect x="248.5" y="255.7" width="3" height="3"/>
			<rect x="248.5" y="273.7" width="3" height="3"/>
		</g>
	</g>
	<g>
		<g>
			<path d="M127.8,149.4l114.4,196c0.8-0.5,1.8-1,2.7-1.3L130.4,148C129.6,148.5,128.7,149,127.8,149.4z"/>
			<path d="M137,135.1c0,0.2,0,0.4,0,0.6c0,0.8-0.1,1.6-0.2,2.4l226.4,0.2c-0.2-0.8-0.2-1.7-0.2-2.6c0-0.1,0-0.3,0-0.4L137,135.1z"
				/>
		</g>
		<path d="M369.4,147.9L255,344c1,0.3,1.9,0.8,2.7,1.3l114.3-196C371.2,148.9,370.3,148.5,369.4,147.9z"/>
	</g>
	<g>
		<g>
			<path d="M250.1,77.9c-8.4,0-15.2-6.8-15.2-15.2s6.8-15.2,15.2-15.2s15.2,6.8,15.2,15.2S258.5,77.9,250.1,77.9z M250.1,48.6
				c-7.8,0-14.2,6.4-14.2,14.2S242.2,77,250.1,77c7.9,0,14.2-6.4,14.2-14.2S257.9,48.6,250.1,48.6z"/>
		</g>
	</g>
	<g>
		<g>
			<g>
				<rect x="314.7" y="317.6" transform="matrix(0.8662 -0.4997 0.4997 0.8662 -117.1421 200.694)" width="3" height="3"/>
				<rect x="289" y="332.5" transform="matrix(0.8662 -0.4997 0.4997 0.8662 -128.0263 189.8441)" width="3" height="3"/>
				<rect x="309.5" y="320.6" transform="matrix(0.8662 -0.4997 0.4997 0.8662 -119.3369 198.4969)" width="3" height="3"/>
				<rect x="304.4" y="323.6" transform="matrix(0.8662 -0.4997 0.4997 0.8662 -121.5184 196.3498)" width="3" height="3"/>
				<rect x="299.2" y="326.5" transform="matrix(0.8662 -0.4997 0.4997 0.8662 -123.6635 194.1382)" width="3" height="3"/>
				<rect x="294.1" y="329.5" transform="matrix(0.8662 -0.4997 0.4997 0.8662 -125.8449 191.9912)" width="3" height="3"/>
				<rect x="263.2" y="347.3" transform="matrix(0.8662 -0.4997 0.4997 0.8662 -138.8737 178.9321)" width="3" height="3"/>
				<rect x="268.4" y="344.4" transform="matrix(0.8662 -0.4997 0.4997 0.8662 -136.7287 181.1437)" width="3" height="3"/>
				<rect x="273.5" y="341.4" transform="matrix(0.8662 -0.4997 0.4997 0.8662 -134.5473 183.2907)" width="3" height="3"/>
				<rect x="278.7" y="338.4" transform="matrix(0.8662 -0.4997 0.4997 0.8662 -132.3524 185.4878)" width="3" height="3"/>
				<rect x="283.8" y="335.4" transform="matrix(0.8662 -0.4997 0.4997 0.8662 -130.171 187.6348)" width="3" height="3"/>
				<rect x="361" y="290.9" transform="matrix(0.8662 -0.4997 0.4997 0.8662 -97.6053 220.2575)" width="3" height="3"/>
				<rect x="355.9" y="293.9" transform="matrix(0.8662 -0.4997 0.4997 0.8662 -99.7868 218.1105)" width="3" height="3"/>
				<rect x="350.7" y="296.8" transform="matrix(0.8662 -0.4997 0.4997 0.8662 -101.9321 215.8989)" width="3" height="3"/>
				<rect x="319.8" y="314.7" transform="matrix(0.8662 -0.4997 0.4997 0.8662 -115.0106 202.8544)" width="3" height="3"/>
				<rect x="325" y="311.7" transform="matrix(0.8662 -0.4997 0.4997 0.8662 -112.8158 205.0514)" width="3" height="3"/>
				<rect x="330.1" y="308.7" transform="matrix(0.8662 -0.4997 0.4997 0.8662 -110.6343 207.1985)" width="3" height="3"/>
				<rect x="335.3" y="305.7" transform="matrix(0.8662 -0.4997 0.4997 0.8662 -108.4395 209.3955)" width="3" height="3"/>
				<rect x="340.4" y="302.8" transform="matrix(0.8662 -0.4997 0.4997 0.8662 -106.3083 211.5547)" width="3" height="3"/>
				<rect x="345.6" y="299.8" transform="matrix(0.8662 -0.4997 0.4997 0.8662 -104.1135 213.7518)" width="3" height="3"/>
			</g>
			<path d="M250.1,373c-8.4,0-15.2-6.8-15.2-15.2c0-8.4,6.8-15.2,15.2-15.2s15.2,6.8,15.2,15.2S258.5,373,250.1,373z M250.1,343.6
				c-7.8,0-14.2,6.4-14.2,14.2c0,7.8,6.4,14.2,14.2,14.2c7.8,0,14.2-6.4,14.2-14.2S257.9,343.6,250.1,343.6z"/>
		</g>
	</g>
	<g>
		<g>
			<path d="M377.6,150.9c-8.4,0-15.2-6.8-15.2-15.2s6.8-15.2,15.2-15.2c8.4,0,15.2,6.8,15.2,15.2S386,150.9,377.6,150.9z
				 M377.6,121.6c-7.8,0-14.2,6.4-14.2,14.2s6.4,14.2,14.2,14.2c7.8,0,14.2-6.4,14.2-14.2S385.5,121.6,377.6,121.6z"/>
		</g>
	</g>
	<g>
		<g>
			<path d="M122.3,150.9c-8.4,0-15.2-6.8-15.2-15.2s6.8-15.2,15.2-15.2s15.2,6.8,15.2,15.2S130.8,150.9,122.3,150.9z M122.3,121.6
				c-7.8,0-14.2,6.4-14.2,14.2s6.4,14.2,14.2,14.2s14.2-6.4,14.2-14.2S130.2,121.6,122.3,121.6z"/>
		</g>
	</g>
	<g>
		<g>
			<path d="M377.6,298.3c-8.4,0-15.2-6.8-15.2-15.2c0-8.4,6.8-15.2,15.2-15.2c8.4,0,15.2,6.8,15.2,15.2S386,298.3,377.6,298.3z
				 M377.6,268.9c-7.8,0-14.2,6.4-14.2,14.2c0,7.8,6.4,14.2,14.2,14.2c7.8,0,14.2-6.4,14.2-14.2S385.5,268.9,377.6,268.9z"/>
		</g>
	</g>
	<g>
		<g>
			<path d="M122.3,298.3c-8.4,0-15.2-6.8-15.2-15.2c0-8.4,6.8-15.2,15.2-15.2s15.2,6.8,15.2,15.2S130.8,298.3,122.3,298.3z
				 M122.3,268.9c-7.8,0-14.2,6.4-14.2,14.2c0,7.8,6.4,14.2,14.2,14.2s14.2-6.4,14.2-14.2S130.2,268.9,122.3,268.9z"/>
		</g>
	</g>
	<g>
		<circle cx="186.6" cy="246.3" r="7.2"/>
	</g>
	<g>
		<circle cx="186.6" cy="173.8" r="7.2"/>
	</g>
	<g>
		<ellipse transform="matrix(0.4641 -0.8858 0.8858 0.4641 13.4282 294.7726)" cx="250.3" cy="136.3" rx="7.2" ry="7.2"/>
	</g>
	<g>
		<circle cx="313.4" cy="173.8" r="7.2"/>
	</g>
	<g>
		<circle cx="313.4" cy="247.8" r="7.2"/>
	</g>
	<g>
		<circle cx="250" cy="284.2" r="7.2"/>
	</g>
	<g>
		<circle cx="249.8" cy="106.8" r="4"/>
		<path class="st2" d="M249.8,111.3c-2.5,0-4.5-2-4.5-4.5s2-4.5,4.5-4.5s4.5,2,4.5,4.5S252.1,111.3,249.8,111.3z M249.8,103.3
			c-1.9,0-3.5,1.6-3.5,3.5s1.6,3.5,3.5,3.5s3.5-1.6,3.5-3.5S251.6,103.3,249.8,103.3z"/>
	</g>
	<g>
		<circle cx="249.8" cy="316.3" r="4"/>
		<path class="st2" d="M249.8,320.8c-2.5,0-4.5-2-4.5-4.5s2-4.5,4.5-4.5s4.5,2,4.5,4.5S252.1,320.8,249.8,320.8z M249.8,312.8
			c-1.9,0-3.5,1.6-3.5,3.5s1.6,3.5,3.5,3.5s3.5-1.6,3.5-3.5S251.6,312.8,249.8,312.8z"/>
	</g>
	<g>
		<g>
			<circle cx="341.8" cy="262.7" r="4"/>
			<path class="st2" d="M341.8,267.2c-2.5,0-4.5-2-4.5-4.5s2-4.5,4.5-4.5s4.5,2,4.5,4.5S344.2,267.2,341.8,267.2z M341.8,259.2
				c-1.9,0-3.5,1.6-3.5,3.5s1.6,3.5,3.5,3.5s3.5-1.6,3.5-3.5S343.6,259.2,341.8,259.2z"/>
		</g>
		<g>
			<circle cx="156.9" cy="262.7" r="4"/>
			<path class="st2" d="M156.9,267.2c-2.5,0-4.5-2-4.5-4.5s2-4.5,4.5-4.5s4.5,2,4.5,4.5S159.4,267.2,156.9,267.2z M156.9,259.2
				c-1.9,0-3.5,1.6-3.5,3.5s1.6,3.5,3.5,3.5s3.5-1.6,3.5-3.5S158.9,259.2,156.9,259.2z"/>
		</g>
		<g>
			<circle cx="340.5" cy="159.3" r="4"/>
			<path class="st2" d="M340.5,163.8c-2.5,0-4.5-2-4.5-4.5s2-4.5,4.5-4.5s4.5,2,4.5,4.5S343,163.8,340.5,163.8z M340.5,155.8
				c-1.9,0-3.5,1.6-3.5,3.5s1.6,3.5,3.5,3.5s3.5-1.6,3.5-3.5S342.5,155.8,340.5,155.8z"/>
		</g>
		<g>
			<circle cx="159.9" cy="158.3" r="4"/>
			<path class="st2" d="M159.9,162.8c-2.5,0-4.5-2-4.5-4.5s2-4.5,4.5-4.5s4.5,2,4.5,4.5S162.4,162.8,159.9,162.8z M159.9,154.8
				c-1.9,0-3.5,1.6-3.5,3.5s1.6,3.5,3.5,3.5s3.5-1.6,3.5-3.5S161.9,154.8,159.9,154.8z"/>
		</g>
	</g>
	<g>
		<ellipse transform="matrix(0.4473 -0.8944 0.8944 0.4473 82.1513 258.3626)" cx="250.1" cy="62.7" rx="7.2" ry="7.2"/>
	</g>
	<g>
		<circle cx="250.1" cy="357.8" r="7.2"/>
	</g>
	<g>
		<circle cx="377.6" cy="135.7" r="7.2"/>
	</g>
	<g>
		<circle cx="377.6" cy="283.1" r="7.2"/>
	</g>
	<g>
		
			<ellipse transform="matrix(0.9951 -9.854417e-02 9.854417e-02 0.9951 -27.3016 13.4295)" cx="122.3" cy="283.1" rx="7.2" ry="7.2"/>
	</g>
	<g>
		<circle cx="122.3" cy="135.7" r="7.2"/>
	</g>
	<g>
		<g>
			<path d="M363.1,281.2L136.9,281c0.1,0.7,0.2,1.4,0.2,2.1c0,0.3,0,0.6,0,0.9l226,0.2c0-0.4-0.1-0.7-0.1-1.1
				C363,282.5,363,281.8,363.1,281.2z"/>
			<path d="M130.5,270.9L244.2,76.2c-0.9-0.4-1.8-0.9-2.6-1.5L127.9,269.5C128.8,269.9,129.7,270.3,130.5,270.9z"/>
		</g>
		<path d="M258.1,75c-0.8,0.6-1.7,1-2.7,1.4l113.7,194.8c0.8-0.6,1.7-1.1,2.6-1.5L258.1,75z"/>
	</g>
</g>
<g>
	<path d="M139.1,428l13.8-12.6h4v34h-9v-17.5L139,440l-8.9-8.1v17.4h-9v-34h4L139.1,428z"/>
	<path d="M163.8,415.4H185v7.4h-12.2v5.5h10.8v7.5h-10.8v6.3H185v7.3h-21.1L163.8,415.4L163.8,415.4z"/>
	<path d="M190.6,415.3h26.8v8.9h-9v25.2h-8.9v-25.2h-8.8v-8.9H190.6z"/>
	<path d="M214.9,449.4l15.9-34h4l16,34h-8.9l-2.1-4.4h-13.9l-2,4.4H214.9z M229.3,437.4h6.9l-3.4-7.5L229.3,437.4z"/>
	<path d="M248.3,415.3h26.8v8.9h-9v25.2h-8.9v-25.2h-8.9L248.3,415.3L248.3,415.3z"/>
	<path d="M301.1,449.4l-5.3-9h-5.5v9h-8.9v-34h14.3c6.9,0,12.5,5.6,12.5,12.5c0,3.6-1.6,6.9-4,9.2l7.2,12.3H301.1z M290.3,432.7h5.5
		c2.7,0,4.9-2.1,4.9-4.9c0-2.7-2.2-4.9-4.9-4.9h-5.5V432.7z"/>
	<path d="M329.2,415.4c9.4,0,17,7.7,17,17.1s-7.6,17-17,17s-17-7.6-17-17S319.8,415.4,329.2,415.4z M329.2,424.3
		c-4.4,0-8.1,3.6-8.1,8.1c0,4.4,3.6,8.1,8.1,8.1s8.1-3.7,8.1-8.1C337.3,427.9,333.6,424.3,329.2,424.3z"/>
	<path d="M376.4,449.4l-16.1-16.1v16.1h-8.9v-34h3.6l16.1,16.1v-16.1h8.9v34H376.4z"/>
</g>
<path d="M276.2,236.2l-24.4,14.4l-0.2-0.5l17.1-48.3L276.2,236.2z M267.4,195.8l-17.5,49.3l-17.7-49.8l17.6-23.4L267.4,195.8z
	 M230.7,201.1l17.4,49l-0.2,0.6l-24.2-14.5L230.7,201.1z"/>
</svg>
