<?xml version="1.0" encoding="utf-8"?>
<!-- Generator: Adobe Illustrator 23.0.3, SVG Export Plug-In . SVG Version: 6.00 Build 0)  -->
<svg version="1.1" id="Layer_1" xmlns="http://www.w3.org/2000/svg" xmlns:xlink="http://www.w3.org/1999/xlink" x="0px" y="0px"
	 viewBox="0 0 338.8 394.52" style="enable-background:new 0 0 338.8 394.52;" xml:space="preserve">
<style type="text/css">
	.st0{fill:#ffffff;}
	.st12{fill:#ffffff;}
</style>
<g>
	<path class="st0" d="M0.5,389.7c-0.25-0.2-0.5-0.54-0.5-0.99c0-0.69,0.59-1.29,1.28-1.29c0.35,0,0.64,0.15,0.84,0.29
		c3.47,3.11,6.94,4.49,11.7,4.48c5.2-0.01,8.76-2.94,8.75-6.91v-0.1c-0.01-3.66-1.95-5.79-9.82-7.35
		c-8.32-1.66-11.7-4.48-11.71-9.72l0-0.1c-0.01-5.15,4.68-9.12,11.12-9.14c4.65-0.01,7.88,1.17,11.05,3.54
		c0.25,0.2,0.55,0.54,0.55,1.04c0,0.69-0.59,1.29-1.28,1.29c-0.3,0-0.59-0.1-0.84-0.29c-3.03-2.32-6.05-3.25-9.57-3.24
		c-5.1,0.01-8.46,2.94-8.45,6.56v0.1c0.01,3.66,1.9,5.89,10.12,7.55c8.03,1.61,11.4,4.48,11.41,9.53l0,0.1
		c0.01,5.59-4.78,9.47-11.46,9.49C8.48,394.54,4.42,392.91,0.5,389.7z"/>
	<path class="st0" d="M46.03,360.38c0-0.69,0.59-1.29,1.28-1.29c0.69,0,1.29,0.59,1.29,1.28l0.08,32.48c0,0.69-0.59,1.29-1.29,1.29
		c-0.69,0-1.29-0.59-1.29-1.28L46.03,360.38z"/>
	<path class="st0" d="M71.38,360.36c0-0.69,0.59-1.29,1.28-1.29h0.25c0.54,0,0.94,0.29,1.29,0.74l13.57,19.87l13.47-19.94
		c0.3-0.45,0.74-0.74,1.29-0.75l0.25,0c0.69,0,1.29,0.59,1.29,1.28l0.08,32.43c0,0.69-0.59,1.29-1.28,1.29s-1.29-0.59-1.29-1.28
		l-0.07-29.02l-12.68,18.55c-0.3,0.45-0.64,0.65-1.09,0.65c-0.45,0-0.79-0.2-1.09-0.64l-12.77-18.49l0.07,29.07
		c0,0.69-0.54,1.24-1.23,1.24c-0.69,0-1.24-0.54-1.24-1.24L71.38,360.36z"/>
	<path class="st0" d="M126.5,360.38c0-0.69,0.59-1.29,1.28-1.29l11.29-0.03c7.62-0.02,12.88,3.88,12.9,10.56l0,0.1
		c0.02,7.28-6.26,11.06-13.49,11.07l-9.36,0.02l0.03,11.83c0,0.69-0.59,1.29-1.29,1.29c-0.69,0-1.29-0.59-1.29-1.28L126.5,360.38z
		 M138.63,378.42c6.44-0.02,10.79-3.39,10.77-8.54v-0.1c-0.01-5.5-4.28-8.36-10.52-8.34l-9.8,0.02l0.04,16.98L138.63,378.42z"/>
	<path class="st0" d="M171.71,360.07c0-0.69,0.59-1.29,1.28-1.29c0.69,0,1.29,0.59,1.29,1.28l0.08,31.19l19.36-0.05
		c0.64,0,1.19,0.54,1.19,1.19c0,0.64-0.54,1.19-1.18,1.19l-20.65,0.05c-0.69,0-1.29-0.59-1.29-1.28L171.71,360.07z"/>
	<path class="st0" d="M210.78,391.69l-0.11-45.84c0-0.99,0.84-1.84,1.83-1.84l31.97-0.08c0.92,0,1.7,0.77,1.7,1.69
		c0,0.92-0.77,1.7-1.69,1.7l-30.14,0.07l0.05,19.45l26.95-0.07c0.92,0,1.7,0.77,1.7,1.69c0,0.92-0.77,1.7-1.69,1.7l-26.95,0.07
		l0.05,19.88l30.49-0.08c0.92,0,1.7,0.77,1.7,1.69c0,0.92-0.77,1.7-1.69,1.7l-32.33,0.08C211.63,393.52,210.78,392.68,210.78,391.69
		z"/>
	<path class="st0" d="M249.78,368.81v-0.14c-0.03-13.51,9.91-25.63,24.91-25.67c15-0.04,24.86,11.89,24.89,25.41l0,0.14
		c0.03,13.51-9.91,25.63-24.91,25.67C259.67,394.25,249.81,382.32,249.78,368.81z M295.76,368.7v-0.14
		c-0.03-12.24-8.97-22.26-21.21-22.23c-12.24,0.03-20.98,9.96-20.95,22.19l0,0.14c0.03,12.24,8.97,22.26,21.21,22.23
		C287.04,390.86,295.79,380.94,295.76,368.7z"/>
	<path class="st0" d="M303.58,387.07c-0.35-0.28-0.71-0.78-0.71-1.41c0-0.99,0.84-1.84,1.83-1.84c0.5,0,0.92,0.21,1.2,0.42
		c4.96,4.44,9.92,6.41,16.71,6.4c7.43-0.02,12.51-4.2,12.5-9.86l0-0.14c-0.01-5.23-2.78-8.27-14.03-10.51
		c-11.89-2.38-16.71-6.4-16.73-13.89v-0.14c-0.02-7.36,6.69-13.03,15.88-13.06c6.65-0.02,11.25,1.67,15.79,5.05
		c0.35,0.28,0.78,0.78,0.78,1.48c0,0.99-0.84,1.84-1.83,1.84c-0.42,0-0.85-0.14-1.2-0.42c-4.32-3.31-8.64-4.65-13.66-4.64
		c-7.29,0.02-12.09,4.2-12.07,9.37l0,0.14c0.01,5.23,2.71,8.41,14.46,10.79c11.47,2.3,16.29,6.4,16.3,13.61v0.14
		c0.02,7.99-6.83,13.53-16.38,13.55C314.99,393.98,309.18,391.66,303.58,387.07z"/>
</g>
<g>
	<polygon class="st12" points="169.4,19.36 262.28,76.22 170.49,76.22 168.31,76.22 76.52,76.22 	"/>
	<polygon class="st12" points="168.31,79.05 170.49,79.05 264.87,79.05 169.4,247.6 73.92,79.05 	"/>
	<polygon class="st12" points="105.81,227.04 74.9,86.53 167.89,250.69 167.89,311.08 	"/>
	<polygon class="st12" points="232.99,227.04 170.91,311.08 170.91,250.69 263.9,86.53 	"/>
</g>
</svg>
